<svg fill="#696969" id="Icons" height="64" viewBox="0 0 60 60" width="64" xmlns="http://www.w3.org/2000/svg">
    <path d="m50 32.577v-26.592a6.007 6.007 0 0 0 -6-6h-38a6.021 6.021 0 0 0 -6 6v16a2 2 0 0 0 2 2h8v26.375a1.992 1.992 0 0 0 3.062 1.686l2.694-1.691 3.693 2.332a2.014 2.014 0 0 0 2.125 0l3.692-2.33 3.667 2.318a1.981 1.981 0 0 0 2.14 0l2.018-1.275a14 14 0 1 0 16.909-18.823zm-40-10.59h-8v-16a4.018 4.018 0 0 1 4.01-4h.079a2.394 2.394 0 0 1 .311.013 4.152 4.152 0 0 1 3.6 4.2zm20 29-3.667-2.319a1.986 1.986 0 0 0 -2.141 0l-3.681 2.33-3.688-2.328a1.977 1.977 0 0 0 -2.139 0l-2.684 1.69v-44.16a6.358 6.358 0 0 0 -1.6-4.211h33.6a4 4 0 0 1 4 4v26.158a13.939 13.939 0 0 0 -15.551 17.3zm16 7.003a12 12 0 1 1 12-12 12.014 12.014 0 0 1 -12 12z"/><path d="m16 21.987h28a1 1 0 0 0 0-2h-28a1 1 0 0 0 0 2z"/><path d="m30 39.988h-14a1 1 0 0 0 0 2h14a1 1 0 0 0 0-2z"/>
    <path d="m16 26.987h3a1 1 0 0 0 0-2h-3a1 1 0 1 0 0 2z"/>
    <path d="m40 24.987h-17a1 1 0 0 0 0 2h17a1 1 0 0 0 0-2z"/>
    <path d="m16 31.988h3a1 1 0 0 0 0-2h-3a1 1 0 0 0 0 2z"/>
    <path d="m39 29.987h-16a1 1 0 0 0 0 2h16a1 1 0 0 0 0-2z"/>
    <path d="m16 36.988h3a1 1 0 0 0 0-2h-3a1 1 0 0 0 0 2z"/>
    <path d="m33 34.988h-10a1 1 0 0 0 0 2h10a1 1 0 0 0 0-2z"/>
    <path d="m19 11.985a1 1 0 1 1 -.867 1.5 1 1 0 1 0 -1.731 1 2.993 2.993 0 0 0 1.6 1.3v.2a1 1 0 1 0 2 0v-.185a2.993 2.993 0 0 0 -1-5.817 1 1 0 1 1 .867-1.5 1 1 0 0 0 1.731-1 2.993 2.993 0 0 0 -1.6-1.303v-.195a1 1 0 1 0 -2 0v.184a2.993 2.993 0 0 0 1 5.816z"/><path d="m26 11.985h9a1 1 0 0 0 0-2h-9a1 1 0 0 0 0 2z"/><path d="m26 16.986h18a1 1 0 0 0 0-2h-18a1 1 0 0 0 0 2z"/>
    <path d="m50.181 40.415-6.317 9.025-2.157-2.158a1 1 0 0 0 -1.414 1.418l3 3a1 1 0 0 0 .707.29.844.844 0 0 0 .087 0 1 1 0 0 0 .732-.423l7-10a1 1 0 1 0 -1.638-1.147z"/>
</svg>
