<svg width="54" height="34" viewBox="0 0 54 34" fill="none" xmlns="http://www.w3.org/2000/svg">
<path d="M5.69024 21.5963H0.933492C0.471632 21.5963 0.096283 21.2209 0.096283 20.759V9.00463C0.096283 8.54277 0.471632 8.16742 0.933492 8.16742H7.0521C7.51396 8.16742 7.88931 8.54277 7.88931 9.00463C7.88931 9.46649 7.51396 9.84184 7.0521 9.84184H1.7707V19.9218H5.69024C6.1521 19.9218 6.52745 20.2972 6.52745 20.759C6.52745 21.2209 6.15349 21.5963 5.69024 21.5963Z" fill="white"/>
<path d="M51.8219 19.1432H47.3037C46.8419 19.1432 46.4665 18.7679 46.4665 18.306V14.3725C46.4665 13.9107 46.8419 13.5353 47.3037 13.5353C47.7656 13.5353 48.1409 13.9107 48.1409 14.3725V17.4688H51.8219C52.2837 17.4688 52.6591 17.8442 52.6591 18.306C52.6591 18.7679 52.2851 19.1432 51.8219 19.1432Z" fill="white"/>
<path d="M36.5386 27.3368H28.2809C27.8191 27.3368 27.4437 26.9614 27.4437 26.4996C27.4437 26.0377 27.8191 25.6624 28.2809 25.6624H36.5386C37.0005 25.6624 37.3758 26.0377 37.3758 26.4996C37.3758 26.9614 37.0005 27.3368 36.5386 27.3368Z" fill="white"/>
<path d="M53.894 26.374L52.4344 16.7544C52.1916 14.9181 50.7377 13.5354 49.0493 13.5354H37.0326L35.9916 4.06372C35.7963 2.23861 34.2642 0.862793 32.4265 0.862793H15.3488C15.3447 0.862793 15.3419 0.862793 15.3377 0.862793C15.3335 0.862793 15.3307 0.862793 15.3265 0.862793H10.3451C8.51024 0.862793 6.97815 2.23861 6.7842 4.05675L4.69117 22.1181C4.68978 22.1265 4.68838 22.1349 4.68838 22.1433L4.45815 24.1344C4.36466 24.9479 4.6242 25.7642 5.16978 26.3754C5.71536 26.9865 6.49675 27.3367 7.31582 27.3367H8.3721C8.78792 30.6033 11.5828 33.1372 14.9609 33.1372C18.3391 33.1372 21.134 30.6033 21.5498 27.3367H35.7572C36.173 30.6033 38.9679 33.1372 42.3461 33.1372C45.7242 33.1372 48.5191 30.6033 48.9349 27.3367H53.0679C53.3121 27.3367 53.5437 27.2307 53.7028 27.0451C53.8605 26.8609 53.9302 26.6154 53.894 26.374ZM28.2502 2.53721H32.4265C33.4061 2.53721 34.2223 3.26977 34.327 4.24512L35.3484 13.5354H28.2516V2.53721H28.2502ZM16.1749 2.53721H26.5758V13.5354H16.1749V2.53721V2.53721ZM8.44745 4.24233C8.5521 3.26977 9.36699 2.53721 10.3437 2.53721H14.4991V13.5354H7.37164L8.44745 4.24233ZM7.17768 15.2098H27.4047C27.4075 15.2098 27.4102 15.2098 27.413 15.2098C27.4158 15.2098 27.4186 15.2098 27.4214 15.2098H36.2777C36.2791 15.2098 36.2805 15.2098 36.2819 15.2098H49.0493C49.9019 15.2098 50.6442 15.9702 50.7754 16.9791C50.7768 16.9847 50.7768 16.9902 50.7782 16.9972L51.4437 21.3814H46.5809C45.4312 20.4256 43.9549 19.8507 42.3461 19.8507C40.7372 19.8507 39.2595 20.427 38.1084 21.3814H19.1986C18.0475 20.4256 16.5698 19.8507 14.9609 19.8507C13.3521 19.8507 11.8758 20.427 10.7261 21.3814H6.46187L7.17768 15.2098ZM8.37071 25.6623H7.31582C6.96838 25.6623 6.65024 25.52 6.41861 25.2605C6.18699 25.0009 6.08234 24.6688 6.12141 24.3256L6.26792 23.0558H9.28048C8.80745 23.8358 8.48931 24.7177 8.37071 25.6623ZM14.9595 31.4628C12.2233 31.4628 9.99768 29.24 9.99071 26.5065C9.99071 26.5037 9.99071 26.5023 9.99071 26.4995C9.99071 26.4953 9.99071 26.4926 9.99071 26.4884C9.9935 23.7507 12.2219 21.5251 14.9595 21.5251C17.7 21.5251 19.9284 23.7549 19.9284 26.494C19.9284 29.233 17.7 31.4628 14.9595 31.4628ZM35.7558 25.6623H21.5498C21.4312 24.7191 21.1158 23.8344 20.6428 23.0572H36.6614C36.1884 23.8344 35.873 24.7191 35.7558 25.6623ZM47.3135 26.5037C47.3093 29.24 45.0809 31.4642 42.3447 31.4642C39.6042 31.4642 37.3758 29.2344 37.3758 26.4953C37.3758 23.7563 39.6056 21.5265 42.3447 21.5265C45.0837 21.5265 47.3121 23.7549 47.3135 26.494C47.3135 26.4967 47.3135 26.4981 47.3135 26.5009C47.3135 26.5009 47.3135 26.5023 47.3135 26.5037ZM48.9335 25.6623C48.8149 24.7177 48.4968 23.8358 48.0237 23.0572H51.6963L52.0912 25.6623H48.9335Z" fill="white"/>
<path d="M14.9679 27.3312H14.9512C14.4893 27.3312 14.114 26.9558 14.114 26.4939C14.114 26.0321 14.4893 25.6567 14.9512 25.6567H14.9679C15.4298 25.6567 15.8051 26.0321 15.8051 26.4939C15.8051 26.9558 15.4312 27.3312 14.9679 27.3312Z" fill="white"/>
<path d="M42.353 27.3312H42.3363C41.8744 27.3312 41.4991 26.9558 41.4991 26.4939C41.4991 26.0321 41.8744 25.6567 42.3363 25.6567H42.353C42.8149 25.6567 43.1902 26.0321 43.1902 26.4939C43.1902 26.9558 42.8149 27.3312 42.353 27.3312Z" fill="white"/>
<path d="M27.4186 18.6354H23.9889C23.527 18.6354 23.1516 18.26 23.1516 17.7981C23.1516 17.3363 23.527 16.9609 23.9889 16.9609H27.4186C27.8805 16.9609 28.2558 17.3363 28.2558 17.7981C28.2558 18.26 27.8819 18.6354 27.4186 18.6354Z" fill="white"/>
</svg>
