<svg width="60" height="46" viewBox="0 0 60 46" fill="none" xmlns="http://www.w3.org/2000/svg">
<path d="M30 36.3772C24.8986 36.3772 20.7488 32.2274 20.7488 27.126V9.26557C20.7488 4.16417 24.8986 0.0144043 30 0.0144043C35.1014 0.0144043 39.2511 4.16417 39.2511 9.26557V27.126C39.2511 32.2274 35.1014 36.3772 30 36.3772ZM30 1.77254C25.8683 1.77254 22.5069 5.13394 22.5069 9.26557V27.126C22.5069 31.2577 25.8683 34.6191 30 34.6191C34.1316 34.6191 37.493 31.2577 37.493 27.126V9.26557C37.493 5.13394 34.1316 1.77254 30 1.77254Z" fill="white"/>
<path d="M29.1377 35.2135L29.1223 28.2618L21.7325 28.2591V26.5009L38.3721 26.5079V28.266L30.8805 28.2632L30.8958 35.2093L29.1377 35.2135Z" fill="white"/>
<path d="M38.1279 24.3144H35.1977C34.7121 24.3144 34.3186 23.9209 34.3186 23.4354C34.3186 22.9498 34.7121 22.5563 35.1977 22.5563H38.1279C38.6135 22.5563 39.007 22.9498 39.007 23.4354C39.007 23.9209 38.6135 24.3144 38.1279 24.3144ZM24.6893 24.3144H21.7242C21.2386 24.3144 20.8451 23.9209 20.8451 23.4354C20.8451 22.9498 21.2386 22.5563 21.7242 22.5563H24.6893C25.1749 22.5563 25.5684 22.9498 25.5684 23.4354C25.5684 23.9209 25.1749 24.3144 24.6893 24.3144ZM38.1279 20.9656H36.4535C35.9679 20.9656 35.5744 20.5721 35.5744 20.0865C35.5744 19.6009 35.9679 19.2075 36.4535 19.2075H38.1279C38.6135 19.2075 39.007 19.6009 39.007 20.0865C39.007 20.5721 38.6135 20.9656 38.1279 20.9656ZM23.4181 20.9656H21.7242C21.2386 20.9656 20.8451 20.5721 20.8451 20.0865C20.8451 19.6009 21.2386 19.2075 21.7242 19.2075H23.4181C23.9037 19.2075 24.2972 19.6009 24.2972 20.0865C24.2972 20.5721 23.9037 20.9656 23.4181 20.9656Z" fill="white"/>
<path d="M30 40.1251C22.7442 40.1251 16.8418 34.2228 16.8418 26.967V23.8274C16.8418 23.3419 17.2353 22.9484 17.7209 22.9484C18.2065 22.9484 18.6 23.3419 18.6 23.8274V26.967C18.6 33.253 23.7139 38.367 30 38.367C36.286 38.367 41.4 33.253 41.4 26.967V23.8623C41.4 23.3767 41.7934 22.9832 42.279 22.9832C42.7646 22.9832 43.1581 23.3767 43.1581 23.8623V26.967C43.1581 34.2228 37.2558 40.1251 30 40.1251Z" fill="white"/>
<path d="M35.3191 45.9856H25.133C24.6474 45.9856 24.2539 45.5921 24.2539 45.1065C24.2539 44.621 24.6474 44.2275 25.133 44.2275H29.3637V39.3158C29.3637 38.8303 29.7572 38.4368 30.2428 38.4368C30.7284 38.4368 31.1218 38.8303 31.1218 39.3158V44.2275H35.3191C35.8046 44.2275 36.1981 44.621 36.1981 45.1065C36.1981 45.5921 35.8046 45.9856 35.3191 45.9856Z" fill="white"/>
<path d="M17.7209 18.9158C17.2353 18.9158 16.8418 18.5223 16.8418 18.0368V15.6786C16.8418 15.193 17.2353 14.7996 17.7209 14.7996C18.2065 14.7996 18.6 15.193 18.6 15.6786V18.0368C18.6 18.5223 18.2065 18.9158 17.7209 18.9158Z" fill="white"/>
<path d="M13.5181 18.9158H13.5167C13.0311 18.9144 12.639 18.5209 12.639 18.0353L12.6558 8.75628C12.6572 8.27069 13.0507 7.8786 13.5349 7.8786H13.5362C14.0218 7.88 14.4139 8.27349 14.4139 8.75907L14.3972 18.0381C14.3958 18.5237 14.0023 18.9158 13.5181 18.9158Z" fill="white"/>
<path d="M9.33207 18.9158C9.33068 18.9158 9.33068 18.9158 9.33207 18.9158C8.8451 18.9158 8.453 18.5209 8.453 18.0353L8.46975 5.89995C8.46975 5.41437 8.86324 5.02228 9.34882 5.02228H9.35021C9.8358 5.02228 10.2293 5.41716 10.2279 5.90274L10.2111 18.0381C10.2098 18.5237 9.81626 18.9158 9.33207 18.9158Z" fill="white"/>
<path d="M5.14601 18.9158H5.14461C4.65903 18.9144 4.26694 18.5209 4.26694 18.0353L4.28368 10.5353C4.28508 10.0511 4.67857 9.65765 5.16275 9.65765H5.16415C5.64973 9.65905 6.04182 10.0525 6.04182 10.5381L6.02508 18.0381C6.02368 18.5237 5.63019 18.9158 5.14601 18.9158Z" fill="white"/>
<path d="M0.959987 18.9158C0.958591 18.9158 0.957196 18.9158 0.955801 18.9158C0.470219 18.913 0.0781262 18.5181 0.0809169 18.0325L0.0976611 14.5846C0.100452 14.1004 0.492545 13.7097 0.976731 13.7097C0.978126 13.7097 0.979522 13.7097 0.980917 13.7097C1.4665 13.7125 1.85859 14.1074 1.8558 14.593L1.83906 18.0409C1.83627 18.5251 1.44278 18.9158 0.959987 18.9158Z" fill="white"/>
<path d="M17.7209 21.2042C17.2353 21.2042 16.8418 20.8107 16.8418 20.3251V17.967C16.8418 17.4814 17.2353 17.0879 17.7209 17.0879C18.2065 17.0879 18.6 17.4814 18.6 17.967V20.3251C18.6 20.8107 18.2065 21.2042 17.7209 21.2042Z" fill="white"/>
<path d="M13.5349 28.1251C13.0507 28.1251 12.6572 27.733 12.6558 27.2474L12.639 17.9684C12.6376 17.4828 13.0311 17.0879 13.5167 17.0879H13.5181C14.0023 17.0879 14.3958 17.48 14.3972 17.9656L14.4139 27.2446C14.4153 27.7302 14.0218 28.1251 13.5363 28.1251H13.5349Z" fill="white"/>
<path d="M9.34882 30.9814C8.86324 30.9814 8.47114 30.5893 8.46975 30.1037L8.453 17.9684C8.453 17.4828 8.8451 17.0893 9.33068 17.0879H9.33207C9.81765 17.0879 10.2097 17.48 10.2111 17.9656L10.2279 30.1009C10.2279 30.5865 9.83579 30.9814 9.34882 30.9814C9.35021 30.9814 9.34882 30.9814 9.34882 30.9814Z" fill="white"/>
<path d="M5.16276 26.346C4.67857 26.346 4.28508 25.9539 4.28369 25.4684L4.26694 17.9684C4.26555 17.4828 4.65903 17.0879 5.14462 17.0879H5.14601C5.6302 17.0879 6.02369 17.48 6.02508 17.9656L6.04183 25.4656C6.04322 25.9511 5.64973 26.346 5.16415 26.346H5.16276Z" fill="white"/>
<path d="M0.976731 22.2939C0.49394 22.2939 0.100452 21.9032 0.0976611 21.4191L0.0809169 17.9711C0.0781262 17.4856 0.470219 17.0907 0.955801 17.0879C0.957196 17.0879 0.958591 17.0879 0.959987 17.0879C1.44278 17.0879 1.83627 17.4786 1.83906 17.9628L1.8558 21.4107C1.85859 21.8963 1.4665 22.2911 0.980917 22.2939C0.979522 22.2939 0.978126 22.2939 0.976731 22.2939Z" fill="white"/>
<path d="M42.2791 18.9856C41.7935 18.9856 41.4 18.5921 41.4 18.1065V15.7484C41.4 15.2628 41.7935 14.8693 42.2791 14.8693C42.7646 14.8693 43.1581 15.2628 43.1581 15.7484V18.1065C43.1581 18.5921 42.7646 18.9856 42.2791 18.9856Z" fill="white"/>
<path d="M46.4819 18.9856C45.9977 18.9856 45.6042 18.5935 45.6028 18.1079L45.5861 8.82883C45.5847 8.34325 45.9782 7.94836 46.4637 7.94836H46.4651C46.9493 7.94836 47.3428 8.34046 47.3442 8.82604L47.3609 18.1051C47.3623 18.5907 46.9688 18.9856 46.4833 18.9856C46.4833 18.9856 46.4833 18.9856 46.4819 18.9856Z" fill="white"/>
<path d="M50.6679 18.9855C50.1823 18.9855 49.7902 18.5934 49.7888 18.1079L49.7721 5.97251C49.7721 5.48692 50.1642 5.09344 50.6498 5.09204H50.6512C51.1367 5.09204 51.5288 5.48413 51.5302 5.96971L51.547 18.1051C51.5484 18.5906 51.1549 18.9855 50.6679 18.9855C50.6693 18.9855 50.6693 18.9855 50.6679 18.9855Z" fill="white"/>
<path d="M54.8539 18.9855C54.3698 18.9855 53.9763 18.5935 53.9749 18.1079L53.9581 10.6079C53.9567 10.1223 54.3502 9.72742 54.8358 9.72742H54.8372C55.3214 9.72742 55.7149 10.1195 55.7163 10.6051L55.733 18.1051C55.7344 18.5907 55.3409 18.9855 54.8553 18.9855C54.8553 18.9855 54.8553 18.9855 54.8539 18.9855Z" fill="white"/>
<path d="M59.04 18.9855C58.5572 18.9855 58.1637 18.5948 58.1609 18.1106L58.1441 14.6627C58.1414 14.1772 58.5335 13.7823 59.019 13.7795C59.0204 13.7795 59.0218 13.7795 59.0232 13.7795C59.506 13.7795 59.8995 14.1702 59.9023 14.6544L59.919 18.1023C59.9218 18.5879 59.5297 18.9827 59.0441 18.9855C59.0441 18.9855 59.0414 18.9855 59.04 18.9855Z" fill="white"/>
<path d="M42.2791 21.4135C41.7935 21.4135 41.4 21.02 41.4 20.5344V18.1763C41.4 17.6907 41.7935 17.2972 42.2791 17.2972C42.7646 17.2972 43.1581 17.6907 43.1581 18.1763V20.5344C43.1581 21.02 42.7646 21.4135 42.2791 21.4135Z" fill="white"/>
<path d="M46.4651 28.3345H46.4637C45.9781 28.3331 45.586 27.9396 45.586 27.454L45.6028 18.1749C45.6042 17.6893 45.9977 17.2972 46.4818 17.2972H46.4832C46.9688 17.2986 47.3609 17.6921 47.3609 18.1777L47.3442 27.4568C47.3428 27.9424 46.9493 28.3345 46.4651 28.3345Z" fill="white"/>
<path d="M50.6512 31.1907C50.6512 31.1907 50.6498 31.1907 50.6512 31.1907C50.1642 31.1907 49.7721 30.7958 49.7721 30.3103L49.7888 18.1749C49.7888 17.6893 50.1823 17.2972 50.6679 17.2972H50.6693C51.1549 17.2972 51.5484 17.6921 51.547 18.1777L51.5302 30.3131C51.5288 30.7986 51.1367 31.1907 50.6512 31.1907Z" fill="white"/>
<path d="M54.8372 26.5554H54.8358C54.3502 26.554 53.9581 26.1605 53.9581 25.6749L53.9749 18.1749C53.9763 17.6907 54.3698 17.2972 54.8539 17.2972H54.8553C55.3409 17.2986 55.733 17.6921 55.733 18.1777L55.7163 25.6777C55.7149 26.1633 55.3214 26.5554 54.8372 26.5554Z" fill="white"/>
<path d="M59.0232 22.5033C59.0218 22.5033 59.0204 22.5033 59.019 22.5033C58.5335 22.5005 58.1414 22.1056 58.1441 21.62L58.1609 18.1721C58.1637 17.6879 58.5558 17.2972 59.04 17.2972C59.0414 17.2972 59.0428 17.2972 59.0441 17.2972C59.5297 17.3 59.9218 17.6949 59.919 18.1805L59.9023 21.6284C59.8995 22.1126 59.506 22.5033 59.0232 22.5033Z" fill="white"/>
</svg>
