<svg width="60" height="60" viewBox="0 0 60 60" fill="none" xmlns="http://www.w3.org/2000/svg">
<path d="M20.9888 56.3065H11.4642C10.4651 56.3065 9.65299 55.4944 9.65299 54.4954V49.3326C9.65299 48.3335 10.4651 47.5214 11.4642 47.5214H11.6135V45.5498L5.07346 38.1698C4.32416 37.3242 3.91113 36.2372 3.91113 35.107V22.5502C3.91113 20.7126 5.40555 19.2181 7.24323 19.2181C8.13485 19.2181 8.97206 19.5656 9.60137 20.1963C10.2307 20.827 10.5767 21.6656 10.5753 22.5572L10.5558 31.7121C10.6939 31.6563 10.839 31.6074 10.9911 31.5656C12.646 31.1093 14.4223 31.6298 15.6265 32.9219L22.3632 40.1512C22.5153 40.3144 22.599 40.5279 22.599 40.7498V47.5535C23.0232 47.6344 23.4056 47.8661 23.6776 48.2135C24.0237 48.6544 24.1451 49.2181 24.0125 49.7623L22.7483 54.9251C22.5488 55.7386 21.8246 56.3065 20.9888 56.3065ZM11.4642 49.2795C11.4349 49.2795 11.4111 49.3033 11.4111 49.3326V54.4954C11.4111 54.5247 11.4349 54.5484 11.4642 54.5484H20.9874C21.0125 54.5484 21.0335 54.5316 21.039 54.5079L22.3032 49.3437C22.3046 49.3354 22.3088 49.3186 22.2935 49.2977C22.2767 49.2767 22.26 49.2767 22.2516 49.2767H11.4642V49.2795ZM13.3716 47.5214H20.8409V41.0972L14.34 34.1205C13.5837 33.3084 12.48 32.9791 11.4586 33.2609C10.8069 33.4395 10.5921 33.7284 10.5516 34.1051L15.3488 39.4967C15.6711 39.8595 15.639 40.4149 15.2762 40.7372C14.9135 41.0595 14.3581 41.0274 14.0358 40.6647L9.01532 35.0233C8.88416 34.8767 8.80741 34.6898 8.79485 34.4944C8.78509 34.3437 8.78509 34.1972 8.79346 34.0549L8.81718 22.553C8.81857 22.1316 8.65532 21.7367 8.35671 21.4381C8.0595 21.1395 7.66323 20.9763 7.24323 20.9763C6.37532 20.9763 5.66927 21.6823 5.66927 22.5502V35.107C5.66927 35.8061 5.92462 36.48 6.38927 37.0033L13.1511 44.633C13.2935 44.7935 13.3716 45.0014 13.3716 45.2163V47.5214Z" fill="white"/>
<path d="M48.5358 56.3065H39.0125C38.1753 56.3065 37.4525 55.7386 37.253 54.9265L35.9888 49.7637C35.8563 49.2195 35.9777 48.6558 36.3237 48.2149C36.5972 47.8661 36.9781 47.6358 37.4023 47.5549V40.7512C37.4023 40.5293 37.486 40.3144 37.6381 40.1526L44.3749 32.9233C45.5791 31.6312 47.3553 31.1121 49.0102 31.567C49.1623 31.6088 49.3074 31.6577 49.4456 31.7135L49.426 22.5586C49.4246 21.667 49.7693 20.8284 50.4 20.1977C51.0293 19.567 51.8679 19.2195 52.7581 19.2195C54.5958 19.2195 56.0902 20.714 56.0902 22.5516V35.1084C56.0902 36.2386 55.6772 37.3256 54.9279 38.1712L48.3879 45.5512V47.5228H48.5372C49.5363 47.5228 50.3484 48.3349 50.3484 49.334V54.4968C50.347 55.4944 49.5335 56.3065 48.5358 56.3065ZM37.747 49.2795C37.7386 49.2795 37.7205 49.2795 37.7051 49.3005C37.6898 49.3214 37.6939 49.3382 37.6953 49.3465L38.9595 54.5093C38.9651 54.533 38.986 54.5498 39.0112 54.5498H48.5344C48.5637 54.5498 48.5874 54.5261 48.5874 54.4968V49.334C48.5874 49.3047 48.5637 49.2809 48.5344 49.2809H37.747V49.2795ZM39.1591 47.5214H46.6284V45.2163C46.6284 45.0014 46.7065 44.7935 46.8488 44.633L53.6107 37.0033C54.0753 36.48 54.3307 35.8061 54.3307 35.107V22.5502C54.3307 21.6823 53.6246 20.9763 52.7567 20.9763C52.3353 20.9763 51.9405 21.1409 51.6432 21.4381C51.346 21.7368 51.1828 22.1316 51.1828 22.553L51.2065 34.0549C51.2163 34.1972 51.2149 34.3437 51.2051 34.4944C51.1925 34.6898 51.1158 34.8754 50.9846 35.0233L45.9642 40.6647C45.6419 41.0275 45.0851 41.0595 44.7237 40.7372C44.3609 40.4149 44.3288 39.8595 44.6512 39.4968L49.4484 34.1051C49.4079 33.7284 49.193 33.4395 48.5414 33.2609C47.52 32.9791 46.4163 33.3084 45.66 34.1205L39.1591 41.0972V47.5214Z" fill="white"/>
<path d="M29.6972 33.1633C27.152 33.1633 24.7855 31.5963 23.0302 28.7512C21.339 26.0093 20.4083 22.3772 20.4083 18.5261C20.4083 14.6749 21.339 11.0428 23.0302 8.30095C24.7841 5.45583 27.152 3.88885 29.6972 3.88885C30.0753 3.88885 30.3809 4.19444 30.3809 4.57258C30.3809 4.95072 30.0753 5.2563 29.6972 5.2563C27.6446 5.2563 25.6911 6.59165 24.1939 9.01816C22.6339 11.5479 21.7758 14.9233 21.7758 18.5261C21.7758 22.1275 22.6353 25.5042 24.1939 28.034C25.6897 30.4605 27.6446 31.7958 29.6972 31.7958C30.0753 31.7958 30.3809 32.1014 30.3809 32.4796C30.3809 32.8577 30.0753 33.1633 29.6972 33.1633Z" fill="white"/>
<path d="M29.6972 33.1633C29.6944 33.1633 29.693 33.1633 29.6902 33.1633C29.3121 33.1591 29.0093 32.8507 29.0135 32.4726C29.033 30.3782 29.0595 26.6526 29.0595 18.5261C29.0595 12.42 29.0442 9.93489 29.0274 7.05768C29.0232 6.29024 29.0177 5.48792 29.0135 4.57536C29.0121 4.19722 29.3163 3.89024 29.693 3.88745C30.067 3.88885 30.3781 4.19024 30.3809 4.56838C30.3851 5.47954 30.3907 6.28187 30.3949 7.04931C30.4116 9.92931 30.427 12.4158 30.427 18.5261C30.427 26.6582 30.4004 30.3879 30.3809 32.4865C30.3781 32.8605 30.0725 33.1633 29.6972 33.1633Z" fill="white"/>
<path d="M29.6972 33.1633C29.319 33.1633 29.0134 32.8577 29.0134 32.4796C29.0134 32.1014 29.319 31.7958 29.6972 31.7958C34.2181 31.7958 37.8976 25.8433 37.8976 18.5261C37.8976 11.2089 34.2195 5.2563 29.6972 5.2563C29.319 5.2563 29.0134 4.95072 29.0134 4.57258C29.0134 4.19444 29.319 3.88885 29.6972 3.88885C32.312 3.88885 34.7483 5.45304 36.5553 8.29258C38.3023 11.0358 39.2637 14.6707 39.2637 18.5261C39.2637 22.3814 38.3023 26.0163 36.5553 28.7596C34.7483 31.5991 32.312 33.1633 29.6972 33.1633Z" fill="white"/>
<path d="M43.6506 19.2098H15.7437C15.3655 19.2098 15.0599 18.9042 15.0599 18.5261C15.0599 18.1479 15.3655 17.8423 15.7437 17.8423H43.6506C44.0288 17.8423 44.3344 18.1479 44.3344 18.5261C44.3344 18.9042 44.0288 19.2098 43.6506 19.2098Z" fill="white"/>
<path d="M29.7 10.6061C26.2898 10.6061 22.973 9.85402 20.3609 8.48797C20.026 8.31355 19.8963 7.90053 20.0721 7.56565C20.2465 7.23076 20.6609 7.10099 20.9944 7.27681C23.414 8.54239 26.506 9.23867 29.7 9.23867C32.8953 9.23867 35.986 8.54239 38.4028 7.27681C38.7377 7.10099 39.1507 7.23076 39.3251 7.56565C39.5009 7.90053 39.3711 8.31355 39.0363 8.48797C36.427 9.85402 33.1116 10.6061 29.7 10.6061Z" fill="white"/>
<path d="M38.7181 29.8535C38.6107 29.8535 38.5033 29.8284 38.4014 29.7753C35.9819 28.5098 32.8898 27.8135 29.6958 27.8135C26.5005 27.8135 23.4098 28.5098 20.993 29.7753C20.6581 29.9512 20.2451 29.8214 20.0707 29.4865C19.8949 29.1516 20.0246 28.7386 20.3595 28.5642C22.9688 27.1981 26.2842 26.446 29.6958 26.446C33.106 26.446 36.4228 27.1981 39.0349 28.5642C39.3698 28.7386 39.4995 29.1516 39.3237 29.4865C39.2023 29.7195 38.9651 29.8535 38.7181 29.8535Z" fill="white"/>
<path d="M29.7097 33.1633C21.639 33.1633 15.0725 26.5968 15.0725 18.5261C15.0725 10.4554 21.639 3.88885 29.7097 3.88885C37.7804 3.88885 44.3469 10.4554 44.3469 18.5261C44.3469 26.5968 37.7804 33.1633 29.7097 33.1633ZM29.7097 5.2563C22.3925 5.2563 16.44 11.2089 16.44 18.5261C16.44 25.8433 22.3925 31.7958 29.7097 31.7958C37.0269 31.7958 42.9795 25.8433 42.9795 18.5261C42.9795 11.2089 37.0269 5.2563 29.7097 5.2563Z" fill="white"/>
</svg>
