<svg width="42" height="47" viewBox="0 0 42 47" fill="none" xmlns="http://www.w3.org/2000/svg">
<path d="M1.21997 37.4395C1.21718 37.4395 1.21439 37.4395 1.2102 37.4395C0.748344 37.4339 0.377181 37.0557 0.381367 36.5939C0.412065 33.7501 2.78695 31.4353 4.88277 29.3939C6.40928 27.9064 7.98742 26.3673 7.83393 25.2636C7.61486 23.6897 5.98788 22.7087 4.26463 21.6692C4.05114 21.5408 3.83765 21.4125 3.62695 21.2827C3.23346 21.0399 3.11067 20.5236 3.35346 20.1301C3.59625 19.7366 4.11114 19.6139 4.50602 19.8566C4.71253 19.9836 4.92044 20.1092 5.12974 20.2362C7.02044 21.3762 9.1637 22.6697 9.493 25.0334C9.7637 26.9771 7.96091 28.7339 6.05207 30.5939C4.18928 32.4092 2.07951 34.466 2.05579 36.6134C2.0516 37.0711 1.67765 37.4395 1.21997 37.4395Z" fill="white"/>
<path d="M15.9674 46.6027C11.4228 46.6027 7.19489 45.1488 3.78186 42.3609C3.30186 41.9688 2.86512 41.5669 2.48419 41.1678C2.16466 40.833 2.17721 40.3027 2.5121 39.9846C2.84698 39.6651 3.37721 39.6776 3.69535 40.0125C4.02884 40.3627 4.41535 40.7158 4.84233 41.066C8.82605 44.3199 14.0516 45.5785 19.5577 44.6102C25.1098 43.6334 30.2753 40.5148 34.1042 35.8278C41.9767 26.1916 41.6614 12.859 33.4009 6.1097C26.0154 0.0762151 14.3977 1.29017 6.37721 8.93249C6.04233 9.25203 5.5121 9.23808 5.19396 8.90459C4.87442 8.5697 4.88838 8.03947 5.22326 7.72133C9.37721 3.76412 14.5986 1.27063 19.9261 0.702727C25.3456 0.125052 30.5084 1.58459 34.4628 4.81482C43.4391 12.1488 43.8605 26.5362 35.4033 36.8883C31.3219 41.8851 25.7977 45.2144 19.8507 46.2609C18.5377 46.4883 17.24 46.6027 15.9674 46.6027Z" fill="white"/>
<path d="M28.9609 29.9144C27.8125 29.9144 26.6558 29.5335 25.6986 28.7521C23.4939 26.9507 23.166 23.6925 24.9674 21.4879C26.7688 19.2832 30.0269 18.9553 32.2316 20.7567C34.4362 22.5581 34.7641 25.8163 32.9627 28.0209C31.9441 29.267 30.4581 29.9144 28.9609 29.9144ZM26.7576 27.4544C28.2465 28.6711 30.4497 28.4493 31.6665 26.9605C32.8832 25.4716 32.6614 23.2698 31.1725 22.0516C29.6837 20.8349 27.4804 21.0567 26.2637 22.5456C25.0469 24.0358 25.2688 26.2377 26.7576 27.4544Z" fill="white"/>
<path d="M16.5688 41.112C15.2223 41.112 13.9288 40.6529 12.8726 39.7892C11.66 38.7985 10.9065 37.3962 10.7488 35.8376C10.5912 34.2804 11.0516 32.7553 12.0409 31.5427C14.0851 29.0395 17.7842 28.6683 20.2874 30.7125C21.5 31.7032 22.2535 33.1055 22.4112 34.6641C22.5674 36.2213 22.1084 37.7464 21.1191 38.959C20.1284 40.1715 18.726 40.925 17.1674 41.0827C16.9665 41.1022 16.767 41.112 16.5688 41.112ZM16.5828 31.0669C15.3688 31.0669 14.1632 31.5916 13.3372 32.6032C12.6298 33.4697 12.3019 34.5581 12.4135 35.6716C12.5251 36.7836 13.0637 37.7869 13.9302 38.4943C14.7967 39.2018 15.8851 39.5297 16.9986 39.4181C18.1107 39.3064 19.114 38.7678 19.82 37.9013C20.5274 37.0348 20.8553 35.9464 20.7437 34.8329C20.6321 33.7209 20.0935 32.7176 19.227 32.0102C18.4526 31.3753 17.5149 31.0669 16.5828 31.0669Z" fill="white"/>
<path d="M26.1953 15.9887C25.2018 15.9887 24.2028 15.6594 23.3753 14.9827C21.4693 13.4255 21.1846 10.6069 22.7418 8.69944C24.299 6.79339 27.1176 6.50874 29.0251 8.06595C30.9311 9.62316 31.2158 12.4418 29.6586 14.3492C28.7753 15.4306 27.4902 15.9887 26.1953 15.9887ZM26.2023 8.73711C25.393 8.73711 24.5893 9.08595 24.0381 9.7613C23.0642 10.9529 23.2414 12.7138 24.433 13.6878C25.6246 14.6618 27.3855 14.4845 28.3595 13.2929C29.3335 12.1013 29.1562 10.3404 27.9646 9.36641C27.4469 8.94223 26.8232 8.73711 26.2023 8.73711Z" fill="white"/>
<path d="M12.5404 18.139C11.6753 18.139 10.8423 17.8431 10.1642 17.2892C9.38557 16.6529 8.89999 15.7501 8.79952 14.7497C8.69906 13.7478 8.99347 12.7683 9.63115 11.9883C10.9456 10.3794 13.3232 10.1394 14.9321 11.4538C15.7107 12.0901 16.1963 12.9929 16.2967 13.9934C16.3972 14.9952 16.1028 15.9748 15.4651 16.7548C14.8288 17.5334 13.926 18.019 12.9256 18.1194C12.7972 18.1334 12.6688 18.139 12.5404 18.139ZM12.5502 12.2799C11.9432 12.2799 11.3404 12.5422 10.9274 13.0473C10.573 13.4799 10.4098 14.0255 10.4656 14.5808C10.5214 15.1376 10.7907 15.6385 11.2232 15.9915C11.6558 16.3459 12.2 16.5092 12.7567 16.4534C13.3135 16.3976 13.8144 16.1283 14.1674 15.6957C14.5218 15.2631 14.6851 14.7176 14.6293 14.1622C14.5735 13.6055 14.3042 13.1045 13.8716 12.7515C13.4837 12.4334 13.0149 12.2799 12.5502 12.2799Z" fill="white"/>
</svg>
