<svg width="60" height="60" viewBox="0 0 60 60" fill="none" xmlns="http://www.w3.org/2000/svg">
<path d="M16.6382 38.9511C16.4289 38.9511 16.2182 38.873 16.0549 38.7139L16.0521 38.7111C15.7214 38.3888 15.7145 37.8585 16.0382 37.5278C16.3605 37.1971 16.8907 37.1902 17.2214 37.5139C17.5521 37.8362 17.5605 38.3678 17.2368 38.6985C17.0749 38.8674 16.8558 38.9511 16.6382 38.9511Z" fill="white"/>
<path d="M36.2847 21.6306C35.9192 21.2999 35.4336 21.166 34.9522 21.2609L31.7833 21.8846C31.3298 21.9739 31.034 22.4134 31.1233 22.8683C31.2126 23.3218 31.6536 23.6176 32.1057 23.5283L35.0987 22.9395L34.4554 29.4334L31.7833 29.9581C31.3298 30.0474 31.034 30.4869 31.1233 30.9404C31.2015 31.3395 31.5517 31.6158 31.9438 31.6158C31.9968 31.6158 32.0512 31.6102 32.1057 31.6004L34.8754 31.0562C35.548 30.9237 36.0447 30.3767 36.1117 29.6944L36.7829 22.9227C36.8331 22.433 36.6503 21.9613 36.2847 21.6306Z" fill="white"/>
<path d="M21.1117 29.4432C20.8187 29.0484 20.3666 28.8209 19.874 28.8209C19.3815 28.8209 18.9308 29.0484 18.6363 29.4432L14.5801 34.9046C14.1712 35.4544 14.1712 36.194 14.5801 36.7437L18.6363 42.2051C18.9308 42.6014 19.3815 42.8274 19.874 42.8274C20.3666 42.8274 20.8173 42.6 21.1117 42.2051L25.1694 36.7437C25.5768 36.194 25.5768 35.4558 25.1694 34.9046L21.1117 29.4432ZM19.874 41.0637L15.9824 35.8242L19.874 30.5846L23.7657 35.8242L19.874 41.0637Z" fill="white"/>
<path d="M52.2126 19.5656L36.8261 5.58276C36.3308 5.13206 35.6889 4.90183 35.0163 4.93392C34.3452 4.96602 33.727 5.25625 33.2777 5.7516L23.4377 16.5795H9.47867C8.09448 16.5795 6.96704 17.7056 6.96704 19.0911V52.5558C6.96704 53.9414 8.09448 55.0674 9.47867 55.0674H30.2708C31.6549 55.0674 32.7824 53.9414 32.7824 52.5558V44.6818L52.3829 23.1125C53.3136 22.0897 53.2382 20.4976 52.2126 19.5656ZM31.1066 52.5572C31.1066 53.019 30.7312 53.3944 30.2694 53.3944H9.47867C9.01681 53.3944 8.64146 53.019 8.64146 52.5572V19.0925C8.64146 18.6307 9.01681 18.2553 9.47867 18.2553H30.2708C30.7326 18.2553 31.108 18.6307 31.108 19.0925V52.5572H31.1066ZM51.1438 21.9865L32.781 42.1925V19.0925C32.781 17.7069 31.6536 16.5809 30.2694 16.5809H25.6996L34.5168 6.87904C34.6661 6.71439 34.8712 6.61811 35.0959 6.60834C35.3191 6.59718 35.534 6.67392 35.6987 6.82323L51.0866 20.8046C51.4284 21.1158 51.4536 21.646 51.1438 21.9865Z" fill="white"/>
<path d="M36.247 9.7688C35.9163 9.4688 35.4098 9.47997 35.0931 9.79531L32.9861 11.8911C32.9847 11.8925 32.9847 11.8925 32.9847 11.8939C32.947 11.933 32.9121 11.9748 32.8814 12.0195C32.8801 12.0209 32.8787 12.0223 32.8787 12.0237C32.8494 12.0683 32.8242 12.1172 32.8033 12.1674C32.8033 12.1688 32.8019 12.1702 32.8019 12.1716C32.7628 12.2665 32.7419 12.3711 32.7419 12.4786C32.7419 12.48 32.7419 12.4828 32.7419 12.4842C32.7419 12.5135 32.7433 12.5428 32.7461 12.5735C32.7475 12.593 32.7517 12.6111 32.7545 12.6307C32.7559 12.6362 32.7559 12.6418 32.7573 12.6488C32.767 12.6976 32.781 12.7437 32.7977 12.7883C32.7991 12.7939 32.8019 12.7981 32.8033 12.8037C32.8228 12.8511 32.8466 12.8958 32.8731 12.9376C32.8759 12.9404 32.8773 12.9446 32.8787 12.9474C32.9094 12.9935 32.9442 13.0353 32.9819 13.0744C32.9819 13.0744 32.9819 13.0758 32.9833 13.0758C33.1563 13.2488 33.4019 13.3451 33.6656 13.3172C33.9294 13.2893 34.1931 13.3758 34.3898 13.553C34.574 13.7204 34.6814 13.9493 34.694 14.1976C34.7052 14.446 34.6201 14.6832 34.4526 14.8674C34.2852 15.0516 34.0563 15.159 33.808 15.1716C33.5596 15.1842 33.321 15.0976 33.1382 14.9302C32.9428 14.7516 32.8312 14.4976 32.834 14.2311C32.8396 13.7693 32.4684 13.3897 32.0052 13.3855C31.5405 13.3744 31.1638 13.7511 31.1596 14.2144C31.1512 14.9581 31.4624 15.6711 32.0121 16.1707C32.4949 16.6102 33.1117 16.8474 33.7605 16.8474C33.8024 16.8474 33.8456 16.846 33.8889 16.8446C34.5838 16.8111 35.2242 16.5097 35.6917 15.9948C36.1591 15.48 36.3991 14.813 36.3656 14.1181C36.3321 13.4232 36.0307 12.7828 35.5159 12.3153C35.4126 12.2218 35.301 12.1409 35.1866 12.0655L35.7098 11.5451L37.1945 12.8944C37.5363 13.2055 38.0666 13.1804 38.3777 12.8372C38.6889 12.4953 38.6638 11.9651 38.3205 11.6539L36.247 9.7688Z" fill="white"/>
<path d="M14.7238 25.9785H12.9601L14.7629 23.8101C14.7699 23.8018 14.7768 23.792 14.7838 23.7836C15.095 23.3762 15.2596 22.8906 15.2596 22.3799C15.2596 21.106 14.2229 20.0692 12.9489 20.0692C11.675 20.0692 10.6396 21.106 10.6396 22.3799C10.6396 22.8418 11.015 23.2171 11.4768 23.2171C11.9387 23.2171 12.314 22.8418 12.314 22.3799C12.314 22.0297 12.5987 21.7436 12.9489 21.7436C13.2992 21.7436 13.5852 22.0297 13.5852 22.3799C13.5852 22.5501 13.5196 22.6771 13.4624 22.7567L10.5322 26.2827C10.3243 26.5325 10.2796 26.8799 10.4178 27.1729C10.5559 27.466 10.8503 27.6543 11.1754 27.6543H14.7238C15.1857 27.6543 15.561 27.279 15.561 26.8171C15.561 26.3553 15.1857 25.9785 14.7238 25.9785Z" fill="white"/>
<path d="M28.3786 43.9659H24.8303C24.3684 43.9659 23.993 44.3413 23.993 44.8032C23.993 45.265 24.3684 45.6404 24.8303 45.6404H26.594L24.7912 47.8087C24.7842 47.8171 24.7772 47.8269 24.7703 47.8352C24.4591 48.2427 24.2944 48.7283 24.2944 49.239C24.2944 50.5129 25.3312 51.5497 26.6051 51.5497C27.8791 51.5497 28.9144 50.5129 28.9144 49.239C28.9144 48.7771 28.5391 48.4018 28.0772 48.4018C27.6154 48.4018 27.24 48.7771 27.24 49.239C27.24 49.5892 26.9554 49.8752 26.6051 49.8752C26.2549 49.8752 25.9689 49.5892 25.9689 49.239C25.9689 49.0687 26.0344 48.9418 26.0916 48.8636L29.0219 45.3376C29.2298 45.0878 29.2744 44.7404 29.1363 44.4473C28.9982 44.1543 28.7037 43.9659 28.3786 43.9659Z" fill="white"/>
</svg>
