<svg width="60" height="60" viewBox="0 0 60 60" fill="none" xmlns="http://www.w3.org/2000/svg">
<path d="M24.4507 54.1367C23.9889 54.1367 23.6135 53.7614 23.6135 53.2995V29.8841C23.6135 29.4223 23.9889 29.0469 24.4507 29.0469C24.9126 29.0469 25.2879 29.4223 25.2879 29.8841V53.3009C25.2879 53.7628 24.9126 54.1367 24.4507 54.1367Z" fill="white"/>
<path d="M40.1875 28.0799C40.0884 27.6279 39.6419 27.3418 39.1912 27.4409C38.6735 27.5539 36.3642 28.126 35.3233 29.4879L28.3172 27.2106C28.3298 27.0865 28.3354 26.9609 28.3354 26.8353C28.3354 26.7097 28.3284 26.5827 28.3172 26.4599L35.3233 24.1827C36.3642 25.5446 38.6735 26.1167 39.1912 26.2297C39.2512 26.2423 39.3112 26.2492 39.3712 26.2492C39.7563 26.2492 40.1024 25.9827 40.1875 25.592C40.2865 25.1413 40.0019 24.6948 39.5498 24.5944C38.467 24.3558 36.7535 23.6567 36.5135 22.9158C36.2735 22.1748 37.2475 20.6023 37.9828 19.7734C38.2898 19.4274 38.2591 18.8999 37.913 18.5916C37.567 18.2846 37.0382 18.3153 36.7312 18.6599C36.3782 19.0562 34.8475 20.8758 34.8056 22.5892L27.7982 24.8665C27.2582 23.9511 26.3554 23.2772 25.2879 23.0413V15.6739C26.9051 15.1046 28.1623 13.0855 28.4303 12.6279C28.6633 12.2288 28.5293 11.7153 28.1303 11.4823C27.7312 11.2479 27.2177 11.3832 26.9847 11.7823C26.4251 12.7367 25.2335 14.1502 24.4493 14.1502C23.6707 14.1502 22.4763 12.7367 21.914 11.7809C21.681 11.3832 21.1675 11.2479 20.7684 11.4823C20.3693 11.7153 20.2354 12.2288 20.4684 12.6279C20.7363 13.0855 21.9935 15.1046 23.6107 15.6739V23.0413C23.3624 23.0958 23.1237 23.1739 22.8963 23.2744L18.5651 17.3134C19.5391 15.9027 19.3703 13.5292 19.3172 13.0018C19.2712 12.5413 18.8637 12.2065 18.4019 12.2511C17.9414 12.2972 17.6051 12.706 17.6512 13.1665C17.76 14.2674 17.6261 16.112 16.9926 16.5725C16.3619 17.0302 14.5647 16.5892 13.5489 16.1455C13.1261 15.9613 12.6321 16.1539 12.4465 16.5767C12.261 17.0009 12.4535 17.4934 12.8777 17.679C13.2614 17.8465 14.7196 18.4423 16.1247 18.4423C16.4972 18.4423 16.8656 18.3976 17.2103 18.2958L21.5428 24.2595C21.3768 24.4465 21.2289 24.6502 21.1005 24.8665L14.093 22.5892C14.0512 20.8758 12.5205 19.0548 12.1675 18.6599C11.8605 18.3153 11.3317 18.2832 10.987 18.5902C10.641 18.8972 10.6103 19.426 10.9158 19.772C11.6512 20.6023 12.6265 22.1748 12.3851 22.9158C12.1451 23.6567 10.4317 24.3558 9.34886 24.5944C8.89677 24.6934 8.61072 25.1399 8.70979 25.5906C8.79491 25.9827 9.14235 26.2492 9.52747 26.2492C9.58607 26.2492 9.64747 26.2423 9.70747 26.2297C10.2251 26.1167 12.5344 25.5446 13.5754 24.1827L20.5814 26.4599C20.5689 26.5841 20.5633 26.7097 20.5633 26.8353C20.5633 26.9609 20.5703 27.0879 20.5814 27.2106L13.5768 29.4879C12.5358 28.126 10.2265 27.5539 9.70886 27.4409C9.25677 27.3418 8.81165 27.6278 8.71258 28.0785C8.61351 28.5292 8.89817 28.9758 9.35026 29.0762C10.433 29.3148 12.1465 30.0139 12.3865 30.7548C12.6265 31.4958 11.6526 33.0669 10.9172 33.8972C10.6103 34.2432 10.641 34.772 10.9856 35.079C11.1447 35.2213 11.3442 35.2911 11.5424 35.2911C11.7726 35.2911 12.0028 35.1962 12.1675 35.0106C12.5191 34.6144 14.0512 32.7948 14.093 31.0813L21.1005 28.8041C21.2289 29.0204 21.3768 29.2241 21.5428 29.4111L17.2117 35.3734C15.5693 34.8837 13.3647 35.7781 12.8791 35.9902C12.4549 36.1758 12.2624 36.6697 12.4479 37.0925C12.6335 37.5167 13.1275 37.7092 13.5503 37.5237C14.5633 37.0799 16.3591 36.6376 16.9926 37.0981C17.6233 37.5558 17.7586 39.4018 17.6512 40.5041C17.6065 40.9646 17.9414 41.3734 18.4019 41.4195C18.4298 41.4223 18.4577 41.4237 18.4856 41.4237C18.9112 41.4237 19.2754 41.1013 19.3172 40.6688C19.3703 40.1413 19.5391 37.7692 18.5651 36.3572L22.8963 30.3962C23.3721 30.6041 23.8968 30.7213 24.4479 30.7213C24.9991 30.7213 25.5237 30.6055 25.9996 30.3962L30.3307 36.3572C29.3568 37.7679 29.5256 40.1413 29.5786 40.6688C29.6219 41.1013 29.9861 41.4237 30.4103 41.4237C30.4382 41.4237 30.4661 41.4223 30.494 41.4195C30.9544 41.3734 31.2907 40.9646 31.2447 40.5041C31.1358 39.4032 31.2698 37.5585 31.9033 37.0981C32.534 36.6404 34.3312 37.0813 35.347 37.5251C35.7698 37.7106 36.2637 37.5167 36.4493 37.0939C36.6349 36.6697 36.4424 36.1772 36.0182 35.9916C35.5326 35.7795 33.3279 34.8851 31.6856 35.3748L27.3544 29.4125C27.5205 29.2255 27.6684 29.0218 27.7968 28.8055L34.8042 31.0827C34.8461 32.7962 36.3768 34.6172 36.7298 35.012C36.8944 35.1976 37.1247 35.2925 37.3549 35.2925C37.553 35.2925 37.7512 35.2227 37.9103 35.0818C38.2563 34.7748 38.287 34.246 37.9814 33.8999C37.2461 33.0697 36.2707 31.4972 36.5121 30.7562C36.7521 30.0153 38.4656 29.3162 39.5484 29.0776C40.0005 28.9772 40.2865 28.532 40.1875 28.0799ZM22.2391 26.8353C22.2391 25.6158 23.2312 24.6251 24.4493 24.6251C25.6689 24.6251 26.6596 25.6172 26.6596 26.8353C26.6596 28.0534 25.6675 29.0455 24.4493 29.0455C23.2312 29.0469 22.2391 28.0548 22.2391 26.8353Z" fill="white"/>
<path d="M40.6731 10.1944C40.4889 9.77162 39.9949 9.57767 39.5707 9.76186C38.5549 10.2042 36.7577 10.6465 36.127 10.1888C35.4963 9.73116 35.361 7.88511 35.4684 6.78279C35.5131 6.32232 35.1782 5.91348 34.7177 5.86744C34.2559 5.82139 33.847 6.15767 33.8024 6.61814C33.7494 7.14558 33.5805 9.51767 34.5545 10.9298L29.7852 17.4935C29.5131 17.8674 29.5968 18.3907 29.9708 18.6628C30.1187 18.7702 30.2917 18.8233 30.4619 18.8233C30.7214 18.8233 30.9754 18.7033 31.1401 18.4786L35.9094 11.9149C36.254 12.0181 36.6224 12.0614 36.9949 12.0614C38.4001 12.0614 39.8582 11.467 40.2419 11.2981C40.6647 11.1098 40.8573 10.6172 40.6731 10.1944Z" fill="white"/>
<path d="M51.0084 19.387C50.6539 19.0897 50.1265 19.1358 49.8293 19.4888C49.1149 20.3358 47.7014 21.5302 46.9326 21.3991C46.1651 21.2679 45.2247 19.6744 44.8298 18.6391C44.6665 18.2065 44.1837 17.9888 43.7512 18.1521C43.3186 18.3153 43.1009 18.7981 43.2642 19.2307C43.4512 19.726 44.3526 21.9279 45.8526 22.7595L44.4935 30.7577C44.4154 31.2139 44.7223 31.6465 45.1786 31.7232C45.2261 31.7316 45.2735 31.7358 45.3195 31.7358C45.72 31.7358 46.0744 31.447 46.1442 31.0381L47.5033 23.04C49.193 22.7497 50.7712 20.9693 51.1116 20.5632C51.4074 20.2116 51.3614 19.6856 51.0084 19.387Z" fill="white"/>
</svg>
