<svg width="26" height="24" viewBox="0 0 26 24" fill="none" xmlns="http://www.w3.org/2000/svg">
<path d="M2.29527 0.650391C1.48785 0.828125 0.721053 1.40703 0.345271 2.12813C-0.0203535 2.82891 -4.10156e-05 2.31602 -4.10156e-05 10.0449C-4.10156e-05 16.7734 0.00503711 17.007 0.0964434 17.1492C0.253865 17.3879 0.446834 17.4844 0.771834 17.4844H1.05621L2.29527 16.6059C2.97066 16.1234 3.99644 15.3973 4.57027 14.9859C5.1441 14.5797 5.73824 14.1887 5.89058 14.1227L6.16988 14.0059L11.3242 13.9805L16.4785 13.9551L16.8187 13.823C17.7582 13.4574 18.4539 12.6652 18.6925 11.6953C18.7484 11.4668 18.7636 10.441 18.7636 6.28711C18.7636 1.24961 18.7636 1.15313 18.6621 0.985548C18.6062 0.889063 18.4945 0.767189 18.4183 0.706251L18.2761 0.599609L10.4457 0.589455C3.95582 0.584375 2.55933 0.594532 2.29527 0.650391ZM17.2046 6.72891C17.1894 11.2586 17.1894 11.3195 17.0828 11.543C16.9355 11.8578 16.7425 12.0762 16.4582 12.2438L16.2246 12.3809L11.1211 12.4062C6.58629 12.4316 5.98707 12.4469 5.73824 12.518C5.31676 12.6449 4.95113 12.7973 4.71754 12.9445C4.51949 13.0664 2.03629 14.8234 1.6859 15.0875L1.51832 15.2145L1.53355 9.25274C1.54879 2.79336 1.53355 3.15391 1.82808 2.74766C2.01597 2.48867 2.20387 2.34649 2.50855 2.23984C2.7523 2.15859 3.2398 2.15352 9.99371 2.14844H17.2199L17.2046 6.72891Z" fill="#696969"/>
<path d="M5.09825 4.83477C4.59043 5.14453 4.55489 5.825 5.03223 6.16523L5.20489 6.28711H9.88692C14.5232 6.28711 14.569 6.28711 14.7111 6.18047C14.7873 6.12461 14.9092 5.97227 14.9701 5.84023C15.1174 5.55078 15.0869 5.27148 14.894 5.03789C14.6248 4.72305 14.9143 4.73828 9.86661 4.73828C5.43848 4.73828 5.25059 4.74336 5.09825 4.83477Z" fill="#696969"/>
<path d="M5.09825 8.38945C4.59043 8.69922 4.55489 9.37969 5.03223 9.71992L5.20489 9.8418H9.88692C14.5232 9.8418 14.569 9.8418 14.7111 9.73516C14.7873 9.6793 14.9092 9.52695 14.9701 9.39492C15.1174 9.10547 15.0869 8.82617 14.894 8.59258C14.6248 8.27773 14.9143 8.29297 9.86661 8.29297C5.43848 8.29297 5.25059 8.29805 5.09825 8.38945Z" fill="#696969"/>
<path d="M20.866 6.51035C20.4699 6.5916 20.2617 6.86074 20.2617 7.29238C20.2617 7.56152 20.2769 7.60214 20.4597 7.80019L20.6628 8.01347L21.9984 8.03886C23.2425 8.06425 23.3492 8.07441 23.5929 8.18613C23.9128 8.32832 24.182 8.59238 24.3343 8.92754L24.4511 9.18144L24.4664 15.1381C24.4765 19.9623 24.4664 21.0896 24.4156 21.0592C24.38 21.0389 23.6539 20.526 22.8007 19.9166C21.1554 18.7486 21.0488 18.6826 20.4902 18.4947L20.1347 18.3728L15.0058 18.3475C9.26752 18.317 9.71948 18.3525 9.27768 17.9463C8.93237 17.6264 8.82573 17.3268 8.80033 16.6209C8.7851 16.2197 8.75463 15.9861 8.69877 15.8693C8.44487 15.3615 7.63744 15.3564 7.33783 15.8592C7.25151 16.0166 7.23627 16.1182 7.24135 16.6971C7.24643 17.4689 7.32768 17.8396 7.6019 18.3627C7.94721 19.0127 8.59721 19.5357 9.39448 19.7998C9.65346 19.8861 10.0191 19.8963 14.8027 19.9217C19.7183 19.9471 19.9417 19.9521 20.155 20.0435C20.2769 20.0994 21.389 20.8611 22.6179 21.7396C23.8519 22.6182 24.9082 23.3545 24.9742 23.3799C25.289 23.5018 25.6851 23.3646 25.8882 23.0701L26 22.9025V15.9506C26 8.27246 26.0152 8.67871 25.68 8.06933C25.3652 7.50566 24.9691 7.11465 24.4257 6.82519C23.9027 6.55097 23.6539 6.51035 22.2929 6.49003C21.6074 6.47988 20.9675 6.48496 20.866 6.51035Z" fill="#696969"/>
</svg>
