<svg width="64" height="64" viewBox="0 0 64 64" fill="none" xmlns="http://www.w3.org/2000/svg">
<g clip-path="url(#clip0_435_2541)">
<path d="M5.65001 4.0625C3.66251 4.5 1.77501 5.925 0.850012 7.7C-0.0499883 9.425 1.17187e-05 8.1625 1.17187e-05 27.1875C1.17187e-05 43.75 0.0125117 44.325 0.237512 44.675C0.625012 45.2625 1.10001 45.5 1.90001 45.5H2.60001L5.65001 43.3375C7.31251 42.15 9.83751 40.3625 11.25 39.35C12.6625 38.35 14.125 37.3875 14.5 37.225L15.1875 36.9375L27.875 36.875L40.5625 36.8125L41.4 36.4875C43.7125 35.5875 45.425 33.6375 46.0125 31.25C46.15 30.6875 46.1875 28.1625 46.1875 17.9375C46.1875 5.5375 46.1875 5.3 45.9375 4.8875C45.8 4.65 45.525 4.35 45.3375 4.2L44.9875 3.9375L25.7125 3.9125C9.73751 3.9 6.30001 3.925 5.65001 4.0625ZM42.35 19.025C42.3125 30.175 42.3125 30.325 42.05 30.875C41.6875 31.65 41.2125 32.1875 40.5125 32.6L39.9375 32.9375L27.375 33C16.2125 33.0625 14.7375 33.1 14.125 33.275C13.0875 33.5875 12.1875 33.9625 11.6125 34.325C11.125 34.625 5.01251 38.95 4.15001 39.6L3.73751 39.9125L3.77501 25.2375C3.81251 9.3375 3.77501 10.225 4.50001 9.225C4.96251 8.5875 5.42501 8.2375 6.17501 7.975C6.77501 7.775 7.97501 7.7625 24.6 7.75H42.3875L42.35 19.025Z" fill="#696969"/>
<path d="M12.5502 14.3625C11.3002 15.125 11.2127 16.8 12.3877 17.6375L12.8127 17.9375H24.3377C35.7502 17.9375 35.8627 17.9375 36.2127 17.675C36.4002 17.5375 36.7002 17.1625 36.8502 16.8375C37.2127 16.125 37.1377 15.4375 36.6627 14.8625C36.0002 14.0875 36.7127 14.125 24.2877 14.125C13.3877 14.125 12.9252 14.1375 12.5502 14.3625Z" fill="#696969"/>
<path d="M12.5502 23.1125C11.3002 23.875 11.2127 25.55 12.3877 26.3875L12.8127 26.6875H24.3377C35.7502 26.6875 35.8627 26.6875 36.2127 26.425C36.4002 26.2875 36.7002 25.9125 36.8502 25.5875C37.2127 24.875 37.1377 24.1875 36.6627 23.6125C36.0002 22.8375 36.7127 22.875 24.2877 22.875C13.3877 22.875 12.9252 22.8875 12.5502 23.1125Z" fill="#696969"/>
<path d="M51.3624 18.4877C50.3874 18.6877 49.8749 19.3502 49.8749 20.4127C49.8749 21.0752 49.9124 21.1752 50.3624 21.6627L50.8624 22.1877L54.1499 22.2502C57.2124 22.3127 57.4749 22.3377 58.0749 22.6127C58.8624 22.9627 59.5249 23.6127 59.8999 24.4377L60.1874 25.0627L60.2249 39.7252C60.2499 51.6002 60.2249 54.3752 60.0999 54.3002C60.0124 54.2502 58.2249 52.9877 56.1249 51.4877C52.0749 48.6127 51.8124 48.4502 50.4374 47.9877L49.5624 47.6877L36.9374 47.6252C22.8124 47.5502 23.9249 47.6377 22.8374 46.6377C21.9874 45.8502 21.7249 45.1127 21.6624 43.3752C21.6249 42.3877 21.5499 41.8127 21.4124 41.5252C20.7874 40.2752 18.7999 40.2627 18.0624 41.5002C17.8499 41.8877 17.8124 42.1377 17.8249 43.5627C17.8374 45.4627 18.0374 46.3752 18.7124 47.6627C19.5624 49.2627 21.1624 50.5502 23.1249 51.2002C23.7624 51.4127 24.6624 51.4377 36.4374 51.5002C48.5374 51.5627 49.0874 51.5752 49.6124 51.8002C49.9124 51.9377 52.6499 53.8127 55.6749 55.9752C58.7124 58.1377 61.3124 59.9502 61.4749 60.0127C62.2499 60.3127 63.2249 59.9752 63.7249 59.2502L63.9999 58.8377V41.7252C63.9999 22.8252 64.0374 23.8252 63.2124 22.3252C62.4374 20.9377 61.4624 19.9752 60.1249 19.2627C58.8374 18.5877 58.2249 18.4877 54.8749 18.4377C53.1874 18.4127 51.6124 18.4252 51.3624 18.4877Z" fill="#696969"/>
</g>
<defs>
<clipPath id="clip0_435_2541">
<rect width="64" height="64" fill="white"/>
</clipPath>
</defs>
</svg>
