<svg width="64" height="64" viewBox="0 0 64 64" fill="none" xmlns="http://www.w3.org/2000/svg">
<g clip-path="url(#clip0_435_2532)">
<path d="M63.0625 52.7372C62.5446 52.7372 62.125 53.157 62.125 53.6747V59.9388C62.125 60.0258 62.0543 60.0967 61.9671 60.0967H58.4049V46.3996C58.4049 45.8819 57.9853 45.4621 57.4674 45.4621C56.9495 45.4621 56.5299 45.8819 56.5299 46.3996V60.0968H49.6462L51.5093 58.0472C51.797 57.7306 51.9327 57.281 51.8723 56.8443C51.8709 56.835 51.8695 56.8257 51.8679 56.8163L49.7735 44.4419L50.1589 43.8617L50.2593 43.933C50.6029 44.1771 51.0411 44.2661 51.4651 44.1602C51.8815 44.0561 52.2304 43.776 52.4221 43.392V43.3919L54.5533 39.1205L59.4214 41.0059C59.6135 41.0894 62.1245 42.2407 62.1245 45.2365V49.2995C62.1246 49.8174 62.5443 50.2371 63.0621 50.2371C63.58 50.2371 63.9996 49.8174 63.9996 49.2996V45.2366C63.9996 40.9104 60.289 39.3353 60.1311 39.2703C60.1251 39.2678 60.1193 39.2654 60.1133 39.2631L51.8237 36.0526V34.3451C53.1176 33.3041 54.0264 31.8038 54.2993 30.0934C54.9446 30.0124 55.5434 29.754 56.0403 29.3267C56.7528 28.7139 57.1616 27.8223 57.1616 26.8807C57.1616 26.129 56.9008 25.4098 56.4336 24.8385V22.3088C56.4336 17.3581 52.4059 13.3304 47.4554 13.3304C45.2328 13.3304 43.1978 14.1439 41.6282 15.4867C41.6079 14.7683 41.3508 14.0838 40.9027 13.5358V11.0062C40.9027 6.05545 36.8749 2.02783 31.9244 2.02783C26.9737 2.02783 22.9461 6.05557 22.9461 11.0062V13.6018C22.4955 14.1403 22.2433 14.7896 22.2211 15.4787C21.2196 14.6228 20.021 13.9784 18.6851 13.6267C18.1836 13.4947 17.6715 13.7938 17.5396 14.2946C17.4077 14.7953 17.7067 15.3082 18.2075 15.4401C21.3216 16.2601 23.4966 19.0847 23.4966 22.3087V23.7108C23.4561 23.7024 23.3261 23.68 23.3211 23.6793C23.3083 23.4147 23.2413 23.253 23.0971 23.0455C22.8571 22.7007 22.4261 22.271 21.0398 20.781C20.5458 20.2504 19.7468 20.153 19.1403 20.5495C16.766 22.1005 13.8813 22.891 11.2044 22.7339C10.3324 22.6828 9.78773 23.0659 9.55561 23.6938C9.53486 23.6972 9.30298 23.7439 9.29011 23.747V22.3087C9.29011 19.2 11.3674 16.4034 14.3415 15.5076C14.8372 15.3583 15.1181 14.8353 14.9688 14.3394C14.8195 13.8436 14.2957 13.5627 13.8006 13.7122C11.9919 14.2569 10.366 15.3912 9.22286 16.9057C8.03998 18.4724 7.41486 20.3408 7.41486 22.3088V24.9045C6.94261 25.4688 6.68724 26.1545 6.68724 26.8807C6.68724 28.4857 7.86973 29.8854 9.55448 30.0941C9.83048 31.7645 10.7367 33.3664 12.167 34.4555V36.0531L3.88662 39.2634C3.88074 39.2656 3.87487 39.268 3.86899 39.2704C3.71074 39.3353 0 40.9103 0 45.2365V59.9388C0 61.06 0.911998 61.9718 2.03312 61.9718H30.9044C31.3079 61.9718 31.6833 61.8522 32.0001 61.6487C32.3166 61.8522 32.6921 61.9718 33.0957 61.9718H61.9671C63.0881 61.9718 64.0001 61.06 64.0001 59.9388V53.6747C64 53.157 63.5804 52.7372 63.0625 52.7372ZM9.46273 28.157C8.91311 27.9575 8.56198 27.4492 8.56198 26.8804C8.56198 26.3288 8.96198 25.8755 9.46273 25.6604V28.157ZM52.7973 38.4404L50.957 42.1286C50.9568 42.1284 48.9129 40.6768 48.8839 40.6561C49.7657 39.5676 49.3514 40.079 51.1849 37.816L52.7973 38.4404ZM47.5287 39.3501L45.104 36.3573V35.4579C45.8922 35.7304 46.7412 35.8561 47.5403 35.8564C47.5404 35.8564 47.5407 35.8564 47.5408 35.8564H47.5409C48.3672 35.8563 49.2037 35.6994 49.9487 35.419V36.363L47.5287 39.3501ZM48.6294 42.7755L48.2845 43.2946H46.7732L46.4283 42.7755L47.5289 41.9939L48.6294 42.7755ZM31.9976 28.0474L29.5729 25.0545V24.1552C30.3579 24.4265 31.2061 24.5534 32.0092 24.5537C32.0093 24.5537 32.0096 24.5537 32.0097 24.5537H32.0098C32.8346 24.5537 33.6709 24.3973 34.4176 24.1164V25.0603L31.9976 28.0474ZM33.0982 31.473L32.7533 31.9921H31.2419L30.8971 31.473L31.9977 30.6914L33.0982 31.473ZM24.6147 18.7015C24.768 18.7433 24.9255 18.7717 25.0853 18.7914C25.3613 20.4618 26.2676 22.0637 27.6978 23.1528V24.7504L25.7852 25.4918C25.6743 25.2589 25.5357 25.0395 25.3712 24.8384V22.3088C25.3712 21.0365 25.1032 19.8135 24.6147 18.7015ZM36.9794 17.7088C36.9794 20.4529 34.7409 22.6783 32.0098 22.6783C28.9284 22.6783 26.8692 20.2902 26.8692 17.7088V13.3173C29.8296 13.4358 32.9049 12.5584 35.4193 10.9934C36.2647 11.8999 36.7677 12.4266 36.9796 12.6711C36.9794 15.0052 36.9794 15.9064 36.9794 17.7088ZM38.7683 18.7908C38.9273 18.7708 39.084 18.7423 39.2364 18.7007C38.7494 19.8057 38.4769 21.0257 38.4769 22.3088V24.9044C38.3328 25.0765 38.2088 25.2599 38.1062 25.4523L36.2927 24.75V23.0425C37.5866 22.0014 38.4954 20.501 38.7683 18.7908ZM28.3381 26.5148L30.6396 29.3555L29.0701 30.4703C29.0692 30.4709 29.0686 30.4715 29.0677 30.4721L28.5696 30.826L26.7292 27.1379L28.3381 26.5148ZM34.1553 28.3628L35.6537 26.5133L37.2661 27.1377L35.4259 30.826L34.9267 30.4715C34.9262 30.4711 34.9257 30.4706 34.9252 30.4703L33.3528 29.3534L34.1553 28.3628ZM34.6278 32.5591L34.7282 32.6304C35.0787 32.8794 35.5186 32.9616 35.9341 32.8576C36.3504 32.7535 36.6993 32.4734 36.8911 32.0894V32.0893L38.4733 28.9182C39.0169 29.5882 39.8032 29.9956 40.6129 30.0968C40.8989 31.8893 41.8678 33.419 43.229 34.4555V36.053L35.2586 39.1431L34.2423 33.1394L34.6278 32.5591ZM43.8692 37.8174L46.1707 40.6581C45.1644 41.373 44.1528 42.0916 44.1007 42.1286L42.2603 38.4405L43.8692 37.8174ZM52.5104 29.0115C52.5107 31.6886 50.3365 33.981 47.5409 33.981C44.3544 33.981 42.4003 31.4853 42.4003 29.0115V24.62C45.3395 24.7374 48.4189 23.8717 50.9503 22.2962C51.7957 23.2027 52.2986 23.7293 52.5105 23.9738C52.5104 26.3078 52.5104 27.2092 52.5104 29.0115ZM55.2866 26.8805C55.2866 27.4503 54.9344 27.9577 54.3859 28.157V25.6067C54.9529 25.8132 55.2866 26.3313 55.2866 26.8805ZM40.352 22.3087C40.352 18.3919 43.5387 15.2054 47.4553 15.2054C51.372 15.2054 54.5584 18.392 54.5584 22.3087V23.7108C54.5158 23.7019 54.3985 23.6817 54.3829 23.6793C54.3701 23.4144 54.3028 23.2524 54.1589 23.0455C53.9125 22.6917 53.4863 22.2694 52.1017 20.781C51.6182 20.262 50.8209 20.1452 50.2022 20.5495C47.8922 22.0585 44.9737 22.9109 42.1965 22.7305C41.4164 22.6794 40.8513 23.0614 40.6174 23.6939C40.5965 23.6973 40.365 23.744 40.3519 23.7472V22.3087H40.352ZM40.5252 25.6605V28.1558C39.9739 27.957 39.6244 27.4473 39.6244 26.8804C39.6243 26.3288 40.024 25.8758 40.5252 25.6605ZM39.7553 15.5779C39.7553 15.9727 39.5844 16.3461 39.2865 16.6022C39.1587 16.7122 39.0129 16.7967 38.8546 16.8543V14.3039C39.4152 14.5074 39.7553 15.0228 39.7553 15.5779ZM31.9241 3.90283C35.8408 3.90283 39.0273 7.08932 39.0273 11.0061V12.4082C38.9849 12.3994 38.8674 12.3791 38.8518 12.3767C38.8379 12.0896 38.7552 11.9131 38.5863 11.6847C38.3353 11.3449 37.8726 10.8778 36.5706 9.47832C36.0789 8.95044 35.2804 8.84857 34.6711 9.24682C32.2316 10.8406 29.2722 11.6162 26.5898 11.4241C25.9336 11.3744 25.3157 11.7709 25.0865 12.3911C25.0656 12.3944 24.834 12.4412 24.821 12.4443V11.0062H24.8208C24.8208 7.08932 28.0074 3.90283 31.9241 3.90283ZM24.9938 14.3578V16.8544C24.4442 16.6549 24.0931 16.1466 24.0931 15.5778C24.0931 15.0293 24.49 14.5744 24.9938 14.3578ZM23.3233 25.6067C23.8478 25.7975 24.1847 26.2552 24.2181 26.799C24.2601 27.4038 23.8885 27.9507 23.3233 28.1559V25.6067ZM23.2365 30.0965C24.1207 29.9859 24.9323 29.5199 25.4646 28.803L27.1043 32.0893C27.1043 32.0893 27.1043 32.0893 27.1044 32.0894C27.2961 32.4735 27.6449 32.7535 28.0613 32.8576C28.4729 32.9605 28.9133 32.8818 29.2672 32.6304L29.3676 32.5591L29.7529 33.1393L28.7371 39.1414L20.7616 36.0525V34.3458H20.7615C22.0893 33.2751 22.97 31.7624 23.2365 30.0965ZM16.4662 39.3501L14.0416 36.3573V35.4579C14.8266 35.7293 15.6748 35.8561 16.478 35.8563C16.4781 35.8563 16.4783 35.8563 16.4785 35.8563C17.3167 35.8563 18.1517 35.6953 18.8862 35.419V36.363L16.4662 39.3501ZM17.567 42.7755L17.2221 43.2946H15.7107L15.3658 42.7755L16.4665 41.9939L17.567 42.7755ZM20.1223 37.816L21.7348 38.4405L19.8946 42.1286L19.3953 41.7741C19.3948 41.7738 19.3943 41.7733 19.3938 41.7729L17.8215 40.6561L20.1223 37.816ZM11.3379 29.0115V24.62C14.314 24.7389 17.3913 23.8499 19.8878 22.2962C20.7252 23.1942 21.236 23.729 21.4481 23.9738C21.4481 26.3079 21.4481 27.2093 21.4481 29.0115C21.4481 31.7381 19.225 33.981 16.4785 33.981C13.4206 33.981 11.3379 31.6201 11.3379 29.0115ZM12.8069 37.8174L15.1083 40.6581L13.5388 41.7729C13.538 41.7735 13.5373 41.7741 13.5365 41.7747L13.0384 42.1286L11.198 38.4405L12.8069 37.8174ZM7.47036 60.097V46.3996C7.47036 45.8819 7.05074 45.4621 6.53286 45.4621C6.01499 45.4621 5.59536 45.8819 5.59536 46.3996V60.0968H2.03312C1.94587 60.0968 1.87512 60.026 1.87512 59.939V45.2365C1.87512 42.2254 4.41224 41.0776 4.57649 41.0066L9.44161 39.1205L11.573 43.3919C11.573 43.3919 11.573 43.3919 11.5731 43.392C11.7647 43.7761 12.1136 44.0561 12.5301 44.1602C12.9417 44.2631 13.3821 44.1844 13.736 43.933L13.8363 43.8617L14.2217 44.4419L12.1274 56.8163C12.1257 56.8256 12.1244 56.835 12.123 56.8443C12.0627 57.2807 12.1984 57.7303 12.4862 58.0475L14.3491 60.0968H7.47036V60.097ZM14.0091 56.9348L16.0002 45.1697H16.9326L18.9238 56.9348L16.4665 59.6382L14.0091 56.9348ZM31.0623 59.9388C31.0623 60.026 30.9916 60.0968 30.9044 60.0968H27.3424V46.3996C27.3424 45.8819 26.9228 45.4621 26.405 45.4621C25.8871 45.4621 25.4675 45.8819 25.4675 46.3996V60.0968H18.5837L20.4468 58.0472C20.7346 57.7306 20.8702 57.281 20.8098 56.8443C20.8085 56.835 20.8071 56.8257 20.8055 56.8163L18.7111 44.4419L19.0965 43.8617L19.1968 43.933C19.4477 44.1112 19.7447 44.2042 20.0461 44.2042C20.596 44.2042 21.1081 43.8961 21.3598 43.392V43.3919L23.491 39.1206L28.3591 41.006C29.7781 41.6232 31.0622 43.2151 31.0622 45.2365V59.9388H31.0623ZM31.9999 41.8298C31.6116 41.204 31.0946 40.625 30.4713 40.1309L31.5314 33.8673H32.4638L33.5244 40.1341C32.8846 40.6423 32.3743 41.2265 31.9999 41.8298ZM38.5327 60.097V46.3996C38.5327 45.8819 38.1131 45.4621 37.5952 45.4621C37.0773 45.4621 36.6577 45.8819 36.6577 46.3996V60.0968H33.0956C33.0084 60.0968 32.9376 60.026 32.9376 59.939V45.2365C32.9376 44.122 33.2871 43.0955 34.0316 42.2331C34.5279 41.6637 35.1863 41.2028 35.6391 41.0066L40.5042 39.1204L42.6355 43.3919C42.6355 43.3919 42.6355 43.3919 42.6357 43.392C42.8273 43.7761 43.1762 44.0561 43.5925 44.1602C44.0042 44.2631 44.4445 44.1844 44.7984 43.933L44.8988 43.8617L45.2842 44.4419L43.1898 56.8163C43.1882 56.8256 43.1868 56.835 43.1854 56.8443C43.1252 57.2807 43.2608 57.7303 43.5487 58.0475L45.4115 60.0968H38.5327V60.097ZM45.0714 56.935L47.0627 45.1699H47.995L49.9863 56.935L47.5288 59.6383L45.0714 56.935Z" fill="#696969"/>
</g>
<defs>
<clipPath id="clip0_435_2532">
<rect width="64" height="64" fill="white"/>
</clipPath>
</defs>
</svg>
