<svg width="20" height="20" viewBox="0 0 20 20" fill="none" xmlns="http://www.w3.org/2000/svg">
<path d="M0.62207 13.4783C2.035 17.2863 5.70043 20.0001 10.0001 20.0001C14.2997 20.0001 17.9652 17.2863 19.3781 13.4783L10.0001 12.6088L0.62207 13.4783Z" fill="#FFDA44"/>
<path d="M10.0001 0C5.70043 0 2.035 2.71375 0.62207 6.52176L10.0001 7.39129L19.3781 6.52172C17.9652 2.71375 14.2997 0 10.0001 0Z" fill="black"/>
<path d="M0.621992 6.52173C0.220039 7.60505 0 8.77677 0 9.99997C0 11.2232 0.220039 12.3949 0.621992 13.4782H19.378C19.78 12.3949 20 11.2232 20 9.99997C20 8.77677 19.78 7.60505 19.378 6.52173H0.621992Z" fill="#D80027"/>
</svg>
