<svg width="20" height="20" viewBox="0 0 20 20" fill="none" xmlns="http://www.w3.org/2000/svg">
<path d="M10.0006 20C15.5232 20 20.0001 15.523 20.0001 10.0004C20.0001 4.47782 15.5232 0.000854492 10.0006 0.000854492C4.47794 0.000854492 0.000976562 4.47782 0.000976562 10.0004C0.000976562 15.523 4.47794 20 10.0006 20Z" fill="white"/>
<path d="M10.0006 20C15.5232 20 20.0001 15.523 20.0001 10.0004C20.0001 4.47782 15.5232 0.000854492 10.0006 0.000854492C4.47794 0.000854492 0.000976562 4.47782 0.000976562 10.0004C0.000976562 15.523 4.47794 20 10.0006 20Z" fill="white"/>
<path d="M19.4284 6.66583C19.4273 6.66266 19.4263 6.66 19.4252 6.65713C18.1453 3.04845 14.8534 0.393448 10.8979 0.0410156C12.4284 0.880063 12.8754 3.5384 13.267 6.66578C13.5345 8.80195 13.5362 11.1557 13.2721 13.2947C12.8838 16.439 12.4349 19.1161 10.898 19.9586C14.8605 19.6056 18.1572 16.9414 19.432 13.3231C19.4354 13.3135 19.4382 13.304 19.4417 13.2947C19.8016 12.2629 19.9998 11.1548 19.9998 10.0001C19.9998 8.83037 19.7972 7.70885 19.4284 6.66583Z" fill="#258F44"/>
<path d="M13.782 6.66585C13.3906 3.53842 12.4287 0.88013 10.8981 0.0410826C10.602 0.0148624 10.3026 0 9.99979 0C5.64968 0 1.95018 2.77833 0.574565 6.65715C0.573467 6.65998 0.572496 6.66268 0.571398 6.66585C0.202584 7.70887 0 8.83039 0 10.0001C0 11.1548 0.198151 12.2629 0.558141 13.2947C0.561476 13.304 0.564474 13.3135 0.567767 13.3231C1.93802 17.2119 5.6425 20 9.99979 20C10.3027 20 10.602 19.9851 10.898 19.9586C12.435 19.1161 13.3988 16.439 13.787 13.2947C14.0512 11.1557 14.0494 8.80214 13.782 6.66585Z" fill="#359846"/>
<path d="M10.0003 13.6844C12.0349 13.6844 13.6842 12.035 13.6842 10.0005C13.6842 7.96588 12.0349 6.31653 10.0003 6.31653C7.96575 6.31653 6.31641 7.96588 6.31641 10.0005C6.31641 12.035 7.96575 13.6844 10.0003 13.6844Z" fill="#EC1C24"/>
</svg>
