<svg width="28" height="28" viewBox="0 0 28 28" fill="none" xmlns="http://www.w3.org/2000/svg">
<path d="M22.129 17.3449C21.5557 16.7481 20.8643 16.4289 20.1315 16.4289C19.4046 16.4289 18.7073 16.7422 18.1104 17.339L16.243 19.2005C16.0894 19.1178 15.9357 19.041 15.788 18.9642C15.5752 18.8578 15.3743 18.7573 15.2029 18.651C13.4537 17.5399 11.864 16.0921 10.3393 14.2188C9.60063 13.285 9.10423 12.4991 8.74374 11.7013C9.22833 11.2581 9.67746 10.7971 10.1148 10.3539C10.2802 10.1884 10.4457 10.017 10.6112 9.85157C11.8522 8.61055 11.8522 7.00315 10.6112 5.76213L8.99785 4.14881C8.81466 3.96562 8.62555 3.77651 8.44826 3.5874C8.09369 3.22101 7.72138 2.84279 7.33726 2.48822C6.76403 1.9209 6.07852 1.61951 5.35755 1.61951C4.63658 1.61951 3.93924 1.9209 3.34829 2.48822C3.34238 2.49413 3.34238 2.49413 3.33647 2.50004L1.32721 4.52703C0.570778 5.28345 0.139378 6.20535 0.0448249 7.27499C-0.0970053 9.00059 0.41122 10.608 0.801252 11.6599C1.75861 14.2424 3.18873 16.6358 5.32209 19.2005C7.91049 22.2913 11.0248 24.7319 14.5824 26.4516C15.9416 27.0958 17.7559 27.8581 19.7829 27.9881C19.907 27.994 20.037 27.9999 20.1552 27.9999C21.5203 27.9999 22.6667 27.5094 23.565 26.5343C23.5709 26.5225 23.5827 26.5166 23.5886 26.5048C23.8959 26.1325 24.2505 25.7956 24.6228 25.4352C24.8769 25.1929 25.1369 24.9388 25.3911 24.6728C25.9761 24.0641 26.2834 23.355 26.2834 22.6281C26.2834 21.8953 25.9702 21.1921 25.3733 20.6011L22.129 17.3449ZM24.2446 23.5677C24.2387 23.5677 24.2387 23.5736 24.2446 23.5677C24.0141 23.8159 23.7777 24.0405 23.5236 24.2887C23.1395 24.6551 22.7495 25.0392 22.3831 25.4706C21.7862 26.1089 21.083 26.4102 20.1611 26.4102C20.0724 26.4102 19.9779 26.4102 19.8892 26.4043C18.1341 26.2921 16.503 25.6065 15.2797 25.0215C11.9349 23.4023 8.99785 21.1034 6.55719 18.19C4.54202 15.7612 3.19464 13.5155 2.30229 11.1044C1.7527 9.63291 1.55177 8.48645 1.64041 7.405C1.69951 6.71358 1.96544 6.14035 2.45594 5.64985L4.47111 3.63468C4.76068 3.36284 5.06798 3.2151 5.36937 3.2151C5.74167 3.2151 6.04306 3.43966 6.23217 3.62877C6.23808 3.63468 6.24399 3.64059 6.24989 3.6465C6.61038 3.98334 6.95314 4.33201 7.31362 4.70431C7.49682 4.89342 7.68593 5.08253 7.87503 5.27754L9.48835 6.89086C10.1148 7.51728 10.1148 8.09642 9.48835 8.72284C9.31697 8.89422 9.1515 9.06559 8.98013 9.23106C8.48372 9.73929 8.01095 10.2121 7.49682 10.673C7.485 10.6848 7.47318 10.6907 7.46727 10.7025C6.95905 11.2108 7.0536 11.7072 7.15997 12.044C7.16588 12.0618 7.17179 12.0795 7.1777 12.0972C7.59728 13.1137 8.18824 14.071 9.0865 15.2116L9.09241 15.2175C10.7235 17.2267 12.4431 18.7928 14.3401 19.9924C14.5824 20.1461 14.8306 20.2702 15.067 20.3884C15.2797 20.4947 15.4807 20.5952 15.6521 20.7016C15.6757 20.7134 15.6993 20.7311 15.723 20.7429C15.9239 20.8434 16.113 20.8907 16.308 20.8907C16.7985 20.8907 17.1058 20.5834 17.2063 20.4829L19.2274 18.4618C19.4283 18.2609 19.7474 18.0186 20.1197 18.0186C20.4861 18.0186 20.7875 18.2491 20.9707 18.45C20.9766 18.4559 20.9766 18.4559 20.9825 18.4618L24.2387 21.718C24.8474 22.3208 24.8474 22.9413 24.2446 23.5677Z" fill="#1F2230"/>
<path d="M15.1318 6.66071C16.6801 6.92073 18.0866 7.65352 19.2094 8.77635C20.3322 9.89917 21.0591 11.3057 21.325 12.854C21.39 13.244 21.7269 13.5158 22.111 13.5158C22.1583 13.5158 22.1997 13.5099 22.2469 13.504C22.6842 13.4331 22.9738 13.0194 22.9029 12.5821C22.5838 10.7088 21.6973 9.00091 20.344 7.64761C18.9907 6.29432 17.2829 5.40788 15.4095 5.08876C14.9722 5.01784 14.5645 5.30741 14.4876 5.73882C14.4108 6.17022 14.6945 6.5898 15.1318 6.66071Z" fill="#1F2230"/>
<path d="M27.9675 12.3514C27.4416 9.26658 25.9878 6.45953 23.754 4.2257C21.5202 1.99188 18.7131 0.538116 15.6283 0.0121628C15.1969 -0.0646619 14.7892 0.230818 14.7123 0.662218C14.6414 1.09953 14.931 1.50729 15.3683 1.58411C18.1222 2.05097 20.6337 3.35699 22.6312 5.34852C24.6286 7.34596 25.9287 9.85754 26.3956 12.6114C26.4606 13.0014 26.7974 13.2733 27.1816 13.2733C27.2288 13.2733 27.2702 13.2674 27.3175 13.2615C27.7489 13.1965 28.0444 12.7828 27.9675 12.3514Z" fill="#1F2230"/>
</svg>
