<svg id="Layer_1" height="512" viewBox="0 0 396.2476 416.5303" width="512" xmlns="http://www.w3.org/2000/svg"><g><circle cx="165" cy="219.138" fill="#afb0cc" r="165"/><g fill="#fff"><path d="m176.7421 360.6743c-1.3232 1.3108-2.7343 2.692-4.2045 4.1287-5.668 5.54-12.7217 12.4336-14.1631 15.1016l-3.5195-1.9004c1.73-3.2041 8.4189-9.7402 14.8872-16.0615 2.5439-2.4863 4.9468-4.835 6.9092-6.8447 6.3872-6.54 24.7432-10.7373 29.5039-11.7363.938-2.5908 3.7583-10.7529 9.644-30.4561 6.2407-20.8936.5513-33.7988-1.1294-36.9473-13.1396-1.4922-21.7363 1.0186-30.0581 3.4521-5.0386 1.4736-9.7979 2.8652-15.3511 3.3623-.3672.0312-.7329-.0361-1.0625-.1982-10.8975-5.3701-48.7954-7.4561-49.1768-7.4766l.2139-3.9941c1.0043.0537 16.3178.8997 30.4023 2.9556-1.56-3.0425-2.6124-7.2944-.0986-11.6938 3.8564-6.749 2.9644-17.0205 1.9575-24.1592-.9039-6.4111-7.2303-10.2163-8.9272-11.1287-.442.3181-.8559.6194-1.2065.8845-3.4146 2.583-5.1353 8.0908-4.3374 11.1045.8213 3.1045.0269 8.2197-.7827 12.7705-.1138.6406-.2427 1.3672-.2588 1.5586-.3871 4.6523.14 10.7972 1.3951 11.8653 1.2556-.1539 2.4392-.4147 3.5224-.8097l1.3711 3.7578c-10.2173 3.7266-26.4751-2.084-36.1885-5.5557-2.5137-.8984-4.6846-1.6738-5.9238-1.9756-3.813-.9316-19.8984 2.7705-30.5303 5.6631.9888 2.7451 2.0869 6.9326.6812 9.2754-1.061 2.0576-2.7686 20.4258 1.2514 45.8887 2.2603 14.3145 2.3926 27.8018 2.5606 44.877.1267 12.9106.2725 27.52 1.3568 45.9744 10.1898 1.7336 56.2759 8.5493 106.675-.1655-.1179-5.9226-.5351-22.5684-1.5836-28.5999-.946-5.4381-2.8406-16.9085-3.8292-22.9168z"/><path d="m381.5424 108.8679-33.3606 19.2902c.4076 1.4213.7569 2.8234 1.0179 4.1283.8294 4.1479-.9174 8.1396-2.7917 11.0312z"/><path d="m341.4355 114.5986c.2795.2771.5489.5439.7955.7786 1.5692 1.4901 3.2919 5.0005 4.6929 8.8877l44.2041-25.5605-78.9517-89.1798-44.6312 21.5609 75.306 78.9664c.6904.7236.7397 1.8457.1162 2.627z"/><path d="m78.346 259.988c.4569-.7249 1.9513-3.3447 2.6103-7.3918-1.8256 2.9695-4.4479 5.9751-6.8431 8.4353 1.3214-.3352 2.7445-.6879 4.2328-1.0435z"/><path d="m308.2711 128.4704-39.0927-47.4031-10.8557 17.7122 39.834 48.5076c3.486-3.7151 7.0162-8.1228 7.249-9.4441.2513-1.7576 1.0091-5.8621 2.8654-9.3726z"/><path d="m216.8121 323.3847c7.8688-4.0325 25.679-13.3254 30.8715-17.446 4.4185-3.5078 7.5776-3.791 10.3652-4.041 1.8989-.1709 3.5391-.3184 5.6216-1.5195 1.812-1.0449 6.1016-5.7891 14.4741-25.8154l.3149-.752c.3784-.8984 1.2402-2.6963 2.4326-5.1855 4.4297-9.2441 13.646-28.4785 15.6128-38.5674 2.3276-11.9424 8.5669-34.4805 11.5684-38.6553.9248-1.2871 1.2603-3.1084 1.6162-5.0371.458-2.4844.9775-5.3008 2.9976-7.3203.4805-.4805 1.208-1.2256 2.1084-2.1484 4.9238-5.042 14.0889-14.4268 18.0811-16.8613 2.4194-1.4746 4.2661-7.2764 5.3696-10.7432.874-2.7471 1.2573-3.8896 1.9639-4.5957.2515-.252 6.1479-6.2227 5.0679-11.625-1.2705-6.3496-4.2129-13.2852-5.8022-14.7949-.17-.1616-.3627-.3535-.5475-.5354l-2.6306 3.2968c1.0281 1.7269 3.962 7.3743 2.7221 13.8344l-2.908-.5581c.0527.6794.0667 1.3853.0228 2.1177-.355 5.9082-4.4932 13.127-4.6689 13.4316l-3.4634-2.001c.0386-.0664 3.8413-6.7109 4.1392-11.6709.2071-3.4485-1.2337-6.2432-1.9886-7.4526l-9.0863 11.3875 3.4352 1.5984c-1.0781 2.3184-5.436 6.2178-8.3691 6.292-1.2446.0029-2.2632-.5439-2.8091-1.5781-1.0811-2.0479.5542-5.0596 3.5376-10.207.8911-1.5371 2.1035-3.6299 2.2886-4.3027.0098-1.3232-.5562-4.0147-1.7812-4.9707-.3398-.2646-.8691-.5293-1.9551-.2256-3.6021 1.0137-5.4966 7.8184-6.0479 11.6797-.5747 4.0225-10.1235 13.5801-11.8569 15.1719-3.2212 2.9561-3.002 9.1641-2.8418 13.6963.0542 1.5312.1011 2.8545.0151 3.9248-.3608 4.5166-16.2285 47.1797-26.1973 59.5547-9.4297 11.7051-18.1509 28.8721-19.502 32.4746-1.6396 4.374-6.4463 8.6992-6.6504 8.8818-.2783.248-.6206.4141-.9878.4775-5.2923.9243-16.879 3.0277-21.9564 3.9515 2.4599 5.8192 5.8907 18.6005.2445 37.5045-1.0339 3.4602-1.9695 6.5527-2.8204 9.3344z"/><path d="m156.0043 254.9266c9.7311-6.5145 22.4998-15.8601 24.2433-19.444 2.7793-5.7119 8.3638-39.3867 9.6299-55.5928 1.2139-15.5342 3.2627-29.2607 4.415-32.335.1025-.2744.2432-.6289.4106-1.0527 1.2383-3.124 4.4136-11.1387 3.5269-16.6123l-20.1171-8.2798c-.0881 1.3374.005 3.1528.1406 4.3481l-3.9746.4521c-.0552-.4863-.5215-4.8223.1802-7.1816.4922-1.6553.3643-8.2441-1.356-10.8906-1.1143-1.7139-3.9409-2.2305-5.4146-2.3223-.1733.123-.2822.2441-.311.3486-.2046.7451 1.0166 2.624 1.7461 3.7461.7363 1.1328 1.4316 2.2021 1.7017 3.2383.5273 2.0215-.3008 4.5908-1.2598 7.5654-.5732 1.7793-1.1665 3.6191-1.3311 5.0566-.1982 1.7344 4.2129 8.5586 6.333 11.8379 2.189 3.3857 3.4463 5.3633 3.8306 6.6123 1.2183 3.9609-7.833 38.374-9.543 42.3359-1.927 4.4614-9.4787 22.1559-10.6544 24.9111.0246.9143-.0654 1.7427-.3212 2.417-1.0043 2.6481-5.4655 6.0333-11.7338 10.4619 3.1125 2.0031 8.3544 6.3118 9.3119 13.1006.7472 5.2989 1.3329 11.4888.5468 17.2792z"/><path d="m154.1392 212.6672c.5493-1.4473-1.1274-6.9824-3.0376-11.2432-.1377-.3086-.1958-.6465-.168-.9824.186-2.3193-.106-6.3027-1.3237-7.4805-.3691-.3564-.5869-.8418-.6079-1.3545-.0024-.04-.2646-4.7197-3.2524-6.0078-.8071-.3486-1.292-1.1826-1.1958-2.0557.3701-3.3662.7046-7.3779.6958-8.9033-1.5049-1.001-6.9282-3.0498-11.5269-4.4932-.4355-.1367-.8125-.4199-1.0659-.7988-.063-.0957-6.4629-9.5752-17.5239-16.8086-14.627-9.5645-30.127-10.8877-46.0669-3.9355-36.4131 15.8838-30.0684 45.6699-27.3589 58.3887.1655.7773.3179 1.4922.4468 2.1387 2.0986 10.4941 15.3472 20.501 20.3784 21.917 4.6514 1.3076 23.4624 12.2969 22.585 20.6289-.3099 2.9438-1.0283 5.3611-1.7487 7.1633 7.2234-1.5703 14.6547-2.798 17.737-2.0491 1.4429.3506 3.5972 1.1211 6.3247 2.0957 6.839 2.4443 17.0974 6.105 25.5545 6.5037-1.5298-4.2623-1.1182-10.748-.9871-12.3269.0303-.3613.1211-.8799.3071-1.9268.4541-2.5547 1.5181-8.5361.8535-11.0469-1.1406-4.3096.957-11.6602 5.7905-15.3174.9819-.7432 2.2798-1.6553 3.7827-2.7119 3.4721-2.4413 10.6977-7.5214 11.4077-9.3935z"/><path d="m270.0293 201.6882 12.208-7.4155.0637.1047c2.1137-5.2229 3.9941-10.1692 5.4374-14.1802z"/><path d="m202.1744 129.2422 53.8146-31.2473 11.5748-18.8853-26.7619-32.4509-38.7432 82.0293c.0378.1852.0854.3659.1157.5542z"/><path d="m198.9666 125.8674 38.5999-81.7256-118.9157-39.4266-5.3638 85.9252 52.4086 21.5354c-1.2917-1.9882-2.8432-4.4375-2.1757-6.8689.3633-1.3262 1.2983-2.3691 2.7778-3.0996.2695-.1328.5654-.2041.8657-.207.2598-.0049 6.5786-.0176 9.293 4.1582 1.9071 2.9333 2.3836 7.9586 2.2197 11.3577z"/><path d="m247.522 15.885-5.0425 26.5205 68.2064 82.7061c1.021-1.0226 2.2172-1.8274 3.6442-2.2285 2.6235-.7383 4.438.0947 5.4985.9219 2.3878 1.8625 3.1315 5.3413 3.285 7.3428l15.6384-19.5986z"/><path d="m296.4776 149.024-39.9042-48.5927-53.5446 31.0907 58.0001 74.7994 29.6925-36.0333c.0195-.7809-.0132-1.7604-.0524-2.8661-.1768-5.0107-.4443-12.582 4.1343-16.7852.5293-.4858 1.0934-1.0307 1.6743-1.6128z"/><path d="m194.0818 177.5599 37.4119 53.5956 26.7154-21.9434-56.2867-72.5891c-.8187 4.5676-2.5446 8.9404-3.5004 11.3528-.1567.3965-.2881.7275-.3843.9834-.7437 1.9839-2.6354 13.0626-3.9559 28.6007z"/><path d="m109.27 90.7883 5.18-82.9801-6.6819 7.7506-4.1651 78.7315z"/><path d="m332.3695 125.9607.4635-.3716c.0918.1138 1.4379 1.8223 2.39 4.5426-.2552-2.329-1.0148-4.3441-1.648-5.6819z"/></g><path d="m314.1675 5.7385c-.5942-.6699-1.561-.8643-2.3677-.4746l-47.1549 22.7805-16.9135-17.7356c-.5171-.5439-1.2959-.7529-2.0132-.5381-.7188.2119-1.2588.8076-1.3989 1.5439l-5.5183 29.0225-121.3552-40.2353c-.7686-.2549-1.6152-.0215-2.144.5928l-11.0093 12.7705c-.2896.335-.459.7578-.4824 1.2002l-4.4033 83.2295c-.0396.7432.3369 1.4463.9771 1.8262.6406.3789 1.438.3711 2.0713-.0195l8.9302-5.5186 55.2252 22.6929c-.2477.9299-.5722 1.9432-.8521 2.811-.6333 1.9648-1.2886 3.9971-1.498 5.8291-.3354 2.9385 2.5332 7.6348 6.9478 14.4649 1.4238 2.2021 3.0317 4.6895 3.3428 5.5449.3428 3.5898-7.2705 34.7852-9.3682 39.6455-1.3878 3.2133-5.6912 13.2861-8.4344 19.7111-.6315-1.885-1.3301-3.576-1.7927-4.6349.1016-1.8584.1382-6.7676-2.0249-9.5566-.2085-1.6963-1.0381-5.8154-4.2607-8.0283.2817-2.7334.7319-7.625.5098-9.1055-.1597-1.0625-.4258-2.832-13.6152-7.0234-3.5889-4.9424-29.7075-38.3447-68.0981-21.5957-39.4058 17.1895-32.5845 49.2139-29.6714 62.8887.1616.7588.3105 1.458.4365 2.0898 2.54 12.7002 17.6143 23.4062 23.2178 24.9824 4.1104 1.1558 13.5682 7.4131 17.7024 12.3047l-.0422-.0117c-1.4868 5.3691-10.2114 13.5752-13.4478 16.2832l.0009.001c-.22.1842-.4011.4149-.5262.6807-.2471.5234-.2549 1.1299-.021 1.6602 1.3896 3.1543 2.248 6.917 1.7661 7.7412-1.8643 3.1074-3.2964 23.0684.73 48.5703 2.2144 14.0244 2.3457 27.3818 2.5117 44.293.1299 13.2295.2773 28.2236 1.4307 47.332l3.9932-.2402c-.0236-.3906-.0443-.7693-.067-1.1565-1.0844-18.4543-1.2301-33.0637-1.3568-45.9744-.168-17.0752-.3003-30.5625-2.5606-44.877-4.02-25.4629-2.3125-43.8311-1.2514-45.8887 1.4058-2.3428.3076-6.5303-.6812-9.2754 10.6318-2.8926 26.7173-6.5947 30.5303-5.6631 1.2393.3018 3.4102 1.0771 5.9238 1.9756 9.7134 3.4717 25.9712 9.2822 36.1885 5.5557l-1.3711-3.7578c-1.0832.395-2.2668.6558-3.5224.8097-1.2551-1.0681-1.7822-7.213-1.3951-11.8653.0161-.1914.145-.918.2588-1.5586.8096-4.5508 1.604-9.666.7827-12.7705-.7979-3.0137.9229-8.5215 4.3374-11.1045.3506-.2651.7646-.5664 1.2065-.8845 1.697.9124 8.0234 4.7175 8.9272 11.1287 1.0068 7.1387 1.8989 17.4102-1.9575 24.1592-2.5138 4.3994-1.4614 8.6514.0986 11.6938-14.0845-2.0559-29.398-2.9019-30.4023-2.9556l-.2139 3.9941c.3813.0205 38.2793 2.1064 49.1768 7.4766.3296.1621.6953.2295 1.0625.1982 5.5532-.4971 10.3125-1.8887 15.3511-3.3623 8.3218-2.4336 16.9185-4.9443 30.0581-3.4521 1.6807 3.1484 7.3701 16.0537 1.1294 36.9473-5.8857 19.7031-8.7061 27.8652-9.644 30.4561-4.7607.999-23.1167 5.1963-29.5039 11.7363-1.9624 2.0098-4.3652 4.3584-6.9092 6.8447-6.4683 6.3213-13.1572 12.8574-14.8872 16.0615l3.5195 1.9004c1.4414-2.668 8.4951-9.5615 14.1631-15.1016 1.4703-1.4366 2.8813-2.8179 4.2045-4.1287.9886 6.0083 2.8832 17.4788 3.8292 22.9167 1.0485 6.0315 1.4657 22.6772 1.5836 28.5999.0258 1.2982.0375 2.0896.038 2.1316l4-.0566c-.0137-.9639-.3481-23.6963-1.6812-31.3604-1.1265-6.4783-3.6064-21.5585-4.2816-25.6729 5.9413-5.0701 21.8981-9.0304 27.7909-10.168.668-.1289 1.2251-.5889 1.478-1.2207.0787-.1973 1.5711-3.9746 5.6702-17.1343 3.3597-1.6929 28.3177-14.335 35.0007-19.6382 3.4819-2.7637 5.6851-2.9609 8.2363-3.1904 2.0703-.1855 4.417-.3965 7.2632-2.0381 4.1084-2.3701 9.2451-11.1836 16.1655-27.7373l.311-.7422c.3408-.8096 1.229-2.6631 2.3535-5.0098 4.501-9.3936 13.8672-28.9404 15.9312-39.5303 2.5771-13.2207 8.6841-34.0166 10.8906-37.0869 1.4478-2.0137 1.9014-4.4746 2.3018-6.6455.3867-2.0967.752-4.0771 1.8926-5.2178.4883-.4883 1.2271-1.2451 2.1416-2.1816 4.459-4.5664 13.7378-14.0684 17.3013-16.2402 2.6786-1.6331 4.4468-5.3296 5.7654-8.9589l54.924-53.8536-.0038-.0039c.3012-.2954.5085-.6783.5775-1.1035.0962-.5918-.0786-1.1963-.4766-1.6465zm18.6655 119.8506-.4635.3716 1.2055-1.5109c.6332 1.3378 1.3928 3.3529 1.648 5.6819-.9521-2.7203-2.2982-4.4288-2.39-4.5426zm-9.7194 5.5586c-.1535-2.0015-.8972-5.4802-3.285-7.3428-1.0605-.8271-2.875-1.6602-5.4985-.9219-1.4269.4011-2.6232 1.2059-3.6442 2.2285l-68.2064-82.7061 5.0425-26.5205 91.23 95.6641zm-168.1619 143.7602c-1.452-1.76-4.4341-6.1929-1.9399-10.5581.6804-1.1906 1.2242-2.4554 1.675-3.7639 3.9906-2.5894 26.142-17.1555 29.1575-23.3533 2.9903-6.1455 8.0386-36.9283 9.6974-53.4583l35.91 51.4436c.3193.457.8149.7607 1.3672.8369.0913.0127.1821.0186.2729.0186.46 0 .9097-.1592 1.2695-.4541l29.7798-24.46 17.6508-10.7222c-4.7664 11.2482-10.2159 22.5906-14.4227 27.813-9.8608 12.2402-18.6787 29.706-20.1318 33.5801-1.0552 2.8145-4.0737 5.877-5.1685 6.9268-6.0604 1.0635-18.6469 3.3518-22.6296 4.077-.3228-.3947-.7783-.661-1.2884-.7264-14.5215-1.8438-24.1582.9766-32.6616 3.4639-4.6772 1.3682-9.104 2.6621-14.0498 3.166-3.3827-1.5373-8.6345-2.8017-14.4878-3.8296zm21.5048-168.7495c-2.7144-4.1758-9.0332-4.1631-9.293-4.1582-.3003.0029-.5962.0742-.8657.207-1.4795.7305-2.4146 1.7734-2.7778 3.0996-.6675 2.4314.8839 4.8807 2.1757 6.8689l-52.4087-21.5353 5.3638-85.9252 118.9156 39.4266-38.5999 81.7256-20.2903-8.3513c.1639-3.3991-.3126-8.4243-2.2197-11.3577zm91.1073-27.0488-11.5748 18.8853-53.8146 31.2473c-.0303-.1882-.0779-.369-.1157-.5542l38.7432-82.0293zm-153.1138-71.3014-5.18 82.9801-5.667 3.502 4.165-78.7314zm87.4723 128.8148 56.2867 72.5891-26.7154 21.9434-37.4119-53.5956c1.3206-15.5381 3.2122-26.6168 3.9558-28.6007.0962-.2559.2275-.5869.3843-.9834.9559-2.4123 2.6818-6.7851 3.5005-11.3528zm80.3787 57.7544-.0637-.1047-12.208 7.4155 17.709-21.491c-1.4433 4.011-3.3236 8.9573-5.4373 14.1802zm8.3679-26.9553c.0391 1.1057.0719 2.0852.0524 2.8661l-29.6925 36.0333-58.0001-74.7994 53.5446-31.0907 39.9042 48.5927c-.5809.582-1.145 1.127-1.6744 1.6129-4.5785 4.2031-4.3109 11.7744-4.1342 16.7851zm7.4878-20.135-39.834-48.5076 10.8557-17.7122 39.0927 47.4031c-1.8563 3.5105-2.6141 7.615-2.8654 9.3726-.2327 1.3213-3.7629 5.729-7.249 9.4441zm44.6944-37.2351-75.306-78.9664 44.6312-21.5609 78.9517 89.1797-44.2041 25.5605c-1.401-3.8872-3.1237-7.3976-4.6929-8.8877-.2466-.2346-.5159-.5015-.7955-.7786l1.5318-1.9197c.6235-.7812.5742-1.9033-.1162-2.6269zm6.3486 22.2344c-.261-1.3049-.6104-2.707-1.0179-4.1283l33.3606-19.2902-35.1344 34.4497c1.8743-2.8916 3.6211-6.8833 2.7917-11.0312zm-270.8537 127.7016c-1.4883.3556-2.9114.7083-4.2328 1.0435 2.3951-2.4602 5.0175-5.4658 6.8431-8.4353-.659 4.0471-2.1534 6.667-2.6103 7.3918zm60.6027-35.2153c-4.8335 3.6572-6.9312 11.0078-5.7905 15.3174.6646 2.5107-.3994 8.4922-.8535 11.0469-.186 1.0469-.2769 1.5654-.3071 1.9268-.1311 1.5789-.5427 8.0646.9871 12.3269-8.4572-.3987-18.7155-4.0593-25.5545-6.5037-2.7275-.9746-4.8818-1.7451-6.3247-2.0957-3.0823-.7489-10.5136.4788-17.737 2.0491.7205-1.8022 1.4388-4.2195 1.7487-7.1633.8774-8.332-17.9336-19.3213-22.585-20.6289-5.0312-1.416-18.2798-11.4229-20.3784-21.917-.1289-.6465-.2812-1.3613-.4468-2.1387-2.7095-12.7188-9.0542-42.5049 27.3589-58.3887 15.9399-6.9521 31.4399-5.6289 46.0669 3.9355 11.061 7.2334 17.4609 16.7129 17.5239 16.8086.2534.3789.6304.6621 1.0659.7988 4.5986 1.4434 10.022 3.4922 11.5269 4.4932.0088 1.5254-.3257 5.5371-.6958 8.9033-.0962.873.3887 1.707 1.1958 2.0557 2.9878 1.2881 3.25 5.9678 3.2524 6.0078.021.5127.2388.998.6079 1.3545 1.2178 1.1777 1.5098 5.1611 1.3237 7.4805-.0278.3359.0303.6738.168.9824 1.9102 4.2607 3.5869 9.7959 3.0376 11.2432-.71 1.8721-7.9355 6.9521-11.4077 9.3936-1.5029 1.0565-2.8007 1.9686-3.7827 2.7118zm7.1969-.2256c6.2683-4.4286 10.7294-7.8138 11.7338-10.4619.2558-.6743.3458-1.5027.3212-2.417 1.1757-2.7552 8.7274-20.4497 10.6544-24.9111 1.71-3.9619 10.7612-38.375 9.543-42.3359-.3843-1.249-1.6416-3.2266-3.8306-6.6123-2.1201-3.2793-6.5312-10.1035-6.333-11.8379.1646-1.4375.7578-3.2773 1.3311-5.0566.959-2.9746 1.7871-5.5439 1.2598-7.5654-.27-1.0361-.9653-2.1055-1.7017-3.2383-.7295-1.1221-1.9507-3.001-1.7461-3.7461.0288-.1045.1377-.2256.311-.3486 1.4736.0918 4.3003.6084 5.4146 2.3223 1.7202 2.6465 1.8481 9.2354 1.356 10.8906-.7017 2.3594-.2354 6.6953-.1802 7.1816l3.9746-.4521c-.1356-1.1953-.2287-3.0107-.1406-4.3481l20.1171 8.2798c.8867 5.4736-2.2886 13.4883-3.5269 16.6123-.1675.4238-.3081.7783-.4106 1.0527-1.1523 3.0742-3.2012 16.8008-4.415 32.335-1.2661 16.2061-6.8506 49.8809-9.6299 55.5928-1.7435 3.5839-14.5122 12.9294-24.2433 19.444.7861-5.7904.2004-11.9803-.5468-17.2789-.9574-6.7891-6.1994-11.0978-9.3119-13.1009zm73.2422 51.9984c5.0775-.9238 16.6641-3.0272 21.9564-3.9515.3672-.0635.7095-.2295.9878-.4775.2041-.1826 5.0107-4.5078 6.6504-8.8818 1.3511-3.6025 10.0723-20.7695 19.502-32.4746 9.9688-12.375 25.8364-55.0381 26.1973-59.5547.0859-1.0703.0391-2.3936-.0151-3.9248-.1602-4.5322-.3794-10.7402 2.8418-13.6963 1.7334-1.5918 11.2822-11.1494 11.8569-15.1719.5513-3.8613 2.4458-10.666 6.0479-11.6797 1.0859-.3037 1.6152-.0391 1.9551.2256 1.2251.9561 1.791 3.6475 1.7812 4.9707-.1851.6729-1.3975 2.7656-2.2886 4.3027-2.9834 5.1475-4.6187 8.1592-3.5376 10.207.5459 1.0342 1.5645 1.5811 2.8091 1.5781 2.9331-.0742 7.291-3.9736 8.3691-6.292l-3.4352-1.5984 9.0863-11.3875c.7549 1.2095 2.1957 4.0042 1.9886 7.4526-.2979 4.96-4.1006 11.6045-4.1392 11.6709l3.4634 2.001c.1758-.3047 4.314-7.5234 4.6689-13.4316.0439-.7324.0299-1.4382-.0228-2.1177l2.908.5581c1.2399-6.4601-1.694-12.1074-2.7221-13.8344l2.6306-3.2968c.1848.1819.3776.3738.5475.5354 1.5894 1.5098 4.5317 8.4453 5.8022 14.7949 1.0801 5.4023-4.8164 11.373-5.0679 11.625-.7065.7061-1.0898 1.8486-1.9639 4.5957-1.1035 3.4668-2.9502 9.2686-5.3696 10.7432-3.9922 2.4346-13.1572 11.8193-18.0811 16.8613-.9004.9229-1.6279 1.668-2.1084 2.1484-2.02 2.0195-2.5396 4.8359-2.9976 7.3203-.356 1.9287-.6914 3.75-1.6162 5.0371-3.0015 4.1748-9.2407 26.7129-11.5684 38.6553-1.9668 10.0889-11.1831 29.3232-15.6128 38.5674-1.1924 2.4893-2.0542 4.2871-2.4326 5.1855l-.3149.752c-8.3726 20.0264-12.6621 24.7705-14.4741 25.8154-2.0825 1.2012-3.7227 1.3486-5.6216 1.5195-2.7876.25-5.9468.5332-10.3652 4.041-5.1925 4.1206-23.0027 13.4136-30.8715 17.446.8508-2.7817 1.7864-5.8743 2.8202-9.3347 5.6465-18.9037 2.2156-31.685-.2443-37.5042z"/></g></svg>