<svg width="48" height="48" viewBox="0 0 48 48" fill="none" xmlns="http://www.w3.org/2000/svg">
<path d="M44.1139 35.5102C46.0632 32.1167 47.1795 28.186 47.1795 24C47.1795 19.8209 46.066 15.8972 44.1223 12.5093C44.1083 12.4758 44.093 12.4423 44.0749 12.4102C44.0581 12.3823 44.04 12.3544 44.0204 12.3293C42.0028 8.88136 39.12 5.99857 35.6721 3.9809C35.6455 3.96136 35.619 3.94323 35.5897 3.92648C35.5632 3.91113 35.5367 3.89857 35.5102 3.88602C32.1167 1.93671 28.186 0.820435 24 0.820435C19.8139 0.820435 15.8832 1.93671 12.4897 3.88602C12.4632 3.89857 12.4367 3.91113 12.4102 3.92648C12.3809 3.94323 12.3544 3.96136 12.3279 3.9809C8.87997 5.99857 5.99857 8.87997 3.9809 12.3279C3.96136 12.3544 3.94322 12.3809 3.92509 12.4102C3.90974 12.4367 3.89718 12.4632 3.88462 12.4897C1.93671 15.8832 0.820435 19.8139 0.820435 24C0.820435 28.186 1.93671 32.1167 3.88602 35.5102C3.89857 35.5367 3.91113 35.5632 3.92648 35.5897C3.94183 35.6176 3.95997 35.6428 3.97811 35.6679C8.0023 42.5483 15.4702 47.1795 24 47.1795C32.5297 47.1795 39.9976 42.5469 44.0218 35.6679C44.04 35.6428 44.0581 35.6176 44.0735 35.5897C44.0888 35.5632 44.1028 35.5367 44.1139 35.5102ZM24 45.5051C16.3549 45.5051 9.62927 41.4935 5.81439 35.4656L9.90695 33.1032C10.3074 32.8716 10.4442 32.3595 10.2139 31.959C9.98369 31.5586 9.4702 31.4218 9.06974 31.6521L4.97578 34.0158C3.51625 31.2558 2.63997 28.1414 2.51299 24.8372H7.24323C7.70509 24.8372 8.08044 24.4618 8.08044 24C8.08044 23.5381 7.70509 23.1628 7.24323 23.1628H2.51299C2.63997 19.8586 3.51625 16.7442 4.97578 13.9828L9.06974 16.3465C9.2009 16.4232 9.34602 16.4581 9.48695 16.4581C9.77578 16.4581 10.0576 16.3074 10.2125 16.0395C10.4442 15.639 10.306 15.1269 9.90555 14.8953L5.81299 12.533C7.52509 9.82602 9.82602 7.52648 12.5316 5.81439L14.8967 9.90695C15.0516 10.1749 15.3335 10.3256 15.6223 10.3256C15.7646 10.3256 15.9083 10.2893 16.0395 10.2139C16.44 9.98229 16.5767 9.4702 16.3465 9.06974L13.9828 4.97578C16.7442 3.51625 19.8586 2.63997 23.1628 2.51299V7.24323C23.1628 7.70509 23.5381 8.08044 24 8.08044C24.4618 8.08044 24.8372 7.70509 24.8372 7.24323V2.51299C28.1414 2.63997 31.2558 3.51625 34.0172 4.97578L31.6535 9.06974C31.4218 9.4702 31.56 9.98229 31.9604 10.2139C32.0916 10.2907 32.2367 10.3256 32.3776 10.3256C32.6665 10.3256 32.9483 10.1749 33.1032 9.90695L35.4656 5.81439C38.1725 7.52648 40.4707 9.82881 42.1828 12.5344L38.093 14.8967C37.6925 15.1283 37.5558 15.6404 37.786 16.0409C37.9409 16.3088 38.2228 16.4595 38.5116 16.4595C38.6539 16.4595 38.7976 16.4232 38.9288 16.3479L43.0228 13.9842C44.4837 16.7442 45.36 19.8586 45.4869 23.1628H40.7567C40.2949 23.1628 39.9195 23.5381 39.9195 24C39.9195 24.4618 40.2949 24.8372 40.7567 24.8372H45.4869C45.36 28.1414 44.4837 31.2558 43.0242 34.0172L38.9302 31.6535C38.5297 31.4218 38.0176 31.56 37.786 31.9604C37.5544 32.3609 37.6925 32.873 38.093 33.1046L42.1856 35.4669C38.3707 41.4935 31.6451 45.5051 24 45.5051Z" fill="white"/>
<path d="M31.0116 40.7874H16.9883C15.6027 40.7874 14.4767 39.6599 14.4767 38.2757V36.0432C14.4767 34.659 15.6027 33.5316 16.9883 33.5316H31.0116C32.3971 33.5316 33.5232 34.659 33.5232 36.0432V38.2757C33.5232 39.6599 32.3971 40.7874 31.0116 40.7874ZM16.9883 35.206C16.5265 35.206 16.1511 35.5813 16.1511 36.0432V38.2757C16.1511 38.7376 16.5265 39.1129 16.9883 39.1129H31.0116C31.4734 39.1129 31.8488 38.7376 31.8488 38.2757V36.0432C31.8488 35.5813 31.4734 35.206 31.0116 35.206H16.9883Z" fill="white"/>
<path d="M24 28.4051C22.0898 28.4051 20.5367 26.8506 20.5367 24.9404C20.5367 24.6795 20.566 24.4199 20.6247 24.166L23.1809 12.1604C23.2633 11.7739 23.6051 11.4976 24 11.4976C24.3949 11.4976 24.7367 11.7739 24.8191 12.1604L27.3767 24.166C27.4354 24.4199 27.4647 24.6809 27.4647 24.9404C27.4647 26.8506 25.9102 28.4051 24 28.4051ZM24 16.3548L22.2614 24.5232C22.26 24.5288 22.2586 24.5344 22.2572 24.5399C22.2265 24.6725 22.2112 24.8079 22.2112 24.9432C22.2112 25.9297 23.0135 26.7334 24 26.7334C24.9865 26.7334 25.7902 25.9297 25.7902 24.9432C25.7902 24.8079 25.7749 24.6725 25.7442 24.5413C25.7428 24.5358 25.7414 24.5302 25.74 24.5246L24 16.3548Z" fill="white"/>
</svg>
