<svg width="38" height="28" viewBox="0 0 38 28" fill="none" xmlns="http://www.w3.org/2000/svg">
<path d="M6.70215 1.32327C3.44395 4.49241 1.15801 8.87874 0.297074 13.5916C-0.00722292 15.2912 -0.0962854 18.3194 0.118949 19.7666C0.341605 21.2733 0.905668 22.7354 1.71465 23.908C3.72598 26.8248 7.41465 28.1014 10.8955 27.092C12.2611 26.6987 13.367 26.0307 14.4432 24.9545C15.4897 23.908 16.0463 23.0174 16.4842 21.7112C17.2041 19.5662 17.0482 17.2358 16.0611 15.2393C14.8662 12.8123 12.4764 11.0385 9.9084 10.66C8.83965 10.5041 8.95098 10.6006 9.00293 9.85101C9.11426 8.29241 9.70059 6.71155 10.8139 4.92288C11.467 3.89124 11.5264 4.03968 9.64121 2.15452C7.65215 0.172878 7.8377 0.224833 6.70215 1.32327ZM9.50762 4.59632C8.78028 5.79124 8.16426 7.3053 7.9045 8.58929C7.74121 9.36858 7.71153 10.8752 7.85254 11.276C7.99356 11.6545 8.17168 11.751 8.90645 11.803C11.6006 12.0182 13.9088 13.6065 15.0295 16.026C15.5268 17.0948 15.6232 17.5994 15.6158 19.0096C15.6158 20.1674 15.5936 20.3307 15.408 20.9393C14.6584 23.4034 12.7064 25.2959 10.2424 25.9565C9.35918 26.194 7.58535 26.2014 6.73926 25.9639C3.80762 25.1549 1.80371 22.728 1.33614 19.4252C1.22481 18.6088 1.23965 16.0409 1.37325 15.0018C1.57364 13.3764 1.90762 11.944 2.41231 10.5116C3.45137 7.56507 5.21778 4.6928 7.41465 2.39944L7.75606 2.05061L8.78028 3.07483L9.81192 4.10647L9.50762 4.59632Z" fill="#F25170"/>
<path d="M27.4983 1.62755C23.9136 5.27912 21.6796 10.133 21.1452 15.4322C21.0191 16.7088 21.1007 19.3955 21.2862 20.3084C22.1546 24.4721 25.2273 27.2405 29.1757 27.4112C31.5581 27.5151 33.6585 26.7432 35.3581 25.1326C36.7089 23.8487 37.555 22.3049 37.889 20.494C38.0597 19.5959 38.0077 17.7776 37.7925 16.9612C36.9464 13.7846 34.5862 11.469 31.4319 10.7342C31.0831 10.6526 30.6749 10.5858 30.5191 10.5858C30.0589 10.5858 30.0292 10.5338 30.0886 9.80646C30.2148 8.28498 30.7714 6.77834 31.8921 4.93029C32.2929 4.27716 32.3671 4.10646 32.33 3.92834C32.2929 3.7799 31.8179 3.24552 30.7788 2.20646C29.9476 1.38263 29.2202 0.670134 29.1608 0.633024C29.1015 0.595915 28.9382 0.566227 28.7972 0.566227C28.5597 0.566227 28.4483 0.66271 27.4983 1.62755ZM30.3929 4.94513C29.2796 6.89709 28.671 9.19045 28.864 10.7268C28.9827 11.6842 29.0347 11.7287 29.9921 11.8029C33.087 12.0479 35.5733 14.0444 36.4937 17.0205C36.6792 17.6217 36.694 17.7701 36.694 18.9725C36.694 20.1748 36.6792 20.3233 36.4937 20.9244C35.8331 23.0545 34.5269 24.5834 32.5601 25.5037C31.5136 25.9936 30.8605 26.1346 29.5765 26.1346C28.6487 26.1346 28.3593 26.1049 27.8323 25.9639C25.2866 25.2811 23.3198 23.2104 22.6444 20.5162C22.4069 19.5811 22.3476 18.9205 22.3401 17.4139C22.3401 14.1557 22.9933 11.2686 24.4108 8.32209C25.4499 6.16232 26.5483 4.5592 28.3222 2.61466L28.8343 2.05802L29.8585 3.07482L30.8753 4.09162L30.3929 4.94513Z" fill="#F25170"/>
</svg>
