<svg width="64" height="64" viewBox="0 0 64 64" fill="none" xmlns="http://www.w3.org/2000/svg">
<g clip-path="url(#clip0_459_1254)">
<path d="M13.8506 0.124928C11.2006 0.574928 9.07564 2.11243 7.95064 4.38743C6.88814 6.56243 6.83814 6.84993 6.78814 12.5624C6.73814 18.2624 6.71314 18.1624 7.76314 18.7249C8.30064 19.0124 8.33814 19.0124 12.2756 18.9749C16.0506 18.9374 16.2506 18.9249 16.5756 18.6749C16.7631 18.5374 17.0381 18.2624 17.1756 18.0749C17.4256 17.7499 17.4381 17.5374 17.4756 14.1249C17.5131 10.0749 17.4881 9.91243 16.6756 9.29993C16.2381 8.94993 16.1381 8.93743 14.7381 8.88743L13.2756 8.84993L13.4631 8.19993C13.8006 7.03743 14.3881 6.49993 15.4881 6.31243C15.8506 6.24993 16.1756 6.09993 16.4006 5.87493L16.7506 5.52493V3.12493V0.724928L16.3881 0.362429C16.0506 0.0374279 15.9506 -7.24792e-05 15.2256 0.0124283C14.7881 0.0249271 14.1756 0.0749283 13.8506 0.124928ZM14.1256 3.33743C14.1256 3.92493 14.1131 3.93743 13.5631 4.16243C11.8006 4.89993 10.6256 7.09993 10.6256 9.69993C10.6256 10.6124 10.6631 10.7749 10.9256 11.0874C11.2256 11.4374 11.2256 11.4374 13.0506 11.4749L14.8756 11.5124V13.9499V16.3749H12.0631H9.25064V13.7124C9.26314 7.89993 9.65064 6.01243 11.1381 4.43743C11.5006 4.04993 11.9756 3.62493 12.2006 3.48743C12.5756 3.26243 13.8006 2.76243 14.0381 2.74993C14.0881 2.74993 14.1256 3.01243 14.1256 3.33743Z" fill="#696969"/>
<path d="M26.5516 0.137501C23.7891 0.6 21.4641 2.4375 20.4391 4.9875C19.6266 6.975 19.6016 7.25 19.5391 12.625L19.4766 17.5625L19.7766 17.9875C19.9391 18.225 20.2266 18.5375 20.4141 18.675C20.7641 18.925 20.9016 18.9375 24.8766 18.9375C28.8516 18.9375 28.9891 18.925 29.3391 18.675C29.5266 18.5375 29.8141 18.225 29.9766 18C30.2516 17.6 30.2516 17.5125 30.2516 13.9375C30.2516 10.3625 30.2516 10.275 29.9766 9.875C29.4141 9.05 29.1391 8.9375 27.5391 8.9L26.1016 8.85L26.1891 8.4C26.2891 7.8125 26.8016 6.925 27.1641 6.7C27.3141 6.6 27.7766 6.4375 28.1766 6.325C28.6141 6.2125 29.0516 6 29.2391 5.8125C29.5516 5.5 29.5641 5.4375 29.6016 3.6125C29.6641 1.275 29.5891 0.750002 29.1641 0.325001C28.8766 0.0375004 28.7516 1.90735e-06 28.0141 0.0125008C27.5641 0.0250015 26.9016 0.0750008 26.5516 0.137501ZM27.0016 3.3125C27.0016 3.85 26.9891 3.875 26.4266 4.1125C24.6266 4.9125 23.5766 6.7375 23.4141 9.35C23.2891 11.2875 23.5391 11.5 26.0016 11.5H27.6266V13.9375V16.375H24.8641H22.1016L22.1516 12.2125C22.2141 7.625 22.2516 7.3375 23.0641 5.6625C23.7016 4.3625 24.9391 3.3125 26.3766 2.8625C26.9516 2.6875 27.0016 2.725 27.0016 3.3125Z" fill="#696969"/>
<path d="M34.413 9.71236C33.5005 9.88736 33.1755 11.1999 33.863 11.8874C34.688 12.6999 36.0005 12.1374 36.0005 10.9624C36.0005 10.5249 35.9255 10.3374 35.6755 10.0749C35.488 9.89986 35.2755 9.74986 35.1755 9.74986C35.088 9.74986 34.9505 9.72486 34.8505 9.69986C34.763 9.67486 34.563 9.68736 34.413 9.71236Z" fill="#696969"/>
<path d="M39.7504 9.775C38.8879 10.0875 38.6504 11.2375 39.3129 11.9125C39.6004 12.2 39.7254 12.2125 41.6504 12.3C43.9754 12.4 44.9504 12.525 46.6254 12.9375C49.5879 13.6875 52.3629 15.15 54.7129 17.2375C57.9629 20.1 60.0879 23.725 61.0254 28.0125C61.2754 29.1375 61.3129 29.6625 61.3004 32C61.3004 34.4625 61.2754 34.8 60.9754 36.0625C60.0004 40.1875 58.1129 43.4625 55.1004 46.3125C52.7254 48.5375 50.0004 50.05 46.7004 50.9375C45.3379 51.3125 45.0504 51.4875 44.8879 52.0875C44.8004 52.3625 44.7504 54.0125 44.7504 56.0625V59.5625L40.7754 55.5875L36.8004 51.625H29.3754C20.1629 51.625 18.9504 51.525 16.0254 50.55C9.7504 48.475 4.8004 43.1375 3.2004 36.75C2.7004 34.75 2.5879 33.6 2.6629 31.2375C2.7629 28.1625 3.2254 26.2375 4.5129 23.5125C5.2504 21.9375 5.3004 21.4125 4.7629 20.8625C4.3004 20.4125 3.5879 20.3625 3.0754 20.7625C2.4629 21.2375 1.2379 24.125 0.637899 26.475C-0.237101 29.8625 -0.224601 33.975 0.637899 37.4375C2.2379 43.8 6.8254 49.35 12.7754 52.125C15.1254 53.2125 17.7629 53.9 20.4629 54.125C21.2754 54.1875 25.0254 54.25 28.8129 54.25H35.6754L40.5629 59.125L45.4504 64H46.0504C46.5379 64 46.7129 63.9375 47.0129 63.6375L47.3754 63.275V58.4125V53.5375L48.8504 53.0625C53.5379 51.5125 57.9129 48.125 60.5129 44C62.9004 40.225 64.0004 36.425 64.0004 31.925C64.0004 27.2 62.6129 22.8375 59.9004 19C58.9004 17.5875 56.5754 15.2 55.1879 14.1625C52.1879 11.9375 48.8379 10.525 45.1254 9.95C43.4004 9.6875 40.3004 9.5875 39.7504 9.775Z" fill="#696969"/>
<path d="M15.8998 22.3749C15.6373 22.5374 15.4623 22.7624 15.4248 22.9999C15.2748 23.7499 15.4123 24.1999 15.8998 24.4999C16.3123 24.7499 16.5373 24.7499 31.9748 24.7499C48.9123 24.7499 48.1498 24.7749 48.5123 24.1124C48.6873 23.7749 48.6873 23.0999 48.5123 22.7624C48.1498 22.0999 48.9123 22.1249 31.9748 22.1249C16.5373 22.1249 16.3123 22.1249 15.8998 22.3749Z" fill="#696969"/>
<path d="M16.2885 28.8375C15.926 28.9125 15.376 29.475 15.3635 29.8C15.326 30.45 15.4135 30.7125 15.7635 31.025L16.126 31.375H32.001H47.876L48.251 31.025C48.876 30.475 48.7885 29.4625 48.076 28.9875C47.851 28.8375 45.3385 28.8125 32.1885 28.8C23.601 28.7875 16.4385 28.8125 16.2885 28.8375Z" fill="#696969"/>
<path d="M15.7517 35.8375C15.1017 36.4125 15.2267 37.5 15.9892 37.9C16.4392 38.1375 47.5642 38.1375 48.0142 37.9C48.4517 37.6625 48.6517 37.2875 48.6517 36.7C48.6392 36.2875 48.5642 36.1125 48.2517 35.8375L47.8767 35.5H32.0017H16.1267L15.7517 35.8375Z" fill="#696969"/>
<path d="M23.4256 42.25C22.6131 42.575 22.3881 43.6125 22.9881 44.275C23.3006 44.625 23.4381 44.6875 23.9381 44.6875C24.4381 44.6875 24.5756 44.625 24.8881 44.275C25.4756 43.6125 25.3256 42.6875 24.5631 42.3125C24.1131 42.1 23.8256 42.0875 23.4256 42.25Z" fill="#696969"/>
<path d="M30.2748 42.375C30.0123 42.5375 29.8373 42.7625 29.7998 43C29.6498 43.75 29.7873 44.2 30.2748 44.5C30.6748 44.7375 30.9123 44.75 39.1623 44.75C46.4748 44.75 47.6873 44.725 47.9998 44.5625C48.4498 44.3375 48.6498 43.975 48.6498 43.4375C48.6498 42.9 48.4498 42.5375 47.9998 42.3125C47.6873 42.15 46.4748 42.125 39.1623 42.125C30.9123 42.125 30.6748 42.1375 30.2748 42.375Z" fill="#696969"/>
</g>
<defs>
<clipPath id="clip0_459_1254">
<rect width="64" height="64" fill="white"/>
</clipPath>
</defs>
</svg>
