<svg width="64" height="64" viewBox="0 0 64 64" fill="none" xmlns="http://www.w3.org/2000/svg">
<g clip-path="url(#clip0_435_2568)">
<path d="M32 60C24.5739 60 17.452 57.05 12.201 51.799C6.94999 46.548 4 39.4261 4 32C4 24.5739 6.94999 17.452 12.201 12.201C17.452 6.94999 24.5739 4 32 4C39.4261 4 46.548 6.94999 51.799 12.201C57.05 17.452 60 24.5739 60 32C60 39.4261 57.05 46.548 51.799 51.799C46.548 57.05 39.4261 60 32 60ZM32 64C40.4869 64 48.6263 60.6286 54.6274 54.6274C60.6286 48.6263 64 40.4869 64 32C64 23.5131 60.6286 15.3737 54.6274 9.37258C48.6263 3.37142 40.4869 0 32 0C23.5131 0 15.3737 3.37142 9.37258 9.37258C3.37142 15.3737 0 23.5131 0 32C0 40.4869 3.37142 48.6263 9.37258 54.6274C15.3737 60.6286 23.5131 64 32 64Z" fill="#696969"/>
<path d="M17.1398 38.268C17.5992 38.0028 18.1451 37.9309 18.6574 38.0682C19.1698 38.2055 19.6066 38.5407 19.8718 39C21.1003 41.1293 22.868 42.8975 24.9972 44.1263C27.1263 45.3552 29.5415 46.0014 31.9998 46C34.4581 46.0014 36.8734 45.3552 39.0025 44.1263C41.1316 42.8975 42.8994 41.1293 44.1278 39C44.2582 38.7707 44.4326 38.5695 44.6411 38.4079C44.8496 38.2463 45.0879 38.1275 45.3425 38.0584C45.597 37.9893 45.8627 37.9712 46.1243 38.0052C46.3858 38.0392 46.6381 38.1246 46.8665 38.2565C47.0949 38.3884 47.295 38.5641 47.4552 38.7736C47.6154 38.9832 47.7326 39.2223 47.8 39.4773C47.8675 39.7323 47.8838 39.9981 47.848 40.2594C47.8123 40.5208 47.7252 40.7725 47.5918 41C46.0123 43.7374 43.7396 46.0105 41.0025 47.5904C38.2653 49.1704 35.1603 50.0014 31.9998 50C28.8394 50.0014 25.7344 49.1704 22.9972 47.5904C20.26 46.0105 17.9873 43.7374 16.4078 41C16.1426 40.5406 16.0708 39.9947 16.208 39.4824C16.3453 38.9701 16.6805 38.5332 17.1398 38.268ZM27.9998 26C27.9998 29.312 26.2078 32 23.9998 32C21.7918 32 19.9998 29.312 19.9998 26C19.9998 22.688 21.7918 20 23.9998 20C26.2078 20 27.9998 22.688 27.9998 26ZM35.0278 24.252C35.2574 24.1243 35.5098 24.0432 35.7708 24.0131C36.0317 23.983 36.296 24.0046 36.5486 24.0766C36.8011 24.1487 37.0371 24.2698 37.2428 24.433C37.4486 24.5963 37.6202 24.7984 37.7478 25.028C38.0637 25.6178 38.5321 26.1119 39.1041 26.4588C39.6762 26.8057 40.3309 26.9926 40.9998 27C42.3558 27 43.5798 26.24 44.2518 25.028C44.5096 24.5644 44.941 24.2222 45.4511 24.0767C45.9612 23.9311 46.5083 23.9942 46.9718 24.252C47.4354 24.5098 47.7777 24.9412 47.9232 25.4513C48.0687 25.9614 48.0056 26.5084 47.7479 26.972C47.0854 28.185 46.1101 29.1983 44.9234 29.9067C43.7367 30.6151 42.3819 30.9926 40.9998 31C38.0798 31 35.5758 29.352 34.2518 26.972C34.1242 26.7425 34.043 26.49 34.0129 26.2291C33.9828 25.9682 34.0044 25.7039 34.0765 25.4513C34.1485 25.1987 34.2696 24.9628 34.4329 24.757C34.5961 24.5512 34.7983 24.3796 35.0278 24.252Z" fill="#696969"/>
</g>
<defs>
<clipPath id="clip0_435_2568">
<rect width="64" height="64" fill="white"/>
</clipPath>
</defs>
</svg>
