<svg width="22" height="22" viewBox="0 0 22 22" fill="none" xmlns="http://www.w3.org/2000/svg">
<path d="M11 0C13.9174 0 16.7153 1.15893 18.7782 3.22183C20.8411 5.28473 22 8.08262 22 11C22 13.9174 20.8411 16.7153 18.7782 18.7782C16.7153 20.8411 13.9174 22 11 22C8.08262 22 5.28473 20.8411 3.22183 18.7782C1.15893 16.7153 0 13.9174 0 11C0 8.08262 1.15893 5.28473 3.22183 3.22183C5.28473 1.15893 8.08262 0 11 0V0ZM9.625 8.9375C9.625 7.799 9.009 6.875 8.25 6.875C7.491 6.875 6.875 7.799 6.875 8.9375C6.875 10.076 7.491 11 8.25 11C9.009 11 9.625 10.076 9.625 8.9375ZM5.89187 13.1546C5.73397 13.2458 5.61876 13.396 5.57157 13.5721C5.52438 13.7482 5.54909 13.9358 5.64025 14.0938C6.18321 15.0347 6.96445 15.8161 7.90535 16.3592C8.84625 16.9023 9.9136 17.188 11 17.1875C12.0863 17.1877 13.1536 16.9019 14.0944 16.3588C15.0353 15.8158 15.8166 15.0345 16.3597 14.0938C16.4056 14.0155 16.4355 13.929 16.4478 13.8392C16.4601 13.7494 16.4545 13.658 16.4313 13.5703C16.4081 13.4827 16.3679 13.4005 16.3128 13.3284C16.2577 13.2564 16.1889 13.196 16.1104 13.1507C16.0319 13.1053 15.9452 13.076 15.8553 13.0643C15.7654 13.0526 15.674 13.0588 15.5865 13.0826C15.499 13.1063 15.4171 13.1472 15.3454 13.2027C15.2738 13.2583 15.2138 13.3274 15.169 13.4062C14.7467 14.1382 14.1391 14.746 13.4072 15.1684C12.6753 15.5909 11.845 15.813 11 15.8125C10.155 15.813 9.32471 15.5909 8.59283 15.1684C7.86095 14.746 7.25328 14.1382 6.831 13.4062C6.73983 13.2484 6.58967 13.1331 6.41355 13.0859C6.23743 13.0388 6.04978 13.0635 5.89187 13.1546ZM12.9759 8.60337C12.932 8.52447 12.873 8.45497 12.8023 8.39886C12.7315 8.34275 12.6504 8.30113 12.5636 8.27635C12.4768 8.25159 12.3859 8.24416 12.2963 8.2545C12.2066 8.26484 12.1198 8.29275 12.0409 8.33663C11.962 8.3805 11.8925 8.43949 11.8364 8.51023C11.7803 8.58096 11.7386 8.66206 11.7139 8.74888C11.6891 8.8357 11.6817 8.92655 11.692 9.01625C11.7023 9.10594 11.7302 9.19272 11.7741 9.27163C12.2279 10.0898 13.0914 10.6562 14.0938 10.6562C15.0975 10.6562 15.9583 10.0898 16.4134 9.27163C16.4573 9.19272 16.4852 9.10594 16.4955 9.01625C16.5058 8.92655 16.4984 8.8357 16.4736 8.74888C16.4489 8.66206 16.4072 8.58096 16.3511 8.51023C16.295 8.43949 16.2255 8.3805 16.1466 8.33663C16.0677 8.29275 15.9809 8.26484 15.8912 8.2545C15.8016 8.24416 15.7107 8.25159 15.6239 8.27635C15.5371 8.30113 15.456 8.34275 15.3852 8.39886C15.3145 8.45497 15.2555 8.52447 15.2116 8.60337C15.1031 8.8061 14.942 8.97596 14.7454 9.0952C14.5488 9.21445 14.3237 9.2787 14.0938 9.28125C13.8638 9.2787 13.6387 9.21445 13.4421 9.0952C13.2455 8.97596 13.0844 8.8061 12.9759 8.60337Z" fill="#1F2230"/>
</svg>
