<?xml version="1.0" encoding="UTF-8"?>
<svg xmlns="http://www.w3.org/2000/svg" viewBox="0 0 24 24" width="512" height="512" style="fill: #fff;">
	<g id="Layer_2" data-name="Layer 2">
		<path d="M21,10.75H15A1.75213,1.75213,0,0,1,13.25,9V3A1.75213,1.75213,0,0,1,15,1.25h6A1.75213,1.75213,0,0,1,22.75,3V9A1.75213,1.75213,0,0,1,21,10.75Zm-6-8a.25048.25048,0,0,0-.25.25V9a.25048.25048,0,0,0,.25.25h6A.25048.25048,0,0,0,21.25,9V3A.25048.25048,0,0,0,21,2.75Z" />
		<path d="M18,23.24512a1.74285,1.74285,0,0,1-1.2373-.51172l-3.4961-3.4961a1.752,1.752,0,0,1,0-2.4746l3.4961-3.4961a1.75112,1.75112,0,0,1,2.4746,0l3.4961,3.4961a1.75112,1.75112,0,0,1,0,2.4746l-3.4961,3.4961A1.74285,1.74285,0,0,1,18,23.24512Zm0-8.99121a.24837.24837,0,0,0-.17676.07324l-3.49609,3.49609a.24991.24991,0,0,0,0,.35352l3.49609,3.49609a.24991.24991,0,0,0,.35352,0l3.49609-3.49609a.24991.24991,0,0,0,0-.35352l-3.49609-3.49609A.24837.24837,0,0,0,18,14.25391Z" />
		<path d="M9,10.75H3A1.75213,1.75213,0,0,1,1.25,9V3A1.75213,1.75213,0,0,1,3,1.25H9A1.75213,1.75213,0,0,1,10.75,3V9A1.75213,1.75213,0,0,1,9,10.75Zm-6-8A.25048.25048,0,0,0,2.75,3V9A.25048.25048,0,0,0,3,9.25H9A.25048.25048,0,0,0,9.25,9V3A.25048.25048,0,0,0,9,2.75Z" />
		<path d="M9,22.75H3A1.75213,1.75213,0,0,1,1.25,21V15A1.75213,1.75213,0,0,1,3,13.25H9A1.75213,1.75213,0,0,1,10.75,15v6A1.75213,1.75213,0,0,1,9,22.75Zm-6-8a.25048.25048,0,0,0-.25.25v6a.25048.25048,0,0,0,.25.25H9A.25048.25048,0,0,0,9.25,21V15A.25048.25048,0,0,0,9,14.75Z" />
	</g>
</svg>
