<svg id="Layer_1_1_" enable-background="new 0 0 64 64" height="512" viewBox="0 0 64 64" width="512" xmlns="http://www.w3.org/2000/svg" style="fill: #fff;">
	<path d="m27 12h10v2h-10z" />
	<path d="m27 16h10v2h-10z" />
	<path d="m57 54v-8c0-.444-.293-.835-.72-.96l-23.28-6.79v-12.25h7c.553 0 1-.448 1-1v-16c0-.265-.105-.52-.293-.707l-6-6c-.187-.188-.441-.293-.707-.293h-10c-.553 0-1 .448-1 1v22c0 .552.447 1 1 1h7v12.25l-23.28 6.79c-.427.125-.72.516-.72.96v8c0 .444.293.835.72.96l24 7c.092.027.185.04.28.04s.188-.013.28-.04l24-7c.427-.125.72-.516.72-.96zm-22-48.586 2.586 2.586h-2.586zm-10-1.414h8v5c0 .552.447 1 1 1h5v14h-14zm6 36.333v5.253l-2.293-2.293-1.414 1.414 4 4c.195.195.451.293.707.293s.512-.098.707-.293l4-4-1.414-1.414-2.293 2.293v-5.253l19.429 5.667-20.429 5.958-20.429-5.958zm-22 7 22 6.417v5.917l-22-6.417zm24 12.334v-5.917l22-6.417v5.917z" />
	<path d="m27 8h4v2h-4z" />
	<path d="m3 26h7c0 2.757 2.243 5 5 5h3c1.654 0 3 1.346 3 3v1.586l-2.293-2.293-1.414 1.414 4 4c.195.195.451.293.707.293s.512-.098.707-.293l4-4-1.414-1.414-2.293 2.293v-1.586c0-2.757-2.243-5-5-5h-3c-1.654 0-3-1.346-3-3h7c.553 0 1-.448 1-1v-16c0-.265-.105-.52-.293-.707l-6-6c-.187-.188-.441-.293-.707-.293h-10c-.553 0-1 .448-1 1v22c0 .552.447 1 1 1zm11-20.586 2.586 2.586h-2.586zm-10-1.414h8v5c0 .552.447 1 1 1h5v14h-14z" />
	<path d="m6 12h10v2h-10z" />
	<path d="m6 16h10v2h-10z" />
	<path d="m6 20h10v2h-10z" />
	<path d="m6 8h4v2h-4z" />
	<path d="m62 25v-16c0-.265-.105-.52-.293-.707l-6-6c-.187-.188-.441-.293-.707-.293h-10c-.553 0-1 .448-1 1v22c0 .552.447 1 1 1h7c0 1.654-1.346 3-3 3h-3c-2.757 0-5 2.243-5 5v1.586l-2.293-2.293-1.414 1.414 4 4c.195.195.451.293.707.293s.512-.098.707-.293l4-4-1.414-1.414-2.293 2.293v-1.586c0-1.654 1.346-3 3-3h3c2.757 0 5-2.243 5-5h7c.553 0 1-.448 1-1zm-6-19.586 2.586 2.586h-2.586zm-10 18.586v-20h8v5c0 .552.447 1 1 1h5v14z" />
	<path d="m48 12h10v2h-10z" />
	<path d="m48 16h10v2h-10z" />
	<path d="m48 20h10v2h-10z" />
	<path d="m48 8h4v2h-4z" />
	<path d="m27 20h2v2h-2z" />
	<path d="m31 20h2v2h-2z" />
	<path d="m35 20h2v2h-2z" />
</svg>
