<svg id="Layer_1" enable-background="new 0 0 512 512" viewBox="0 0 512 512" xmlns="http://www.w3.org/2000/svg" style="fill: #fff;">
	<path d="m230.017 41.228 19.964-22.806c1.52-1.735 3.713-2.73 6.02-2.73 2.306 0 4.5.995 6.02 2.73l19.965 22.805c2.91 3.324 2.574 8.378-.75 11.289-3.323 2.91-8.378 2.575-11.289-.75l-5.947-6.791v58.37c30.88 1.452 60.49 11.303 86.092 28.711 3.654 2.484 4.602 7.46 2.117 11.114-1.548 2.277-4.062 3.502-6.622 3.502-1.549 0-3.114-.449-4.491-1.385-25.141-17.094-54.566-26.13-85.096-26.13-4.418 0-8-3.582-8-8v-66.181l-5.944 6.791c-1.582 1.807-3.797 2.73-6.022 2.73-1.87 0-3.749-.652-5.267-1.98-3.325-2.911-3.661-7.965-.75-11.289zm278.253 223.443-22.806-19.964c-3.324-2.91-8.378-2.575-11.289.75-2.91 3.325-2.574 8.379.75 11.289l6.791 5.945h-66.182c-4.418 0-8 3.582-8 8 0 30.528-9.035 59.954-26.13 85.095-2.484 3.654-1.536 8.629 2.117 11.114 1.377.937 2.942 1.385 4.491 1.385 2.56 0 5.074-1.227 6.622-3.503 17.407-25.601 27.259-55.215 28.712-86.091h58.37l-6.791 5.945c-3.324 2.91-3.66 7.964-.75 11.289 1.582 1.807 3.797 2.73 6.022 2.73 1.87 0 3.749-.652 5.267-1.981l22.805-19.965c1.735-1.519 2.73-3.713 2.73-6.019.001-2.306-.994-4.5-2.729-6.019zm-71.641 149.902c-.293-4.408-4.102-7.743-8.513-7.452-4.408.293-7.745 4.104-7.452 8.513l.598 9.005-46.797-46.797c-1.501-1.5-3.536-2.343-5.658-2.343-2.121 0-4.156.843-5.656 2.344-3.542 3.542-7.305 6.95-11.185 10.129-3.418 2.8-3.919 7.84-1.119 11.258 2.8 3.417 7.838 3.918 11.258 1.119 2.23-1.827 4.425-3.722 6.568-5.671l41.276 41.276-9.006-.598c-4.421-.291-8.22 3.044-8.513 7.452-.293 4.409 3.044 8.22 7.452 8.513l30.242 2.009c.178.012.354.018.531.018 2.113 0 4.15-.838 5.656-2.343 1.63-1.631 2.478-3.886 2.325-6.187zm-399.554-129.937-6.791-5.945h66.183c4.418 0 8-3.582 8-8 0-30.529 9.035-59.955 26.129-85.096 2.484-3.654 1.536-8.629-2.117-11.114-3.653-2.484-8.629-1.536-11.113 2.118-17.408 25.602-27.259 55.212-28.711 86.092h-58.371l6.792-5.945c3.324-2.911 3.66-7.965.75-11.289-2.911-3.325-7.965-3.66-11.289-.75l-22.807 19.965c-1.735 1.52-2.73 3.713-2.73 6.02s.995 4.5 2.73 6.02l22.806 19.964c1.518 1.329 3.396 1.98 5.267 1.98 2.226 0 4.44-.924 6.022-2.73 2.91-3.325 2.574-8.38-.75-11.29zm38.296-157.827c.281 4.228 3.798 7.47 7.975 7.47.178 0 .357-.006.538-.018 4.408-.293 7.745-4.104 7.452-8.513l-.598-9.005 46.797 46.797c1.501 1.5 3.535 2.343 5.657 2.343s4.156-.843 5.657-2.343c21.606-21.607 48.802-36.03 78.646-41.708 4.341-.826 7.189-5.014 6.364-9.354-.827-4.341-5.013-7.189-9.354-6.364-30.396 5.783-58.302 19.76-81.18 40.588l-41.274-41.274 9.006.598c4.397.288 8.22-3.043 8.513-7.452s-3.044-8.22-7.452-8.513l-30.243-2.008c-2.315-.156-4.557.695-6.188 2.326-1.63 1.631-2.478 3.886-2.325 6.187zm31.771 172.386c-.827-4.341-5.014-7.188-9.354-6.363-4.341.826-7.189 5.014-6.364 9.354 5.784 30.396 19.761 58.301 40.589 81.18l-41.275 41.274.598-9.006c.293-4.409-3.044-8.22-7.452-8.513-4.392-.28-8.22 3.043-8.513 7.452l-2.009 30.243c-.152 2.301.695 4.556 2.325 6.187 1.506 1.505 3.543 2.343 5.657 2.343.176 0 .354-.006.53-.018l30.243-2.009c4.408-.293 7.745-4.104 7.452-8.513-.294-4.408-4.083-7.744-8.513-7.452l-9.006.598 46.798-46.798c3.124-3.124 3.124-8.189 0-11.313-21.606-21.606-36.028-48.801-41.706-78.646zm297.716-57.008c.73 3.835 4.085 6.506 7.851 6.506.496 0 .999-.046 1.504-.143 4.341-.826 7.189-5.014 6.364-9.354-5.784-30.396-19.764-58.303-40.588-81.18l41.273-41.274-.598 9.007c-.293 4.408 3.044 8.22 7.452 8.512.181.012.36.018.538.018 4.177 0 7.694-3.242 7.975-7.47l2.008-30.243c.152-2.301-.695-4.556-2.326-6.187-1.63-1.63-3.883-2.482-6.187-2.326l-30.242 2.009c-4.408.293-7.745 4.104-7.452 8.513s4.089 7.736 8.513 7.452l9.005-.598-46.798 46.798c-1.5 1.5-2.343 3.535-2.343 5.657s.843 4.157 2.344 5.657c21.607 21.605 36.029 48.801 41.707 78.646zm-79.989 144.312c-5.571 3.32-8.64 8.719-8.64 15.202v30.897c0 11.221-7.312 20.761-17.42 24.122v5.889c0 18.582-15.116 33.699-33.697 33.699h-18.225c-18.581 0-33.697-15.118-33.697-33.699v-5.889c-10.107-3.361-17.419-12.901-17.419-24.122v-30.897c0-6.483-3.068-11.882-8.641-15.202-19.696-11.735-36.192-28.417-47.705-48.241-11.869-20.438-18.143-43.803-18.143-67.567 0-74.283 60.434-134.716 134.717-134.716s134.718 60.433 134.718 134.716c0 23.764-6.274 47.128-18.144 67.567-11.511 19.824-28.008 36.506-47.704 48.241zm-42.059 76.11v-4.592h-53.62v4.592c0 9.759 7.938 17.699 17.697 17.699h18.225c9.759.001 17.698-7.939 17.698-17.699zm17.419-30.011v-11.465h-88.458v11.465c0 5.194 4.226 9.419 9.419 9.419h69.619c5.195.001 9.42-4.225 9.42-9.419zm-66.846-155.57c0-8.398-6.833-15.231-15.231-15.231s-15.231 6.833-15.231 15.231c0 9.426 11.788 19.645 30.463 24.394v-24.394zm29.234 42.918c-4.348.247-8.887.247-13.234 0v85.187h13.234zm112.101-49.255c0-65.46-53.257-118.716-118.718-118.716s-118.717 53.256-118.717 118.716c0 41.625 22.238 80.733 58.037 102.063 10.455 6.229 16.451 16.78 16.451 28.947v3.432h21.611v-87.278c-27.306-5.721-46.463-21.62-46.463-40.826 0-17.221 14.011-31.231 31.231-31.231s31.231 14.01 31.231 31.231v26.887c4.307.285 8.928.285 13.234 0v-26.887c0-17.221 14.011-31.231 31.231-31.231s31.231 14.01 31.231 31.231c0 19.206-19.157 35.105-46.463 40.826v87.278h21.612v-3.432c0-12.167 5.996-22.718 16.45-28.947 35.803-21.33 58.042-60.439 58.042-102.063zm-65.638 6.337c0-8.398-6.833-15.231-15.231-15.231s-15.231 6.833-15.231 15.231v24.394c18.674-4.749 30.462-14.967 30.462-24.394z" />
</svg>
