<svg id="Capa_1" enable-background="new 0 0 512 512" height="512" viewBox="0 0 512 512" width="512" xmlns="http://www.w3.org/2000/svg" style="fill: #fff">    <g><g><path d="m182.231 195.115c-6.609 5.13-10.242 12.334-10.242 20.336 0 7.385 2.913 14.25 8.201 19.33 4.889 4.697 11.373 7.39 17.789 7.39 3.445 0 6.858-.694 10.186-2.054.486 3.562 1.591 6.864 3.314 9.848 3.349 5.8 8.759 9.885 15.157 11.681v38.357c0 4.142 3.358 7.5 7.5 7.5s7.5-3.358 7.5-7.5v-38.361c6.392-1.797 11.798-5.881 15.145-11.677 1.723-2.983 2.828-6.286 3.314-9.848 3.328 1.36 6.741 2.054 10.187 2.055 9.189 0 17.537-4.958 22.331-13.26 4.795-8.304 4.915-18.013.319-25.972-1.721-2.982-4.027-5.59-6.867-7.792 7.295-5.694 10.205-13.41 10.205-20.31 0-7.386-2.912-14.25-8.201-19.331-4.889-4.696-11.372-7.39-17.788-7.39-3.445 0-6.857.694-10.186 2.054-.486-3.562-1.591-6.864-3.314-9.848-4.594-7.958-13.062-12.709-22.65-12.709-9.589 0-18.057 4.751-22.651 12.709-1.723 2.984-2.828 6.286-3.314 9.848-3.328-1.36-6.741-2.054-10.186-2.054-6.416 0-12.9 2.693-17.79 7.39-5.289 5.08-8.202 11.945-8.202 19.331-.001 9.041 4.224 15.692 10.243 20.277zm97.39 26.296c-2.083 3.607-5.575 5.761-9.341 5.761-5.569 0-10.584-4.466-13.871-8.307 4.593-4.316 7.933-9.943 9.42-16.281 4.956.926 11.328 3.036 14.11 7.856 1.885 3.262 1.766 7.363-.318 10.971zm-9.342-58.292c7.076 0 10.989 6.93 10.989 11.72 0 6.395-5.625 11.08-15.435 12.885-1.485-6.345-4.828-11.979-9.425-16.299 3.288-3.84 8.303-8.306 13.871-8.306zm-26.489 79.347c-1.883 3.262-5.495 5.209-9.66 5.209-4.166 0-7.777-1.947-9.661-5.209-2.781-4.818-1.427-11.385.254-16.151 2.982.902 6.14 1.393 9.412 1.393 3.268 0 6.423-.489 9.402-1.389 1.681 4.765 3.033 11.33.253 16.147zm-19.321-94.641c1.883-3.262 5.495-5.209 9.661-5.209s7.777 1.947 9.66 5.209c2.781 4.816 1.428 11.382-.252 16.148-2.979-.9-6.134-1.389-9.402-1.389-3.272 0-6.431.49-9.412 1.393-1.682-4.766-3.037-11.334-.255-16.152zm9.666 29.759c9.684 0 17.562 7.878 17.562 17.562s-7.878 17.562-17.562 17.562-17.562-7.878-17.562-17.562 7.879-17.562 17.562-17.562zm-36.156 49.588c-7.076 0-10.989-6.93-10.989-11.72 0-4.258 2.518-7.045 4.629-8.632 2.668-2.006 6.308-3.438 10.815-4.263 1.483 6.346 4.824 11.982 9.421 16.303-3.287 3.842-8.305 8.312-13.876 8.312zm0-64.053c5.571 0 10.589 4.47 13.876 8.313-4.595 4.32-7.935 9.953-9.419 16.296-9.818-1.803-15.448-6.493-15.448-12.889-.001-4.79 3.913-11.72 10.991-11.72z"/><path d="m504.5 462.164h-12.322c-.169-12.791-.762-25.468-1.782-37.78-.343-4.128-3.981-7.191-8.094-6.855-4.128.342-7.197 3.966-6.855 8.094.987 11.905 1.569 24.164 1.736 36.541h-38.438c.659-48.243 7.649-93.318 19.217-124.777 5.505 14.993 10.062 33.312 13.35 53.805.656 4.09 4.498 6.875 8.594 6.217 4.09-.656 6.873-4.503 6.217-8.593-4.451-27.744-11.21-51.899-19.544-69.852-1.548-3.337-4.929-5.494-8.611-5.495-.001 0-.002 0-.003 0-3.683 0-7.063 2.155-8.613 5.493-7.684 16.553-13.882 38.085-18.262 62.576-3.086-7.309-6.572-13.943-10.423-19.725-1.768-2.653-4.725-4.236-7.912-4.236s-6.145 1.583-7.912 4.236c-3.903 5.86-7.428 12.598-10.545 20.023-4.586-25.758-11.199-48.192-19.462-65.179v-131.987c6.392-1.797 11.797-5.88 15.145-11.677 1.723-2.984 2.828-6.287 3.314-9.849 3.327 1.36 6.741 2.054 10.187 2.055 9.189 0 17.537-4.958 22.331-13.261s4.913-18.012.32-25.97c-.001 0-.001-.001-.001-.001-1.722-2.982-4.028-5.589-6.869-7.791 7.296-5.694 10.206-13.41 10.206-20.31 0-7.385-2.912-14.25-8.2-19.33-4.889-4.696-11.372-7.39-17.788-7.39-3.445 0-6.858.694-10.186 2.054-.486-3.562-1.592-6.865-3.314-9.849-4.595-7.958-13.063-12.708-22.65-12.708-9.589 0-18.057 4.751-22.65 12.708-1.723 2.984-2.828 6.287-3.314 9.849-3.327-1.36-6.74-2.054-10.186-2.054-6.416 0-12.9 2.693-17.79 7.39-5.288 5.08-8.201 11.945-8.201 19.331 0 9.04 4.225 15.69 10.244 20.275-6.609 5.131-10.242 12.335-10.242 20.336 0 7.386 2.912 14.25 8.201 19.331 4.889 4.696 11.372 7.39 17.788 7.39 3.445 0 6.857-.694 10.186-2.054.486 3.562 1.592 6.864 3.314 9.848 3.348 5.8 8.759 9.885 15.156 11.681v44.437c-11.904-10.526-27.556-15.336-43.489-13.233-3.363.444-6.01 3.091-6.454 6.454-2.253 17.076 3.43 33.846 15.594 46.009 9.254 9.254 21.46 14.81 34.35 15.859v32.447c-7.782 15.997-14.106 36.822-18.647 60.711-2.608-5.668-5.464-10.89-8.565-15.546-1.768-2.653-4.725-4.236-7.912-4.236s-6.145 1.583-7.912 4.236c-3.854 5.787-7.34 12.431-10.428 19.746-4.38-24.498-10.573-46.042-18.258-62.599-1.55-3.336-4.93-5.491-8.612-5.491-.001 0-.002 0-.003 0-3.683.001-7.063 2.158-8.611 5.495l.001-.001c-7.707 16.603-13.919 38.216-18.302 62.799-3.221-7.642-6.882-14.556-10.947-20.558v-26.2c0-4.142-3.358-7.5-7.5-7.5s-7.5 3.358-7.5 7.5v26.206c-3.977 5.871-7.569 12.611-10.739 20.054-2.632-14.656-5.915-28.244-9.78-40.335.14-.133.285-.247.423-.385 4.336-4.336 6.423-10.12 5.876-16.287-.392-4.423-2.111-8.76-5.028-12.753 2.917-3.993 4.636-8.331 5.028-12.753.547-6.167-1.54-11.951-5.875-16.286s-10.12-6.423-16.287-5.876c-4.423.392-8.759 2.111-12.753 5.028-3.993-2.917-8.33-4.636-12.753-5.028-6.174-.545-11.951 1.541-16.287 5.876-8.586 8.586-7.042 20.269-.823 29.004-2.932 4.003-4.66 8.353-5.053 12.788-.547 6.167 1.54 11.951 5.876 16.287s10.119 6.424 16.287 5.876c2.032-.18 4.044-.654 6.015-1.382-3.342 11.111-6.211 23.384-8.56 36.507-3.086-7.311-6.574-13.947-10.426-19.731-1.767-2.653-4.725-4.236-7.912-4.236s-6.145 1.583-7.912 4.236c-3.877 5.822-7.382 12.51-10.484 19.877-1.133-3.503-4.695-5.727-8.426-5.073-4.079.718-6.805 4.607-6.087 8.687 1.693 9.622 3.072 19.745 4.153 30.175-3.106 14.597-4.97 30.405-5.41 46.686h-30.32c.652-48.604 7.617-93.415 19.208-124.804 1.687 4.592 3.289 9.509 4.798 14.727 1.15 3.979 5.308 6.276 9.288 5.121 3.979-1.15 6.272-5.309 5.121-9.288-3.435-11.88-7.37-22.375-11.696-31.269v-32.453c12.89-1.049 25.096-6.604 34.35-15.858 12.163-12.163 17.847-28.933 15.594-46.009-.444-3.364-3.091-6.011-6.455-6.455-15.926-2.102-31.584 2.707-43.489 13.233v-44.44c6.392-1.797 11.798-5.881 15.145-11.677 1.723-2.984 2.828-6.287 3.314-9.849 3.328 1.36 6.741 2.054 10.187 2.055 9.188 0 17.536-4.957 22.331-13.26 4.794-8.304 4.914-18.013.32-25.971-1.722-2.982-4.028-5.589-6.868-7.791 7.295-5.694 10.206-13.41 10.206-20.31 0-7.385-2.912-14.25-8.2-19.33-4.889-4.697-11.373-7.39-17.789-7.39-3.445 0-6.858.694-10.186 2.054-.486-3.562-1.592-6.865-3.314-9.848-4.594-7.958-13.062-12.709-22.65-12.709-9.589 0-18.057 4.751-22.651 12.708-1.723 2.983-2.828 6.287-3.314 9.849-3.328-1.36-6.741-2.054-10.186-2.054-6.416 0-12.9 2.693-17.79 7.39-5.289 5.08-8.202 11.945-8.202 19.331 0 9.04 4.226 15.69 10.245 20.276-6.609 5.13-10.242 12.334-10.242 20.336 0 7.386 2.913 14.25 8.201 19.331 4.889 4.696 11.373 7.39 17.789 7.39 3.445 0 6.858-.694 10.185-2.054.486 3.562 1.592 6.865 3.314 9.848 3.349 5.8 8.759 9.885 15.156 11.68v12.437c-11.905-10.526-27.563-15.336-43.489-13.233-3.364.444-6.011 3.091-6.455 6.455-2.253 17.076 3.431 33.846 15.594 46.009 9.254 9.254 21.459 14.817 34.35 15.866v64.439c-5.784 11.89-10.761 26.448-14.8 42.951-3.774-15.464-8.357-29.235-13.649-40.635-1.549-3.337-4.93-5.493-8.613-5.493s-7.064 2.156-8.613 5.493c-15.391 33.156-24.834 86.259-25.6 143.202h-12.33c-4.142 0-7.5 3.358-7.5 7.5s3.358 7.5 7.5 7.5h497c4.143 0 7.5-3.358 7.5-7.5s-3.357-7.502-7.5-7.502zm-91.681-317.725c-2.083 3.607-5.575 5.761-9.341 5.761-5.569 0-10.585-4.465-13.872-8.307 4.593-4.316 7.933-9.944 9.421-16.281 4.955.926 11.327 3.036 14.11 7.855 1.884 3.262 1.765 7.364-.318 10.972zm-9.341-58.292c7.075 0 10.988 6.93 10.988 11.72 0 6.395-5.625 11.08-15.435 12.885-1.485-6.345-4.828-11.979-9.425-16.299 3.287-3.841 8.303-8.306 13.872-8.306zm-72.301 64.052c-7.076 0-10.989-6.93-10.989-11.72 0-4.257 2.518-7.044 4.63-8.632 2.668-2.006 6.308-3.438 10.814-4.262 1.483 6.346 4.824 11.981 9.42 16.302-3.286 3.842-8.303 8.312-13.875 8.312zm4.456-39.443c-9.817-1.803-15.448-6.493-15.448-12.889 0-4.791 3.914-11.721 10.991-11.721 5.572 0 10.589 4.471 13.875 8.313-4.594 4.321-7.934 9.954-9.418 16.297zm-191.548 33.682c-2.083 3.607-5.575 5.761-9.341 5.761-5.568 0-10.584-4.465-13.871-8.307 4.593-4.316 7.933-9.944 9.421-16.281 4.956.926 11.328 3.036 14.111 7.856 1.882 3.263 1.763 7.364-.32 10.971zm-9.342-58.291c7.076 0 10.989 6.93 10.989 11.72 0 6.395-5.625 11.08-15.435 12.885-1.485-6.344-4.828-11.979-9.425-16.298 3.287-3.842 8.303-8.307 13.871-8.307zm-72.3 64.052c-7.076 0-10.989-6.93-10.989-11.72 0-4.258 2.518-7.045 4.63-8.632 2.668-2.006 6.308-3.438 10.814-4.263 1.483 6.346 4.824 11.981 9.42 16.302-3.287 3.844-8.305 8.313-13.875 8.313zm4.456-39.443c-9.818-1.803-15.448-6.493-15.448-12.889 0-4.791 3.915-11.721 10.992-11.721 5.571 0 10.589 4.47 13.875 8.313-4.594 4.321-7.935 9.954-9.419 16.297zm47.287 131.322c7.38-7.38 17.097-11.477 27.33-11.673-.197 10.233-4.293 19.95-11.673 27.33-6.432 6.431-14.826 10.418-23.744 11.42v-15.438c1.971-4.329 4.687-8.239 8.087-11.639zm-25.253-171.225c1.883-3.262 5.495-5.209 9.661-5.209s7.776 1.947 9.66 5.209c2.781 4.816 1.428 11.382-.253 16.148-2.979-.9-6.134-1.389-9.402-1.389-3.272 0-6.431.49-9.412 1.392-1.682-4.766-3.036-11.334-.254-16.151zm-7.896 47.32c0-9.684 7.878-17.562 17.562-17.562s17.562 7.878 17.562 17.562-7.878 17.562-17.562 17.562-17.562-7.878-17.562-17.562zm7.896 47.32c-2.781-4.817-1.428-11.384.253-16.15 2.982.902 6.14 1.392 9.413 1.392 3.268 0 6.423-.489 9.402-1.389 1.681 4.766 3.033 11.331.252 16.148-1.883 3.262-5.495 5.209-9.66 5.209-4.166 0-7.777-1.948-9.66-5.21zm-21.578 60.241c-7.38-7.38-11.477-17.097-11.673-27.33 10.232.197 19.95 4.294 27.329 11.673 3.4 3.4 6.116 7.311 8.087 11.639v15.437c-8.916-1.001-17.312-4.988-23.743-11.419zm-2.97 236.43h-29.567c.659-48.244 7.651-93.324 19.218-124.784 6.411 17.433 11.412 39.051 14.712 63.07-2.578 19.4-4.079 40.227-4.363 61.714zm90.476 0h-30.161c.922-32.816 7.863-63.245 19.165-84.366 5.715 10.68 10.308 23.744 13.574 38.29-1.488 14.837-2.366 30.307-2.578 46.076zm8.561-130.686c-1.713.15-3.181-.366-4.355-1.541-2.805-2.805-1.789-7.445 2.584-11.819 1.768-1.765 2.742-4.114 2.742-6.612 0-2.499-.973-4.848-2.739-6.613-4.376-4.377-5.393-9.018-2.588-11.822 2.804-2.804 7.444-1.79 11.819 2.584 1.766 1.768 4.115 2.742 6.614 2.742 2.498 0 4.845-.973 6.611-2.739 2.453-2.453 5.105-3.919 7.466-4.129 1.715-.149 3.18.366 4.355 1.542 1.175 1.174 1.693 2.64 1.541 4.355-.209 2.361-1.676 5.013-4.127 7.465-1.767 1.766-2.74 4.115-2.74 6.613 0 2.499.973 4.847 2.74 6.613 2.452 2.453 3.917 5.104 4.127 7.464.152 1.715-.366 3.181-1.541 4.355-2.806 2.804-7.445 1.789-11.82-2.586-1.766-1.767-4.115-2.74-6.613-2.74-2.499 0-4.847.973-6.611 2.739-2.451 2.453-5.103 3.919-7.465 4.129zm36.548 130.686h-30.113c.603-44.194 6.526-85.711 16.407-116.555 1.943.55 3.925.86 5.906.887 6.089 19.283 10.644 42.656 13.342 68.201-3.192 14.772-5.099 30.832-5.542 47.467zm45.315 0h-30.316c.913-33.044 7.835-63.319 19.167-84.398 5.789 10.77 10.419 23.949 13.689 38.665-1.466 14.732-2.33 30.087-2.54 45.733zm45.259 0h-30.264c.658-48.245 7.651-93.325 19.219-124.784 7.704 20.952 13.376 47.947 16.501 77.892-3.134 14.655-5.014 30.534-5.456 46.892zm42.575 0h-27.574c.922-32.816 7.862-63.244 19.164-84.366 4.726 8.832 8.677 19.304 11.752 30.888-1.956 17.013-3.098 35.003-3.342 53.478zm24.548-391.312c1.883-3.261 5.494-5.208 9.66-5.208 4.165 0 7.776 1.947 9.66 5.209 2.781 4.815 1.428 11.381-.253 16.148-2.978-.9-6.133-1.389-9.401-1.389-3.272 0-6.431.49-9.412 1.392-1.681-4.766-3.036-11.334-.254-16.152zm-7.896 47.321c0-9.684 7.879-17.562 17.563-17.562s17.562 7.878 17.562 17.562-7.878 17.562-17.562 17.562-17.563-7.878-17.563-17.562zm7.896 47.32c-2.781-4.817-1.428-11.384.253-16.15 2.982.902 6.14 1.392 9.413 1.392 3.268 0 6.423-.489 9.401-1.389 1.681 4.766 3.034 11.332.253 16.147-1.884 3.262-5.495 5.21-9.66 5.21-4.166 0-7.777-1.948-9.66-5.21zm-21.577 92.241c-7.381-7.38-11.478-17.097-11.674-27.33 10.232.197 19.95 4.294 27.33 11.674 3.398 3.398 6.114 7.309 8.087 11.639v15.437c-8.917-1.002-17.312-4.989-23.743-11.42zm42.497 204.43h-30.473c.652-48.622 7.622-93.445 19.22-124.836 7.789 21.081 13.484 48.226 16.586 78.506-3.062 14.497-4.897 30.181-5.333 46.33zm45.163 0h-30.162c.922-32.817 7.862-63.245 19.164-84.366 5.714 10.677 10.306 23.738 13.572 38.282-1.486 14.839-2.362 30.314-2.574 46.084z"/><path d="m406.344 200.481c-4.337 4.335-6.424 10.12-5.877 16.287.393 4.423 2.111 8.759 5.028 12.753-2.917 3.994-4.636 8.331-5.028 12.753-.547 6.167 1.54 11.951 5.876 16.287 4.337 4.336 10.128 6.42 16.286 5.876 4.437-.394 8.785-2.121 12.788-5.053 4.474 3.185 9.72 5.144 14.928 5.144 4.962 0 9.889-1.778 14.078-5.966 8.598-8.599 7.037-20.302.797-29.04 6.24-8.738 7.801-20.441-.798-29.04-8.587-8.585-20.271-7.042-29.005-.822-4.002-2.932-8.352-4.66-12.788-5.053-6.157-.549-11.951 1.539-16.285 5.874zm29.039 15.934c2.498 0 4.847-.974 6.61-2.739 4.377-4.377 9.018-5.393 11.822-2.588s1.789 7.445-2.586 11.82c-1.767 1.766-2.74 4.115-2.74 6.613 0 2.499.974 4.847 2.74 6.613 4.376 4.376 5.391 9.016 2.587 11.82-2.806 2.803-7.446 1.789-11.822-2.587-1.823-1.823-4.218-2.734-6.611-2.734-2.395 0-4.789.912-6.612 2.734-2.453 2.453-5.104 3.919-7.466 4.129-1.711.15-3.18-.366-4.355-1.542-1.175-1.174-1.693-2.64-1.541-4.355.209-2.362 1.676-5.013 4.128-7.465 1.767-1.766 2.74-4.115 2.74-6.613s-.974-4.847-2.739-6.611c-2.453-2.454-3.92-5.105-4.129-7.466-.152-1.715.366-3.181 1.542-4.355 1.175-1.175 2.645-1.694 4.354-1.541 2.361.209 5.013 1.675 7.466 4.129 1.766 1.766 4.115 2.739 6.612 2.738z"/><path d="m207.343 98.882c4.189 4.189 9.115 5.967 14.076 5.967 5.208 0 10.456-1.959 14.929-5.144 4.003 2.932 8.352 4.66 12.788 5.053 6.166.546 11.95-1.54 16.287-5.876 8.598-8.599 7.037-20.302.797-29.04 6.24-8.738 7.801-20.441-.797-29.04-4.336-4.335-10.122-6.422-16.287-5.876-4.436.393-8.785 2.121-12.788 5.053-8.736-6.22-20.418-7.764-29.006.823-8.597 8.598-7.038 20.299-.797 29.039-6.24 8.739-7.8 20.443.798 29.041zm13.194-35.651c-4.376-4.376-5.392-9.017-2.588-11.822 1.042-1.042 2.311-1.567 3.781-1.567.188 0 .38.009.574.026 2.362.209 5.014 1.676 7.465 4.127 1.766 1.767 4.115 2.74 6.613 2.74s4.847-.973 6.611-2.739c2.453-2.453 5.105-3.919 7.467-4.129 1.717-.151 3.181.367 4.355 1.541 2.804 2.805 1.789 7.445-2.584 11.818-1.769 1.767-2.743 4.116-2.743 6.615s.974 4.848 2.743 6.614c4.374 4.376 5.388 9.015 2.584 11.819-1.175 1.175-2.638 1.691-4.355 1.541-2.362-.209-5.014-1.676-7.465-4.127-1.766-1.767-4.115-2.74-6.613-2.74-2.499 0-4.847.973-6.611 2.739-2.453 2.453-5.105 3.919-7.467 4.129-1.715.15-3.181-.367-4.355-1.541-2.805-2.805-1.789-7.445 2.585-11.82 1.768-1.766 2.741-4.115 2.741-6.613.001-2.498-.972-4.846-2.738-6.611z"/></g></g></svg>