<?xml version="1.0" encoding="iso-8859-1"?>
<!-- Generator: Adobe Illustrator 19.0.0, SVG Export Plug-In . SVG Version: 6.00 Build 0)  -->
<svg version="1.1" id="Capa_1" xmlns="http://www.w3.org/2000/svg" xmlns:xlink="http://www.w3.org/1999/xlink" x="0px" y="0px"
	 viewBox="0 0 480 480" style="enable-background:new 0 0 480 480;fill: #fff" xml:space="preserve">
<g>
	<g>
		<path d="M160,272c-35.346,0-64,28.654-64,64c0,35.346,28.654,64,64,64c35.346,0,64-28.654,64-64
			C223.96,300.67,195.33,272.04,160,272z M160,384c-26.51,0-48-21.49-48-48c0-26.51,21.49-48,48-48c26.51,0,48,21.49,48,48
			C207.974,362.499,186.499,383.974,160,384z"/>
	</g>
</g>
<g>
	<g>
		<path d="M296,304h-37.144c-1.693-5.255-3.806-10.365-6.32-15.28l26.264-26.256c3.123-3.124,3.123-8.188,0-11.312l-33.952-33.944
			c-3.124-3.123-8.188-3.123-11.312,0l-26.256,26.256c-4.916-2.512-10.026-4.625-15.28-6.32V200c0-4.418-3.582-8-8-8h-48
			c-4.418,0-8,3.582-8,8v37.144c-5.254,1.695-10.364,3.808-15.28,6.32l-26.256-26.256c-3.124-3.123-8.188-3.123-11.312,0
			L41.2,251.152c-3.123,3.124-3.123,8.188,0,11.312l26.264,26.256c-2.514,4.915-4.627,10.025-6.32,15.28H24c-4.418,0-8,3.582-8,8v48
			c0,4.418,3.582,8,8,8h37.144c1.693,5.255,3.806,10.365,6.32,15.28L41.2,409.536c-3.123,3.124-3.123,8.188,0,11.312l33.952,33.944
			c3.124,3.123,8.188,3.123,11.312,0l26.256-26.256c4.916,2.512,10.026,4.625,15.28,6.32V472c0,4.418,3.582,8,8,8h48
			c4.418,0,8-3.582,8-8v-37.144c5.254-1.695,10.364-3.808,15.28-6.32l26.256,26.256c3.124,3.123,8.188,3.123,11.312,0l33.952-33.944
			c3.123-3.124,3.123-8.188,0-11.312l-26.264-26.256c2.514-4.915,4.627-10.025,6.32-15.28H296c4.418,0,8-3.582,8-8v-48
			C304,307.582,300.418,304,296,304z M288,352h-35.152c-3.647,0.001-6.832,2.469-7.744,6c-2.044,7.943-5.195,15.559-9.36,22.624
			c-1.853,3.142-1.347,7.14,1.232,9.72l24.856,24.856L239.2,437.824l-24.848-24.848c-2.581-2.583-6.584-3.09-9.728-1.232
			c-7.062,4.166-14.675,7.317-22.616,9.36c-3.531,0.912-5.999,4.097-6,7.744V464H144v-35.152c-0.001-3.647-2.469-6.832-6-7.744
			c-7.941-2.043-15.554-5.194-22.616-9.36c-3.144-1.858-7.147-1.351-9.728,1.232L80.8,437.824L58.168,415.2l24.856-24.848
			c2.579-2.58,3.086-6.578,1.232-9.72c-4.165-7.065-7.316-14.681-9.36-22.624c-0.912-3.531-4.097-5.999-7.744-6H32V320h35.152
			c3.647-0.001,6.832-2.469,7.744-6c2.044-7.943,5.195-15.559,9.36-22.624c1.854-3.142,1.347-7.14-1.232-9.72L58.168,256.8
			l22.64-22.632l24.848,24.848c2.581,2.583,6.584,3.09,9.728,1.232c7.062-4.166,14.675-7.317,22.616-9.36
			c3.531-0.912,5.999-4.097,6-7.744V208h32v35.152c0.001,3.647,2.469,6.832,6,7.744c7.941,2.043,15.554,5.194,22.616,9.36
			c3.144,1.858,7.146,1.351,9.728-1.232l24.856-24.848l22.64,22.632l-24.856,24.848c-2.579,2.58-3.085,6.578-1.232,9.72
			c4.165,7.065,7.316,14.681,9.36,22.624c0.912,3.531,4.097,5.999,7.744,6H288V352z"/>
	</g>
</g>
<g>
	<g>
		<path d="M392,136h-25.52C364.616,89.6,346.4,14.768,288,8.472V8c0-4.418-3.582-8-8-8h-48c-4.418,0-8,3.582-8,8v0.472
			C165.6,14.768,147.384,89.6,145.52,136H120c-4.418,0-8,3.582-8,8v32c0,4.418,3.582,8,8,8h272c4.418,0,8-3.582,8-8v-32
			C400,139.582,396.418,136,392,136z M384,168H128v-16h64v-16h-30.464C163.2,95.456,177.888,31.304,224,24.616V96h16V16h32v80h16
			V24.616c46.112,6.688,60.8,70.84,62.464,111.384H208v16h176V168z"/>
	</g>
</g>
<g>
	<g>
		<path d="M456,248h-14.056l9.936-9.944c3.123-3.124,3.123-8.188,0-11.312l-22.624-22.624c-3.124-3.123-8.188-3.123-11.312,0
			L408,214.056V200c0-4.418-3.582-8-8-8h-32c-4.418,0-8,3.582-8,8v14.056l-9.944-9.936c-3.124-3.123-8.188-3.123-11.312,0
			l-22.624,22.624c-3.123,3.124-3.123,8.188,0,11.312l9.936,9.944H312c-4.418,0-8,3.582-8,8v32c0,4.418,3.582,8,8,8h14.056
			l-9.936,9.944c-3.123,3.124-3.123,8.188,0,11.312l22.624,22.624c3.124,3.123,8.188,3.123,11.312,0l9.944-9.944V344
			c0,4.418,3.582,8,8,8h32c4.418,0,8-3.582,8-8v-14.064l9.944,9.944c3.174,3.001,8.138,3.001,11.312,0l22.624-22.624
			c3.123-3.124,3.123-8.188,0-11.312L441.944,296H456c4.418,0,8-3.582,8-8v-32C464,251.582,460.418,248,456,248z M448,280h-18.792
			c-3.375,0-6.387,2.119-7.528,5.296c-0.468,1.33-1.002,2.635-1.6,3.912c-1.451,3.067-0.81,6.716,1.6,9.104l13.288,13.288
			L423.6,322.912L410.312,309.6c-2.385-2.403-6.025-3.044-9.088-1.6c-1.267,0.6-2.565,1.134-3.888,1.6
			c-3.198,1.129-5.336,4.153-5.336,7.544V336h-16v-18.792c0-3.392-2.138-6.415-5.336-7.544c-1.323-0.466-2.621-1-3.888-1.6
			c-3.063-1.444-6.702-0.803-9.088,1.6L344.4,322.912L333.088,311.6l13.312-13.288c2.41-2.388,3.051-6.037,1.6-9.104
			c-0.598-1.276-1.132-2.582-1.6-3.912c-1.151-3.204-4.203-5.33-7.608-5.296H320v-16h18.792c3.375,0,6.387-2.119,7.528-5.296
			c0.468-1.33,1.002-2.635,1.6-3.912c1.451-3.067,0.81-6.716-1.6-9.104L333.088,232.4l11.312-11.312l13.296,13.312
			c2.388,2.41,6.037,3.051,9.104,1.6c1.257-0.605,2.547-1.139,3.864-1.6c3.22-1.137,5.363-4.193,5.336-7.608V208h16v18.792
			c0,3.392,2.138,6.415,5.336,7.544c1.317,0.461,2.607,0.995,3.864,1.6c3.067,1.451,6.716,0.81,9.104-1.6l13.296-13.288
			l11.312,11.312L421.6,245.688c-2.41,2.388-3.051,6.037-1.6,9.104c0.598,1.276,1.132,2.582,1.6,3.912
			c1.141,3.177,4.153,5.295,7.528,5.296H448V280z"/>
	</g>
</g>
<g>
	<g>
		<path d="M384,240c-17.673,0-32,14.327-32,32c0,17.673,14.327,32,32,32c17.673,0,32-14.327,32-32C416,254.327,401.673,240,384,240z
			 M384,288c-8.837,0-16-7.163-16-16s7.163-16,16-16s16,7.163,16,16S392.837,288,384,288z"/>
	</g>
</g>
<g>
</g>
<g>
</g>
<g>
</g>
<g>
</g>
<g>
</g>
<g>
</g>
<g>
</g>
<g>
</g>
<g>
</g>
<g>
</g>
<g>
</g>
<g>
</g>
<g>
</g>
<g>
</g>
<g>
</g>
</svg>
