<?xml version="1.0"?>
<svg xmlns="http://www.w3.org/2000/svg" viewBox="0 0 512 512" width="512" height="512" style="fill: #fff;">
	<g id="Out_line" data-name="Out line">
		<path d="M482.34326,407.0293,400.9707,325.65723A46.31748,46.31748,0,0,0,368,312a47.05647,47.05647,0,0,0-9.48053.96533A153.88067,153.88067,0,0,1,328,221.18555,232.96948,232.96948,0,0,0,259.76416,56.4502,137.20426,137.20426,0,0,0,162.10742,16C85.95459,16,24,77.95508,24,154.10742a138.03362,138.03362,0,0,0,34.37207,91.17383l12.01758-10.5625A122.10787,122.10787,0,0,1,248.45117,67.76465,216.96607,216.96607,0,0,1,312,221.18555a82.62259,82.62259,0,0,1-51.06885,76.51465,7.99952,7.99952,0,0,0-3.6997,11.65234l8,12.69726a7.99883,7.99883,0,0,0,4.64453,3.44825,152.33546,152.33546,0,0,1,51.0896,25.02148,46.83006,46.83006,0,0,0,.04516,19.1377l15.65332-3.31446a30.62615,30.62615,0,0,1,8.30615-27.999l1.37354-1.374a30.618,30.618,0,0,1,42.42322-.84668,46.27044,46.27044,0,0,0-29.73718,13.5332l-1.373,1.373a46.479,46.479,0,0,0-9.46875,13.65722l14.56347,6.627a30.50746,30.50746,0,0,1,6.21875-8.96973l1.37354-1.374a30.62732,30.62732,0,0,1,43.30219-.00977l7.16033,7.16016a46.272,46.272,0,0,0-29.77648,13.53613l-1.37208,1.37207a46.77114,46.77114,0,0,0-4.00146,4.55957l12.68652,9.75a30.67587,30.67587,0,0,1,2.62744-2.99414l1.37354-1.374a30.61859,30.61859,0,0,1,42.42371-.84668,46.26642,46.26642,0,0,0-29.73767,13.5332l-1.37354,1.374a46.62744,46.62744,0,0,0,.00049,65.94043l1.37256,1.37207a46.62743,46.62743,0,0,0,65.94091.001l1.37354-1.374a46.62744,46.62744,0,0,0-.00049-65.94043Zm-147.31347-81.373-1.37354,1.374a46.97883,46.97883,0,0,0-6.52661,8.18457,168.08468,168.08468,0,0,0-49.99243-24.2832l-1.55616-2.46973a98.50386,98.50386,0,0,0,42.22571-43.47168,169.99332,169.99332,0,0,0,25.40949,54.1377A46.96062,46.96062,0,0,0,335.02979,325.65625Zm136,136-1.37354,1.374a30.62739,30.62739,0,0,1-43.313-.001l-1.37256-1.37207a30.6274,30.6274,0,0,1-.00049-43.31348l1.37354-1.374a30.62739,30.62739,0,0,1,43.313.001l1.373,1.373H471.03a30.6271,30.6271,0,0,1-.00024,43.3125Z" />
		<path d="M85.65674,205.65723,96,195.314,108.686,208,90.34326,226.34277l11.31348,11.31446L120,219.314l10.34326,10.34327,11.31348-11.31446L131.314,208,144,195.314,156.686,208l-10.34278,10.34277,11.31348,11.31446L168,219.314,180.686,232l-2.34278,2.34277,11.31348,11.31446L192,243.314l10.34326,10.34327,11.31348-11.31446L203.314,232,216,219.314,228.686,232l-10.34278,10.34277,11.31348,11.31446L240,243.314l26.34326,26.34327,11.31348-11.31446L251.314,232,264,219.314l18.34326,18.34327,11.31348-11.31446L275.314,208l10.34278-10.34277-11.31348-11.31446L264,196.686,251.314,184,264,171.314l10.34326,10.34327,11.31348-11.31446L275.314,160l10.34278-10.34277-11.31348-11.31446L264,148.686,251.314,136l10.34278-10.34277-11.31348-11.31446L240,124.686,227.314,112l18.34278-18.34277L234.34326,82.34277,216,100.686,203.314,88l10.34278-10.34277L202.34326,66.34277,192,76.686,179.314,64l10.34278-10.34277L178.34326,42.34277,168,52.686,157.65674,42.34277,146.34326,53.65723,156.686,64,144,76.686,125.65674,58.34277,114.34326,69.65723,132.686,88,120,100.686,101.65674,82.34277,90.34326,93.65723,108.686,112,96,124.686,77.65674,106.34277,66.34326,117.65723,84.686,136,72,148.686,61.65674,138.34277,50.34326,149.65723,60.686,160,50.34326,170.34277l11.31348,11.31446L72,171.314,84.686,184,74.34326,194.34277ZM120,196.686,107.314,184,120,171.314,132.686,184Zm72-24L179.314,160,192,147.314,204.686,160Zm24-1.37208L228.686,184,216,196.686,203.314,184ZM168,148.686,155.314,136,168,123.314,180.686,136ZM156.686,160,144,172.686,131.314,160,144,147.314ZM155.314,184,168,171.314,180.686,184,168,196.686ZM192,220.686,179.314,208,192,195.314,204.686,208ZM252.686,208,240,220.686,227.314,208,240,195.314Zm0-48L240,172.686,227.314,160,240,147.314Zm-24-24L216,148.686,203.314,136,216,123.314Zm-24-24L192,124.686,179.314,112,192,99.314ZM168,75.314,180.686,88,168,100.686,155.314,88Zm-24,24L156.686,112,144,124.686,131.314,112Zm-24,24L132.686,136,120,148.686,107.314,136ZM83.314,160,96,147.314,108.686,160,96,172.686Z" />
		<path d="M159.46826,336.76562a66.98789,66.98789,0,0,1,54.73242-7.35351l20.6258,6.18945A103.59005,103.59005,0,0,1,240,368h16a119.97469,119.97469,0,1,0-51.42285,98.48633l-9.15332-13.12305a103.28369,103.28369,0,0,1-32.80506,15.19385l-11.277-12.8833A94.35982,94.35982,0,0,1,128,393.54a66.59371,66.59371,0,0,1,8.17462-32.021,210.29261,210.29261,0,0,1,37.73505,18.605l29.852,18.66016,8.48047-13.56836-29.853-18.66016a226.29469,226.29469,0,0,0-36.60437-18.46533A66.38255,66.38255,0,0,1,159.46826,336.76562Zm66.75629-20.4497-7.42377-2.228a82.98564,82.98564,0,0,0-67.80859,9.10742,82.0037,82.0037,0,0,0-21.31708,19.20362c-6.92255-2.14795-13.97961-3.96338-21.11115-5.44A187.37924,187.37924,0,0,1,176.7702,272.3291,104.66255,104.66255,0,0,1,226.22455,316.31592Zm-69.97614-50.33057a203.42417,203.42417,0,0,0-64.67529,68.11719c-7.05914-.91016-14.18323-1.481-21.30585-1.71973a260.13965,260.13965,0,0,0,9.60883-51.90332,103.91965,103.91965,0,0,1,76.37231-14.49414ZM32,368a104.23313,104.23313,0,0,1,1.516-17.71582q7.08408-.99243,14.24768-1.51025a244.39023,244.39023,0,0,1-15.045,31.42041A104.5884,104.5884,0,0,1,32,368Zm30.13818-73.13867A244.078,244.078,0,0,1,53.53284,332.438c-5.23371.21142-10.47132.59863-15.68244,1.17334A104.20758,104.20758,0,0,1,62.13818,294.86133ZM37.85889,402.4126a260.37509,260.37509,0,0,0,27.20141-54.146c6.16291.06885,12.33435.4126,18.47156,1.02393a202.6865,202.6865,0,0,0-19.8161,93.40576A104.25056,104.25056,0,0,1,37.85889,402.4126ZM139.30029,466.21l4.79529,5.47852q-4.023.30834-8.09558.31152a103.374,103.374,0,0,1-55.40961-16.0293,187.04053,187.04053,0,0,1,19.63526-104.3374,210.37516,210.37516,0,0,1,20.55224,4.80274A82.54481,82.54481,0,0,0,112,393.54,110.35933,110.35933,0,0,0,139.30029,466.21Z" />
		<path d="M328,384a55.63822,55.63822,0,0,0-27.96924,7.51611,56.00188,56.00188,0,1,0-.00311,96.96582A55.98849,55.98849,0,1,0,328,384Zm39.8396,52.52588-2.18237-2.18213a30.62563,30.62563,0,0,0-43.31446,0,14.62614,14.62614,0,0,1-20.686-.001l-10.318-10.31787a39.98762,39.98762,0,0,1,76.50085,12.501ZM272,400a39.94315,39.94315,0,0,1,14.32355,2.645,55.86278,55.86278,0,0,0-13.28192,26.63135,30.54015,30.54015,0,0,0-6.69886,5.06738,14.62614,14.62614,0,0,1-20.686-.001l-10.318-10.31787A40.05215,40.05215,0,0,1,272,400Zm-39.8396,43.47412,2.18237,2.18213a30.64162,30.64162,0,0,0,38.49591,3.93457,55.84169,55.84169,0,0,0,13.48688,27.7666,40.01692,40.01692,0,0,1-54.16516-33.8833ZM328,480a40.04735,40.04735,0,0,1-39.8396-36.52588l2.18237,2.18213a30.62563,30.62563,0,0,0,43.31446,0,14.62614,14.62614,0,0,1,20.686.001l10.318,10.31787A40.05215,40.05215,0,0,1,328,480Z" />
	</g>
</svg>
