<svg id="Capa_1" enable-background="new 0 0 605.619 605.619" viewBox="0 0 605.619 605.619" xmlns="http://www.w3.org/2000/svg" style="fill: #fff;">
	<g>
		<g clip-rule="evenodd" fill-rule="evenodd">
			<path d="m188.314 210.976c31.263 3.882 65.86 14.108 103.09 33.966 44.045 23.498 82.416 36.401 115.917 41.578 5.215.803 10.104-2.78 10.908-7.994s-2.773-10.104-7.988-10.908c-31.76-4.909-68.079-17.276-109.835-39.55-39.621-21.133-76.468-31.939-109.733-36.07-5.24-.65-10.021 3.073-10.672 8.313-.65 5.233 3.073 10.014 8.313 10.665zm353.214 48.405c25.863-17.283 46.027-40.048 62.277-62.475 3.092-4.271 2.136-10.257-2.136-13.349-4.271-3.098-10.257-2.142-13.356 2.129-15.007 20.712-33.533 41.833-57.413 57.796-4.386 2.932-5.565 8.88-2.633 13.266 2.933 4.386 8.875 5.572 13.261 2.633zm-525.619-2.346s42.132-37.179 112.06-46.066c5.24-.663 8.95-5.451 8.281-10.691-.663-5.234-5.451-8.944-10.691-8.281-76.449 9.716-122.349 50.739-122.349 50.739-3.946 3.506-4.303 9.556-.797 13.502 3.5 3.946 9.55 4.303 13.496.797z" />
			<path d="m330.987 366.079c74.849 31.665 131.503 30.434 175.147 13.815 43.758-16.671 74.645-49.056 97.671-80.835 3.092-4.271 2.136-10.257-2.136-13.356-4.271-3.092-10.257-2.136-13.356 2.136-21.038 29.045-49.005 58.95-88.989 74.18-40.105 15.275-92.1 15.549-160.886-13.553-4.864-2.059-10.481.217-12.533 5.081-2.058 4.857.218 10.473 5.082 12.532zm-315.078-6.891s21.318-18.794 58.733-32.844c4.941-1.855 7.44-7.376 5.585-12.316-1.855-4.941-7.369-7.446-12.31-5.591-41.298 15.51-64.707 36.452-64.707 36.452-3.946 3.506-4.303 9.55-.797 13.496 3.5 3.946 9.55 4.303 13.496.803zm173.872-45.874c21.662 2.818 44.912 8.683 69.513 18.691 4.89 1.989 10.474-.37 12.463-5.259 1.989-4.89-.37-10.468-5.259-12.457-26.278-10.685-51.115-16.932-74.243-19.941-5.234-.682-10.041 3.015-10.716 8.249-.683 5.234 3.014 10.034 8.242 10.717z" />
			<path d="m294.069 450.657c86.961 45.785 151.846 50.158 201.055 35.158 49.661-15.141 83.767-50.216 108.681-84.603 3.092-4.278 2.136-10.257-2.136-13.356-4.271-3.098-10.257-2.142-13.356 2.136-22.708 31.346-53.493 63.724-98.768 77.526-45.715 13.936-105.787 8.746-186.571-33.781-4.666-2.461-10.455-.663-12.916 4.003-2.453 4.674-.662 10.462 4.011 12.917zm-278.16 10.678s67.62-59.695 173.872-45.868c5.234.682 10.041-3.015 10.716-8.249.682-5.234-3.009-10.034-8.243-10.716-115.63-15.052-189.044 50.534-189.044 50.534-3.946 3.506-4.303 9.556-.797 13.502 3.5 3.946 9.55 4.303 13.496.797z" />
			<path d="m308.088 302.769 21.847 21.847c3.736 3.736 9.792 3.736 13.521 0 3.736-3.729 3.736-9.792 0-13.521l-27.291-27.291c-4.558-4.558-11.411-5.922-17.365-3.455s-9.837 8.275-9.837 14.726v158.744c0 5.272 4.284 9.562 9.562 9.562 5.279 0 9.562-4.29 9.562-9.562z" />
			<path d="m545.78 121.936 21.847 21.847c3.736 3.729 9.792 3.729 13.521 0 3.736-3.729 3.736-9.792 0-13.521l-27.291-27.291c-4.558-4.558-11.411-5.922-17.366-3.455-5.954 2.467-9.837 8.275-9.837 14.726v158.744c0 5.272 4.284 9.562 9.562 9.562s9.562-4.29 9.562-9.562z" />
			<path d="m168.711 136.057 21.847 21.847c3.736 3.736 9.792 3.736 13.528 0 3.729-3.729 3.729-9.786 0-13.521l-27.291-27.291c-4.558-4.558-11.418-5.922-17.372-3.455s-9.837 8.281-9.837 14.726v158.744c0 5.279 4.284 9.562 9.562 9.562s9.562-4.284 9.562-9.562c.001-.001.001-151.05.001-151.05z" />
			<path d="m308.088 409.882c0-5.285-4.284-9.562-9.562-9.562h-44.064c-14.153 0-27.731 5.623-37.74 15.632s-15.632 23.587-15.632 37.74v24.939c0 15.842 12.846 28.681 28.688 28.688h24.933c14.159 0 27.731-5.629 37.74-15.638 10.015-10.009 15.638-23.581 15.638-37.74-.001-22.008-.001-44.059-.001-44.059zm-19.125 9.563v34.495c0 9.084-3.608 17.793-10.034 24.219-6.42 6.42-15.134 10.034-24.219 10.034h-24.933c-5.285-.006-9.562-4.284-9.562-9.562 0-.006 0-24.939 0-24.939 0-9.084 3.608-17.793 10.028-24.219 6.426-6.42 15.134-10.028 24.219-10.028z" />
			<path d="m545.78 229.049c0-5.285-4.284-9.562-9.562-9.562h-44.064c-14.152 0-27.731 5.623-37.74 15.632s-15.632 23.588-15.632 37.74v24.933c0 15.848 12.846 28.688 28.688 28.688h24.933c14.159 0 27.731-5.623 37.74-15.632 10.015-10.009 15.638-23.587 15.638-37.74-.001-22.008-.001-44.059-.001-44.059zm-19.125 9.562v34.495c0 9.084-3.608 17.793-10.034 24.219-6.42 6.42-15.134 10.028-24.219 10.028h-24.933c-5.285 0-9.562-4.278-9.562-9.562v-24.933c0-9.084 3.608-17.793 10.028-24.219 6.426-6.42 15.141-10.028 24.219-10.028z" />
			<path d="m168.711 243.169c0-5.278-4.284-9.562-9.562-9.562h-44.058c-14.159 0-27.731 5.623-37.746 15.632-10.009 10.009-15.631 23.588-15.631 37.74v24.939c0 15.842 12.846 28.688 28.687 28.688h24.933c14.159 0 27.738-5.623 37.746-15.632 10.009-10.015 15.632-23.587 15.632-37.746-.001-22.007-.001-44.059-.001-44.059zm-19.125 9.563v34.495c0 9.084-3.608 17.799-10.034 24.219-6.42 6.426-15.134 10.034-24.219 10.034h-24.932c-5.279 0-9.562-4.284-9.562-9.562v-24.939c0-9.078 3.608-17.793 10.034-24.212 6.42-6.426 15.134-10.034 24.219-10.034h34.494z" />
		</g>
	</g>
	<g />
	<g />
	<g />
	<g />
	<g />
	<g />
	<g />
	<g />
	<g />
	<g />
	<g />
	<g />
	<g />
	<g />
	<g />
</svg>
