<?xml version="1.0"?>
<svg xmlns="http://www.w3.org/2000/svg" id="Outline" viewBox="0 0 512 512" width="512" height="512" style="fill: #fff">    <path d="M175.91,240c35.29,0,64-23.327,64-52a8,8,0,0,0-16,0c0,17.806-17.329,32.625-40,35.49V198.1a18.079,18.079,0,0,0,2.428-1.459l13.577-9.689h0a19.373,19.373,0,0,0,7.994-15.794c0-10.562-8.264-19.155-18.422-19.155H162.332c-10.158,0-18.422,8.593-18.422,19.155a19.373,19.373,0,0,0,7.994,15.794l13.577,9.689a17.986,17.986,0,0,0,2.429,1.459V223.49c-22.671-2.865-40-17.684-40-35.49a8,8,0,0,0-16,0C111.91,216.673,140.62,240,175.91,240ZM161.2,173.926a3.407,3.407,0,0,1-1.288-2.771c0-1.71,1.11-3.155,2.422-3.155h27.156c1.313,0,2.422,1.445,2.422,3.155a3.408,3.408,0,0,1-1.289,2.771l-13.577,9.688a1.859,1.859,0,0,1-2.269,0Z"/><circle cx="223.91" cy="144" r="8"/><circle cx="127.91" cy="144" r="8"/><path d="M384,312a32,32,0,1,0-32-32A32.036,32.036,0,0,0,384,312Zm0-48a16,16,0,1,1-16,16A16.019,16.019,0,0,1,384,264Z"/><path d="M496,328H448V224a7.957,7.957,0,0,0-1.45-4.585l0,0-56-80a8,8,0,0,0-13.108,0l-56,80,0,0A7.957,7.957,0,0,0,320,224v50.063c-10.955-14.728-25.571-26.948-43.618-36.374C294.2,216.745,303.91,189.531,303.91,160a126.381,126.381,0,0,0-5.867-38.468,56,56,0,1,0-76.12-74.785A152.28,152.28,0,0,0,175.91,40,152.242,152.242,0,0,0,129.9,46.748a56,56,0,1,0-76.121,74.784A126.381,126.381,0,0,0,47.91,160c0,29.531,9.714,56.746,27.529,77.689-38.948,20.342-61.912,53.705-66.623,97.139-.01.1-.02.2-.027.3L8.02,346.11a7.69,7.69,0,0,0,0,1.084,48.1,48.1,0,0,0,31.946,42.068A78.657,78.657,0,0,0,32,424c0,39.7,28.71,72,64,72,19,0,36.083-9.372,47.815-24.212a67.177,67.177,0,0,0,64.37,0C219.917,486.628,237,496,256,496c25.076,0,46.817-16.316,57.309-40H496a8,8,0,0,0,8-8V336A8,8,0,0,0,496,328ZM384,157.95,424.635,216h-81.27ZM336,232h96v96H342.083A130.231,130.231,0,0,0,336,304ZM312.007,389.206A48.3,48.3,0,0,0,331.641,376H344v32H318.387A77.169,77.169,0,0,0,312.007,389.206Zm15.073-52.8.72,10.253A32.064,32.064,0,0,1,303,375.2c-10.029-12.215-23.76-20.512-39.169-22.638-1.457-32.539-12.425-62.563-30.345-83.583a116.946,116.946,0,0,0,31.047-19.324C301.178,267.209,322.77,297.092,327.08,336.4ZM271.91,32a40,40,0,0,1,20.18,74.544,111.67,111.67,0,0,0-22.4-31.444,115.713,115.713,0,0,0-32.737-22.546A40.089,40.089,0,0,1,271.91,32Zm-232,40a40,40,0,0,1,74.961-19.446A115.682,115.682,0,0,0,82.134,75.1a111.642,111.642,0,0,0-22.4,31.443A40.09,40.09,0,0,1,39.91,72ZM93.353,86.508C113.649,66.55,142.2,56,175.91,56s62.261,10.55,82.558,30.509c18.986,18.67,29.442,44.769,29.442,73.491s-10.456,54.821-29.442,73.491C238.171,253.45,209.623,264,175.91,264s-62.261-10.55-82.557-30.508C74.366,214.821,63.91,188.722,63.91,160S74.366,105.179,93.353,86.508ZM24.021,346.657l.718-10.254c4.311-39.312,25.9-69.195,62.547-86.751a116.968,116.968,0,0,0,31.195,19.386c-17.867,21.026-28.847,51.138-30.312,83.52C72.746,354.686,59,363,48.971,375.23A32.063,32.063,0,0,1,24.021,346.657ZM96,480c-26.468,0-48-25.121-48-56s21.532-56,48-56,48,25.121,48,56S122.468,480,96,480Zm80-16a51.7,51.7,0,0,1-23.68-5.83A78.736,78.736,0,0,0,160,424c0-36.578-24.377-66.851-55.812-71.39,1.538-31.2,12.747-59.72,30.746-77.876A154.918,154.918,0,0,0,175.91,280a154.862,154.862,0,0,0,41.111-5.3c18.056,18.151,29.265,46.558,30.794,77.912C216.379,357.147,192,387.42,192,424a78.736,78.736,0,0,0,7.68,34.17A51.7,51.7,0,0,1,176,464Zm80,16c-26.468,0-48-25.121-48-56s21.532-56,48-56,48,25.121,48,56S282.468,480,256,480Zm64-56h32a8,8,0,0,0,8-8V368a8,8,0,0,0-8-8H341.157a47.615,47.615,0,0,0,2.646-12.806,8,8,0,0,0,0-1.084l-.148-2.11H376v96H318.387A80.464,80.464,0,0,0,320,424Zm168,16H392V344h96Z"/><path d="M416,424h48a8,8,0,0,0,7.155-11.578l-24-48a8,8,0,0,0-14.31,0l-24,48A8,8,0,0,0,416,424Zm24-38.111L451.056,408H428.944Z"/></svg>
